<svg width="31" height="32" viewBox="0 0 31 32" fill="none" xmlns="http://www.w3.org/2000/svg">
<path d="M0.662574 31.9927C0.296044 31.9927 0 31.6873 0 31.3091V0.683636C0 0.305455 0.296044 0 0.662574 0H23.4227C23.7892 0 24.0853 0.305455 24.0853 0.683636V7.83273C24.0853 8.21091 23.7892 8.51636 23.4227 8.51636C23.0562 8.51636 22.7601 8.21091 22.7601 7.83273V1.70909C22.7601 1.52727 22.6121 1.37455 22.4359 1.37455H1.65643C1.48022 1.37455 1.3322 1.52727 1.3322 1.70909V30.2982C1.3322 30.48 1.48022 30.6327 1.65643 30.6327H12.5396C12.9061 30.6327 13.2021 30.9382 13.2021 31.3164C13.2021 31.6945 12.9061 32 12.5396 32L0.662574 31.9927Z" fill="url(#paint0_linear_7701_243)"/>
<path d="M24.4095 31.9928C24.1839 31.9928 23.9795 31.8764 23.8597 31.6873L22.5416 29.6509C22.4782 29.5564 22.3795 29.4982 22.2738 29.4982C22.2738 29.4982 22.2597 29.4982 22.2526 29.4982C22.1398 29.5055 22.0341 29.5782 21.9848 29.68L21.0543 31.6073C20.9486 31.8255 20.7372 31.9709 20.4975 31.9855C20.4904 31.9855 20.4693 31.9855 20.4552 31.9855C20.2296 31.9855 20.0252 31.8691 19.9054 31.68L18.3124 29.2146C18.249 29.12 18.1503 29.0618 18.0446 29.0618C18.0164 29.0618 17.9952 29.0618 17.967 29.0691L14.6824 29.9128C14.626 29.9273 14.5766 29.9346 14.5202 29.9346C14.3158 29.9346 14.1326 29.84 13.9986 29.68C13.8365 29.4764 13.8083 29.1855 13.9211 28.9455L15.9018 24.8655C16.0145 24.6328 16.2401 24.4873 16.4939 24.4873C16.5996 24.4873 16.6983 24.5091 16.7899 24.56C17.1141 24.7273 17.2481 25.1418 17.0859 25.4837L16.0709 27.5855C16.0145 27.7018 16.0286 27.84 16.1062 27.9418C16.1696 28.0218 16.2613 28.0655 16.3599 28.0655C16.3881 28.0655 16.4093 28.0655 16.4375 28.0582L18.3054 27.5782C18.3618 27.5637 18.4181 27.5564 18.4675 27.5564C18.686 27.5564 18.8904 27.6728 19.0173 27.8618L20.0534 29.4618C20.1169 29.5564 20.2156 29.6146 20.3213 29.6146C20.3213 29.6146 20.3354 29.6146 20.3424 29.6146C20.4552 29.6073 20.5609 29.5346 20.6103 29.4328L22.4077 25.7309C22.4711 25.6 22.4429 25.44 22.3442 25.3382C22.2808 25.28 22.2033 25.2437 22.1187 25.2437C22.0623 25.2437 22.013 25.2582 21.9636 25.2873L21.7592 25.4037C21.3997 25.6146 20.9486 25.8764 20.4764 25.8764C20.3354 25.8764 20.2015 25.8546 20.0675 25.8037C19.4402 25.5782 19.1442 24.9237 18.9115 24.4C18.7565 24.0582 18.6648 23.8618 18.5732 23.76C18.538 23.7237 18.5027 23.7018 18.4604 23.68C18.3899 23.6509 18.2842 23.6291 17.8895 23.5782H17.8683C17.3256 23.4982 16.656 23.3964 16.2754 22.8291C15.9018 22.2764 16.0146 21.6073 16.1132 21.0182C16.1837 20.6182 16.2119 20.3855 16.1767 20.24C16.1767 20.2109 16.1626 20.1818 16.1485 20.1528C16.1062 20.0728 16.0357 19.9782 15.7115 19.6509C15.3167 19.2509 14.8304 18.7491 14.8304 18.0437C14.8304 17.3382 15.3238 16.8364 15.7115 16.4364C15.9793 16.16 16.1062 16.0218 16.1626 15.8982C16.1767 15.8691 16.1837 15.84 16.1908 15.8109C16.2119 15.7018 16.1908 15.5346 16.1132 15.0691C16.0146 14.48 15.9018 13.8109 16.2754 13.2582C16.663 12.6837 17.3326 12.5891 17.8754 12.5091C18.2419 12.4582 18.4181 12.4218 18.5309 12.3637C18.5732 12.3418 18.6085 12.3128 18.6367 12.2764C18.6789 12.2182 18.7353 12.1164 18.9256 11.6873C19.1583 11.1637 19.4472 10.5018 20.0816 10.2837C20.2155 10.24 20.3495 10.2109 20.4904 10.2109C20.9557 10.2109 21.4068 10.4728 21.7663 10.6764C22.0975 10.8728 22.2738 10.96 22.4077 10.9818C22.4218 10.9818 22.4429 10.9818 22.457 10.9818C22.4852 10.9818 22.5134 10.9818 22.5346 10.9746C22.6191 10.9528 22.7319 10.8946 23.1055 10.6764C23.465 10.4655 23.9161 10.2109 24.3884 10.2109C24.5293 10.2109 24.6633 10.2328 24.7972 10.2764C25.4245 10.4946 25.7135 11.1564 25.9532 11.68C26.1082 12.0364 26.1999 12.2182 26.2915 12.32C26.3267 12.3564 26.362 12.3782 26.4043 12.4C26.4748 12.4291 26.5805 12.4509 26.9752 12.5018H26.9964C27.5391 12.5818 28.2087 12.6837 28.5894 13.2509C28.9629 13.8037 28.8502 14.4728 28.7515 15.0618C28.681 15.4618 28.6528 15.6946 28.688 15.84C28.688 15.8691 28.7021 15.8982 28.7162 15.9273C28.7656 16.0218 28.8713 16.1455 29.1462 16.4218C29.5409 16.8291 30.0343 17.3309 30.0343 18.0364C30.0343 18.7418 29.5409 19.2437 29.1532 19.6437C28.8995 19.9055 28.7585 20.0582 28.7021 20.1818C28.688 20.2109 28.681 20.24 28.6739 20.2691C28.6528 20.3782 28.6739 20.5455 28.7515 21.0109C28.8502 21.6 28.9629 22.2764 28.5894 22.8218C28.2017 23.3891 27.5321 23.4909 26.9964 23.5709C26.6298 23.6218 26.4536 23.6582 26.3408 23.7164C26.2985 23.7382 26.2633 23.7673 26.2351 23.8037C26.1928 23.8618 26.1364 23.9637 25.9461 24.3928C25.7135 24.9237 25.4245 25.5782 24.7901 25.7964C24.6562 25.84 24.5223 25.8691 24.3813 25.8691C24.2967 25.8691 24.2051 25.8618 24.1064 25.84C24.0853 25.84 24.0641 25.84 24.043 25.84C23.9231 25.84 23.8104 25.9128 23.754 26.0218L22.9927 27.5855C22.9434 27.6946 22.9504 27.8182 23.0139 27.92L24.1346 29.6509C24.198 29.7455 24.2967 29.8037 24.4025 29.8037C24.5082 29.8037 24.6139 29.7455 24.6703 29.6509L25.8263 27.8618C25.9532 27.6728 26.1576 27.5564 26.3831 27.5564C26.4395 27.5564 26.4889 27.5564 26.5452 27.5782L28.4131 28.0582C28.4131 28.0582 28.4625 28.0655 28.4907 28.0655C28.5894 28.0655 28.681 28.0218 28.7444 27.9418C28.822 27.84 28.8361 27.7018 28.7797 27.5855L27.7647 25.4837C27.6871 25.3164 27.673 25.1346 27.7294 24.96C27.7858 24.7855 27.9056 24.6473 28.0607 24.56C28.1523 24.5091 28.251 24.4873 28.3568 24.4873C28.6105 24.4873 28.8361 24.6328 28.9488 24.8655L30.9295 28.9528C31.0423 29.1928 31.0141 29.4837 30.852 29.6873C30.7251 29.8473 30.5348 29.9418 30.3374 29.9418C30.281 29.9418 30.2317 29.9418 30.1753 29.92L26.8906 29.0764C26.8906 29.0764 26.8413 29.0691 26.8131 29.0691C26.7074 29.0691 26.6016 29.1273 26.5452 29.2218L24.9522 31.6873C24.8254 31.8764 24.621 31.9928 24.4025 31.9928H24.4095ZM22.4288 23.7164C22.9152 23.7164 23.3593 23.9709 23.7469 24.1964L23.7751 24.2109C23.8738 24.2691 23.9936 24.3418 24.0994 24.3928C24.1487 24.4146 24.191 24.4291 24.2403 24.4291C24.3531 24.4291 24.4659 24.3637 24.5223 24.2546C24.5928 24.1237 24.6633 23.9564 24.7196 23.8328C24.917 23.3818 25.1144 22.9309 25.4879 22.64C25.8686 22.3418 26.3408 22.2691 26.7919 22.2037C26.94 22.1818 27.1162 22.1528 27.2431 22.1237C27.3981 22.0873 27.5039 21.9346 27.4968 21.7746C27.4827 21.6146 27.4545 21.4109 27.4263 21.2509C27.3417 20.7637 27.2642 20.2691 27.4052 19.7964C27.5462 19.3382 27.8774 18.9964 28.1946 18.6691C28.3427 18.5237 28.4977 18.3564 28.5894 18.2328C28.6739 18.1164 28.6739 17.9491 28.5894 17.8255C28.4907 17.6946 28.3286 17.52 28.2087 17.3964C27.8774 17.0618 27.5462 16.72 27.4122 16.2618C27.2713 15.7891 27.3558 15.2946 27.4334 14.8218C27.4686 14.6328 27.4968 14.4364 27.5109 14.2837C27.525 14.1164 27.4122 13.9709 27.2572 13.9346C27.1232 13.9055 26.9541 13.8764 26.806 13.8546C26.3549 13.7891 25.8827 13.7237 25.502 13.4182C25.1285 13.1273 24.9311 12.6764 24.7408 12.24C24.6774 12.1018 24.6069 11.9346 24.5364 11.8037C24.48 11.6946 24.3672 11.6291 24.2544 11.6291C24.2051 11.6291 24.1557 11.6437 24.1135 11.6655C24.0077 11.7164 23.8809 11.7964 23.7751 11.8546C23.3945 12.08 22.9293 12.3418 22.4429 12.3418C21.9566 12.3418 21.4914 12.0728 21.1248 11.8618C21.0261 11.8037 20.8922 11.7237 20.7794 11.6655C20.7301 11.6437 20.6878 11.6291 20.6385 11.6291C20.5257 11.6291 20.4129 11.6946 20.3565 11.8037C20.286 11.9418 20.2015 12.1237 20.1521 12.24C19.9618 12.6764 19.7574 13.1273 19.3838 13.4182C19.0032 13.7164 18.5309 13.7891 18.0798 13.8546C17.9318 13.8764 17.7556 13.8982 17.6216 13.9346C17.4666 13.9709 17.3608 14.1237 17.3749 14.2837C17.389 14.4364 17.4172 14.6328 17.4525 14.8218C17.53 15.3018 17.6146 15.7964 17.4736 16.2618C17.3327 16.7273 17.0014 17.0618 16.6842 17.3964L16.6701 17.4109C16.5502 17.5346 16.3881 17.7018 16.2894 17.8328C16.2049 17.9491 16.2049 18.1164 16.2894 18.24C16.3881 18.3709 16.5502 18.5455 16.6701 18.6691C17.0014 19.0037 17.3326 19.3455 17.4666 19.8037C17.6075 20.2764 17.523 20.7709 17.4454 21.2437C17.4102 21.4328 17.382 21.6291 17.3679 21.7818C17.3538 21.9491 17.4595 22.0946 17.6146 22.1309C17.7485 22.16 17.9177 22.1891 18.0587 22.2109C18.5239 22.2764 18.9891 22.3418 19.3768 22.6473C19.7503 22.9382 19.9477 23.3891 20.138 23.8255C20.1944 23.9564 20.2719 24.1237 20.3424 24.2618C20.3988 24.3709 20.5116 24.4364 20.6244 24.4364C20.6737 24.4364 20.7231 24.4218 20.7653 24.4C20.8781 24.3418 21.005 24.2691 21.1037 24.2109C21.5055 23.9782 21.9495 23.7237 22.4359 23.7237L22.4288 23.7164Z" fill="url(#paint1_linear_7701_243)"/>
<path d="M22.4288 21.7818C20.427 21.7818 18.7988 20.1018 18.7988 18.0363C18.7988 15.9709 20.427 14.2909 22.4288 14.2909C24.4307 14.2909 26.0589 15.9709 26.0589 18.0363C26.0589 20.1018 24.4307 21.7818 22.4288 21.7818ZM22.4288 15.6582C21.1601 15.6582 20.1239 16.7273 20.1239 18.0363C20.1239 19.3454 21.1601 20.4145 22.4288 20.4145C23.6976 20.4145 24.7337 19.3454 24.7337 18.0363C24.7337 16.7273 23.6976 15.6582 22.4288 15.6582Z" fill="url(#paint2_linear_7701_243)" fill-opacity="0.5"/>
<path d="M19.4613 7.49092C19.0948 7.49092 18.7988 7.18546 18.7988 6.80728V5.7891C18.7988 5.60728 18.6507 5.45455 18.4745 5.45455H15.507C15.1405 5.45455 14.8445 5.1491 14.8445 4.77092C14.8445 4.39273 15.1405 4.08728 15.507 4.08728H19.4684C19.8349 4.08728 20.131 4.39273 20.131 4.77092V6.81455C20.131 7.19273 19.8349 7.49819 19.4684 7.49819L19.4613 7.49092Z" fill="url(#paint3_linear_7701_243)"/>
<path d="M4.62392 27.9054C4.25739 27.9054 3.96135 27.6 3.96135 27.2218V25.1781C3.96135 24.8 4.25739 24.4945 4.62392 24.4945C4.99045 24.4945 5.2865 24.8 5.2865 25.1781V26.1963C5.2865 26.3781 5.43452 26.5309 5.61074 26.5309H8.57822C8.94475 26.5309 9.24079 26.8363 9.24079 27.2145C9.24079 27.5927 8.94475 27.8981 8.57822 27.8981L4.62392 27.9054Z" fill="url(#paint4_linear_7701_243)"/>
<path d="M6.59754 9.52731C6.23101 9.52731 5.93497 9.22185 5.93497 8.84367C5.93497 8.46549 6.23101 8.16003 6.59754 8.16003H15.5C15.8665 8.16003 16.1626 8.46549 16.1626 8.84367C16.1626 9.22185 15.8665 9.52731 15.5 9.52731H6.59754Z" fill="url(#paint5_linear_7701_243)"/>
<path d="M6.59754 13.6146C6.23101 13.6146 5.93497 13.3091 5.93497 12.931C5.93497 12.5528 6.23101 12.2473 6.59754 12.2473H12.5325C12.899 12.2473 13.1951 12.5528 13.1951 12.931C13.1951 13.3091 12.899 13.6146 12.5325 13.6146H6.59754Z" fill="url(#paint6_linear_7701_243)"/>
<path d="M6.59754 17.6945C6.23101 17.6945 5.93497 17.3891 5.93497 17.0109C5.93497 16.6327 6.23101 16.3273 6.59754 16.3273H12.5325C12.899 16.3273 13.1951 16.6327 13.1951 17.0109C13.1951 17.3891 12.899 17.6945 12.5325 17.6945H6.59754Z" fill="url(#paint7_linear_7701_243)"/>
<path d="M6.59754 21.7818C6.23101 21.7818 5.93497 21.4764 5.93497 21.0982C5.93497 20.72 6.23101 20.4146 6.59754 20.4146H12.5325C12.899 20.4146 13.1951 20.72 13.1951 21.0982C13.1951 21.4764 12.899 21.7818 12.5325 21.7818H6.59754Z" fill="url(#paint8_linear_7701_243)"/>
<defs>
<linearGradient id="paint0_linear_7701_243" x1="-2.95562" y1="34.8571" x2="28.4674" y2="10.9491" gradientUnits="userSpaceOnUse">
<stop stop-color="#F3491D"/>
<stop offset="1" stop-color="#FA752F"/>
</linearGradient>
<linearGradient id="paint1_linear_7701_243" x1="11.7491" y1="33.9375" x2="33.3747" y2="16.7308" gradientUnits="userSpaceOnUse">
<stop stop-color="#F3491D"/>
<stop offset="1" stop-color="#FA752F"/>
</linearGradient>
<linearGradient id="paint2_linear_7701_243" x1="17.9079" y1="22.4506" x2="25.5386" y2="14.9746" gradientUnits="userSpaceOnUse">
<stop stop-color="#F3491D"/>
<stop offset="1" stop-color="#FA752F"/>
</linearGradient>
<linearGradient id="paint3_linear_7701_243" x1="14.1957" y1="7.80273" x2="17.348" y2="2.8641" gradientUnits="userSpaceOnUse">
<stop stop-color="#F3491D"/>
<stop offset="1" stop-color="#FA752F"/>
</linearGradient>
<linearGradient id="paint4_linear_7701_243" x1="3.31348" y1="28.21" x2="6.46746" y2="23.2751" gradientUnits="userSpaceOnUse">
<stop stop-color="#F3491D"/>
<stop offset="1" stop-color="#FA752F"/>
</linearGradient>
<linearGradient id="paint5_linear_7701_243" x1="4.67989" y1="9.64938" x2="5.04202" y2="6.9111" gradientUnits="userSpaceOnUse">
<stop stop-color="#F3491D"/>
<stop offset="1" stop-color="#FA752F"/>
</linearGradient>
<linearGradient id="paint6_linear_7701_243" x1="5.04404" y1="13.7367" x2="5.5457" y2="11.044" gradientUnits="userSpaceOnUse">
<stop stop-color="#F3491D"/>
<stop offset="1" stop-color="#FA752F"/>
</linearGradient>
<linearGradient id="paint7_linear_7701_243" x1="5.04404" y1="17.8166" x2="5.5457" y2="15.1239" gradientUnits="userSpaceOnUse">
<stop stop-color="#F3491D"/>
<stop offset="1" stop-color="#FA752F"/>
</linearGradient>
<linearGradient id="paint8_linear_7701_243" x1="5.04404" y1="21.9039" x2="5.5457" y2="19.2112" gradientUnits="userSpaceOnUse">
<stop stop-color="#F3491D"/>
<stop offset="1" stop-color="#FA752F"/>
</linearGradient>
</defs>
</svg>
