<svg width="36" height="21" viewBox="0 0 36 21" fill="none" xmlns="http://www.w3.org/2000/svg">
<path d="M20.3664 0.74386C19.9204 0.962985 19.8812 1.10385 19.5526 3.569C19.3882 4.83679 19.2473 5.9872 19.2473 6.12024C19.2473 6.39414 19.443 6.74631 19.6934 6.91848C19.7873 6.98108 20.8282 7.15325 22.3151 7.3489C24.6394 7.65411 24.8037 7.66193 25.0307 7.55237C25.555 7.27847 25.6411 6.59762 25.1872 6.22197C24.9133 5.9872 24.9446 5.99502 23.5124 5.78372C21.8768 5.54112 21.9707 5.58808 22.4246 5.26722C22.9959 4.85244 24.2872 4.24203 24.9994 4.04638C25.5315 3.90551 25.8211 3.87421 26.9167 3.87421C28.0984 3.87421 28.2706 3.89769 28.9123 4.09333C31.6905 4.9307 33.6313 7.03586 34.2104 9.85318C34.4295 10.894 34.3748 12.334 34.0774 13.3357C33.1931 16.333 30.7592 18.4069 27.668 18.7747C26.0246 18.9703 23.9116 18.3834 22.2838 17.2799C21.1256 16.4895 19.9986 15.1043 19.3256 13.6644C18.9734 12.8896 18.8091 12.3809 18.4335 10.8471C17.9482 8.88277 17.4239 7.61498 16.5396 6.28458C14.857 3.73334 11.9615 2.14469 9.03457 2.16034C4.62078 2.18382 0.872183 5.3846 0.105247 9.78275C-0.0825738 10.8471 -0.0121409 12.5218 0.261765 13.5548C1.13044 16.8886 3.59559 19.3225 7.03115 20.2459C7.68852 20.4181 7.94678 20.4416 9.11283 20.4494C10.3258 20.4572 10.5137 20.4338 11.2884 20.2381C13.1432 19.7529 14.5596 18.9312 15.8353 17.6008C16.3518 17.0608 16.43 16.9356 16.43 16.693C16.43 16.1608 16.1092 15.8087 15.624 15.8008C15.3501 15.8008 15.2483 15.8713 14.4423 16.6382C13.8631 17.2017 13.3623 17.6008 12.9553 17.8277C9.13631 19.9955 4.33905 18.4929 2.46084 14.5331C0.700014 10.8236 2.23389 6.40979 5.90422 4.60202C7.08593 4.0229 7.712 3.88204 9.0737 3.87421C10.3806 3.86638 10.991 3.99942 12.0945 4.53158C13.6753 5.29069 14.904 6.54283 15.7883 8.27235C16.297 9.26624 16.5239 9.90796 16.9387 11.5749C17.4474 13.5783 17.8856 14.627 18.7621 15.9574C19.3021 16.7634 20.4838 17.9686 21.2821 18.5164C23.309 19.8938 25.9306 20.6138 27.9497 20.3477C31.9644 19.8077 35.1182 16.8495 35.8773 12.8896C36.0495 11.974 36.0417 10.3306 35.846 9.42276C35.126 5.99502 32.5513 3.25597 29.2566 2.4186C26.6663 1.7534 23.5672 2.31686 21.6264 3.79595C21.4308 3.94464 21.2508 4.05421 21.2351 4.03855C21.2116 4.0229 21.2742 3.42031 21.3603 2.70815C21.509 1.55775 21.5168 1.39341 21.4151 1.18993C21.1647 0.704731 20.7734 0.540387 20.3664 0.74386Z" fill="white"/>
</svg>
