<svg width="27" height="27" viewBox="0 0 27 27" fill="none" xmlns="http://www.w3.org/2000/svg">
<path d="M1.44205 27C0.650455 27 0 26.3557 0 25.558V4.88455C0 4.09295 0.644318 3.4425 1.44205 3.4425H3.16636C3.31977 3.4425 3.44864 3.31364 3.44864 3.16023V2.30114C3.44864 1.98205 3.70636 1.72432 4.02545 1.72432H7.08136C7.17955 1.72432 7.27773 1.66909 7.32682 1.58318C7.89136 0.6075 8.93455 0 10.0575 0C11.1805 0 12.2236 0.6075 12.7882 1.58318C12.8373 1.66909 12.9293 1.72432 13.0336 1.72432H16.0895C16.4086 1.72432 16.6664 1.98205 16.6664 2.30114V3.16023C16.6664 3.31364 16.7952 3.4425 16.9486 3.4425H18.673C19.4645 3.4425 20.115 4.08682 20.115 4.88455V25.558C20.115 26.3495 19.4707 27 18.673 27H1.44205ZM1.44205 4.60227C1.28864 4.60227 1.15977 4.73114 1.15977 4.88455V25.558C1.15977 25.7114 1.28864 25.8402 1.44205 25.8402H18.673C18.8264 25.8402 18.9552 25.7114 18.9552 25.558V4.88455C18.9552 4.73114 18.8264 4.60227 18.673 4.60227H16.9486C16.7952 4.60227 16.6664 4.73114 16.6664 4.88455V5.74364C16.6664 6.06273 16.4086 6.32045 16.0895 6.32045H4.03159C3.7125 6.32045 3.45477 6.06273 3.45477 5.74364V4.88455C3.45477 4.73114 3.32591 4.60227 3.1725 4.60227H1.44205ZM4.89068 2.87795C4.73727 2.87795 4.60841 3.00682 4.60841 3.16023V4.88455C4.60841 5.03795 4.73727 5.16682 4.89068 5.16682H15.2305C15.3839 5.16682 15.5127 5.03795 15.5127 4.88455V3.16023C15.5127 3.00682 15.3839 2.87795 15.2305 2.87795H12.4875C12.242 2.87795 12.0273 2.72455 11.9414 2.49136C11.6591 1.69364 10.8982 1.15364 10.0636 1.15364C9.22909 1.15364 8.46818 1.69364 8.18591 2.49136C8.10614 2.71841 7.88523 2.87795 7.63977 2.87795H4.89682H4.89068Z" fill="white"/>
<path d="M11.7757 11.4934C11.4566 11.4934 11.1989 11.2356 11.1989 10.9165C11.1989 10.5974 11.4566 10.3397 11.7757 10.3397H16.0834C16.4025 10.3397 16.6602 10.5974 16.6602 10.9165C16.6602 11.2356 16.4025 11.4934 16.0834 11.4934H11.7757Z" fill="white" fill-opacity="0.5"/>
<path d="M11.7757 16.6602C11.4566 16.6602 11.1989 16.4025 11.1989 16.0834C11.1989 15.7643 11.4566 15.5066 11.7757 15.5066H16.0834C16.4025 15.5066 16.6602 15.7643 16.6602 16.0834C16.6602 16.4025 16.4025 16.6602 16.0834 16.6602H11.7757Z" fill="white" fill-opacity="0.5"/>
<path d="M11.7757 21.8332C11.4566 21.8332 11.1989 21.5755 11.1989 21.2564C11.1989 20.9373 11.4566 20.6796 11.7757 20.6796H16.0834C16.4025 20.6796 16.6602 20.9373 16.6602 21.2564C16.6602 21.5755 16.4025 21.8332 16.0834 21.8332H11.7757Z" fill="white" fill-opacity="0.5"/>
<path d="M5.7498 13.2177C5.68843 13.2177 5.62093 13.2054 5.55343 13.1809C5.55343 13.1809 5.5473 13.1809 5.54116 13.1748C5.52275 13.1686 5.51048 13.1564 5.49207 13.1502C5.47366 13.1441 5.46139 13.1318 5.44298 13.1257C5.43684 13.1257 5.43071 13.1257 5.42457 13.1195C5.4123 13.1073 5.40003 13.0889 5.38162 13.0766C5.36321 13.0582 5.3448 13.0459 5.32639 13.0398L3.62048 11.3339C3.39343 11.1068 3.39343 10.7386 3.62048 10.5177C3.73093 10.4073 3.87821 10.3459 4.03162 10.3459C4.18502 10.3459 4.3323 10.4073 4.44275 10.5177L5.46139 11.5364C5.51662 11.5916 5.58412 11.6161 5.66389 11.6161C5.67002 11.6161 5.67616 11.6161 5.6823 11.6161C5.76207 11.6161 5.84184 11.567 5.89093 11.5057L7.87912 8.85476C7.98957 8.70749 8.15525 8.62158 8.34548 8.62158C8.47434 8.62158 8.59093 8.66454 8.68912 8.73817C8.81184 8.83022 8.89162 8.96522 8.91616 9.11863C8.94071 9.27204 8.89775 9.42545 8.80571 9.54817L6.24071 12.9661C6.24071 12.9661 6.21003 12.9907 6.19162 13.0152C6.17321 13.0336 6.16093 13.052 6.1548 13.0704C6.14252 13.0766 6.13025 13.0827 6.11798 13.0889C6.09957 13.1011 6.08116 13.1134 6.05662 13.1257C6.03821 13.1379 6.0198 13.1502 6.00139 13.1625C6.00139 13.1625 5.98912 13.1686 5.98298 13.1748C5.90934 13.2054 5.82957 13.23 5.75593 13.23L5.7498 13.2177Z" fill="white"/>
<path d="M5.7498 18.3846C5.68843 18.3846 5.62093 18.3723 5.55343 18.3416C5.55343 18.3416 5.5473 18.3416 5.54116 18.3355C5.52275 18.3293 5.51048 18.3171 5.49207 18.3109C5.47366 18.3048 5.46139 18.2925 5.44298 18.2864C5.43684 18.2864 5.43071 18.2864 5.42457 18.2802C5.4123 18.268 5.40003 18.2496 5.38162 18.2373C5.36321 18.2189 5.3448 18.2066 5.32639 18.2005L3.62048 16.4946C3.39343 16.2675 3.39343 15.8993 3.62048 15.6784C3.73093 15.568 3.87821 15.5066 4.03162 15.5066C4.18502 15.5066 4.3323 15.568 4.44275 15.6784L5.46139 16.6971C5.51662 16.7523 5.58412 16.7768 5.66389 16.7768C5.67002 16.7768 5.67616 16.7768 5.6823 16.7768C5.76207 16.7768 5.84184 16.7277 5.89093 16.6664L7.87912 14.0155C7.98957 13.8682 8.15525 13.7823 8.33934 13.7823C8.46821 13.7823 8.5848 13.8252 8.68912 13.8989C8.81184 13.9909 8.89162 14.1259 8.91616 14.2793C8.94071 14.4327 8.89775 14.5862 8.80571 14.7089L6.24071 18.1268C6.24071 18.1268 6.21003 18.1514 6.19162 18.1759C6.17321 18.1943 6.16093 18.2127 6.1548 18.2312C6.14252 18.2373 6.13025 18.2434 6.11798 18.2557C6.09957 18.268 6.08116 18.2802 6.05662 18.2925C6.03821 18.3048 6.0198 18.3171 6.00139 18.3293C6.00139 18.3293 5.98912 18.3355 5.98298 18.3416C5.90934 18.3723 5.82957 18.3968 5.75593 18.3968L5.7498 18.3846Z" fill="white"/>
<path d="M5.7498 23.5513C5.68843 23.5513 5.62093 23.5391 5.55343 23.5084C5.55343 23.5084 5.5473 23.5084 5.54116 23.5022C5.52275 23.4961 5.51048 23.4838 5.49207 23.4777C5.47366 23.4716 5.46139 23.4593 5.44298 23.4532C5.43684 23.4532 5.43071 23.4532 5.42457 23.447C5.4123 23.4347 5.40003 23.4163 5.38162 23.4041C5.36321 23.3857 5.3448 23.3734 5.32639 23.3672L3.62048 21.6613C3.39343 21.4343 3.39343 21.0661 3.62048 20.8452C3.73093 20.7347 3.87821 20.6734 4.03162 20.6734C4.18502 20.6734 4.3323 20.7347 4.44275 20.8452L5.46139 21.8638C5.51662 21.9191 5.58412 21.9497 5.66389 21.9497C5.67002 21.9497 5.67616 21.9497 5.6823 21.9497C5.76207 21.9497 5.84184 21.9007 5.89093 21.8393L7.87912 19.1884C7.98957 19.0411 8.16139 18.9552 8.34548 18.9552C8.46821 18.9552 8.59093 18.9982 8.68912 19.0718C8.81184 19.1638 8.89162 19.2988 8.91616 19.4522C8.94071 19.6057 8.89775 19.7591 8.80571 19.8818L6.24071 23.2997C6.24071 23.2997 6.21003 23.3243 6.19162 23.3488C6.17321 23.3672 6.16093 23.3857 6.1548 23.4041C6.14252 23.4102 6.13025 23.4163 6.11798 23.4286C6.09957 23.4409 6.08116 23.4532 6.05662 23.4654C6.03821 23.4777 6.0198 23.49 6.00139 23.5022C6.00139 23.5022 5.98912 23.5084 5.98298 23.5145C5.90934 23.5452 5.82957 23.5697 5.75593 23.5697L5.7498 23.5513Z" fill="white"/>
<path d="M24.6988 27C24.4779 27 24.2816 26.8773 24.1834 26.6809L22.4591 23.2384C22.4161 23.1586 22.3977 23.0666 22.3977 22.9807V4.03159C22.3977 3.7125 22.6554 3.45477 22.9745 3.45477H26.4232C26.7423 3.45477 27 3.7125 27 4.03159V22.9807C27 23.0727 26.9816 23.1586 26.9386 23.2384L25.2143 26.687C25.1161 26.8834 24.9198 27.0061 24.6988 27ZM23.8397 20.968C23.6863 20.968 23.5575 21.0968 23.5575 21.2502V22.772C23.5575 22.815 23.5697 22.858 23.5882 22.9009L24.4473 24.6252C24.4963 24.7234 24.5945 24.7786 24.6988 24.7786C24.8032 24.7786 24.9013 24.7173 24.9504 24.6252L25.8095 22.9009C25.8279 22.8641 25.8402 22.8211 25.8402 22.772V21.2502C25.8402 21.0968 25.7113 20.968 25.5579 20.968H23.8397ZM23.8397 8.04477C23.6863 8.04477 23.5575 8.17364 23.5575 8.32705V19.5259C23.5575 19.6793 23.6863 19.8082 23.8397 19.8082H25.5641C25.7175 19.8082 25.8463 19.6793 25.8463 19.5259V8.32705C25.8463 8.17364 25.7175 8.04477 25.5641 8.04477H23.8397ZM23.8397 4.59614C23.6863 4.59614 23.5575 4.725 23.5575 4.87841V6.60273C23.5575 6.75614 23.6863 6.885 23.8397 6.885H25.5641C25.7175 6.885 25.8463 6.75614 25.8463 6.60273V4.87841C25.8463 4.725 25.7175 4.59614 25.5641 4.59614H23.8397Z" fill="white"/>
<path d="M10.0575 3.64505C10.4811 3.64505 10.8246 3.30163 10.8246 2.87801C10.8246 2.45438 10.4811 2.11096 10.0575 2.11096C9.63388 2.11096 9.29047 2.45438 9.29047 2.87801C9.29047 3.30163 9.63388 3.64505 10.0575 3.64505Z" fill="white"/>
</svg>
