<svg width="28" height="28" viewBox="0 0 28 28" fill="none" xmlns="http://www.w3.org/2000/svg">
<path d="M0.598046 27.9936C0.267212 27.9936 0 27.7264 0 27.3956C0 27.0647 0.267212 26.7975 0.598046 26.7975H4.38991C4.47262 26.7975 4.55533 26.7594 4.60623 26.6957C4.66349 26.6321 4.68893 26.5494 4.67621 26.4667L3.57555 17.337C3.57555 17.337 3.57555 17.2861 3.57555 17.267C3.57555 16.6244 4.10361 16.1027 4.75256 16.1027H5.99318C6.14588 16.1027 6.27312 15.9818 6.28584 15.8291C6.41309 14.0859 6.9666 12.7498 7.91457 11.8527C9.04704 10.7775 10.4085 10.6948 10.7966 10.6948C10.7966 10.6948 10.8539 10.6948 10.8603 10.6948C11.1847 10.7139 11.4392 11.0002 11.4201 11.3247C11.401 11.6364 11.1466 11.8909 10.8475 11.8909C10.8348 11.8909 10.8157 11.8909 10.803 11.8909H10.7903H10.7585C10.5676 11.8909 9.56237 11.9291 8.72256 12.7435C8.03545 13.4051 7.6219 14.4167 7.50102 15.7528C7.49466 15.8355 7.52011 15.9182 7.57737 15.9754C7.63463 16.0391 7.71098 16.0709 7.79368 16.0709H20.219C20.3018 16.0709 20.3781 16.0327 20.4354 15.9754C20.4926 15.9118 20.5181 15.8355 20.5117 15.7528C20.3845 14.4294 19.9646 13.4242 19.2647 12.7562C18.374 11.9164 17.2924 11.8909 17.1716 11.8909C17.1525 11.8909 17.1334 11.8909 17.1079 11.8909H17.0952C16.7707 11.8909 16.5035 11.6428 16.4844 11.3247C16.4653 10.9938 16.7198 10.7139 17.0443 10.6948H17.1016C17.5087 10.6948 18.9212 10.7775 20.0854 11.8846C21.0334 12.7816 21.5806 14.1113 21.7142 15.8291C21.7269 15.9818 21.8541 16.1027 22.0068 16.1027H23.2474C23.8964 16.1027 24.4244 16.6244 24.4244 17.267C24.4244 17.2924 24.4244 17.3115 24.4244 17.337L23.3238 26.4731C23.3111 26.5558 23.3429 26.6385 23.3938 26.7021C23.451 26.7657 23.5274 26.8039 23.6101 26.8039H27.402C27.7328 26.8039 28 27.0711 28 27.4019C28 27.7328 27.7328 28 27.402 28H0.61077L0.598046 27.9936ZM5.10884 17.2988C5.02613 17.2988 4.94342 17.337 4.89252 17.4006C4.83527 17.4642 4.80982 17.5469 4.82254 17.6296L5.89775 26.543C5.91684 26.6894 6.03772 26.8039 6.19041 26.8039H21.8096C21.9559 26.8039 22.0832 26.6957 22.1023 26.543L23.1775 17.6296C23.1902 17.5469 23.1584 17.4642 23.1075 17.4006C23.0502 17.337 22.9739 17.2988 22.8912 17.2988H5.12156H5.10884Z" fill="white"/>
<path d="M13.9968 24.3989C12.6989 24.3989 11.6428 23.3428 11.6428 22.0513C11.6428 20.7597 12.6989 19.7036 13.9968 19.7036C15.2947 19.7036 16.3508 20.7597 16.3508 22.0513C16.3508 23.3428 15.2947 24.3989 13.9968 24.3989ZM13.9968 20.8997C13.3606 20.8997 12.8453 21.415 12.8453 22.0513C12.8453 22.6875 13.3606 23.2028 13.9968 23.2028C14.633 23.2028 15.1547 22.6875 15.1547 22.0513C15.1547 21.415 14.6394 20.8997 13.9968 20.8997Z" fill="white" fill-opacity="0.5"/>
<path d="M13.9396 11.0002C12.2281 11.0002 10.2304 8.41718 10.2177 5.08339C10.2177 4.92434 10.0841 4.79073 9.92502 4.79073H9.47966C9.14883 4.79073 8.88162 4.52352 8.88162 4.19268V1.48875C8.88162 1.3297 8.74801 1.19609 8.58896 1.19609H7.69825C7.36742 1.19609 7.1002 0.92888 7.1002 0.598046C7.1002 0.267212 7.36742 0 7.69825 0H21.097C21.4279 0 21.6951 0.267212 21.6951 0.598046V5.05158C21.6951 5.38241 21.4279 5.64962 21.097 5.64962C20.7662 5.64962 20.499 5.38241 20.499 5.05158V1.48875C20.499 1.3297 20.3654 1.19609 20.2063 1.19609H19.3156C19.1566 1.19609 19.023 1.3297 19.023 1.48875V4.19268C19.023 4.52352 18.7557 4.79073 18.4249 4.79073H17.9796C17.8205 4.79073 17.6869 4.92434 17.6869 5.08339C17.6742 8.35992 15.6383 11.0002 13.965 11.0002H13.9396ZM11.7064 4.79073C11.6301 4.79073 11.5537 4.82254 11.4965 4.8798C11.4392 4.93706 11.4138 5.00704 11.4138 5.08975C11.4265 7.86367 13.0616 9.80414 13.9396 9.80414C14.8175 9.80414 16.4526 7.81277 16.4653 5.08975C16.4653 5.01341 16.4335 4.93706 16.3826 4.8798C16.3254 4.82254 16.2554 4.79073 16.1727 4.79073H11.7128H11.7064ZM10.364 1.19609C10.205 1.19609 10.0713 1.3297 10.0713 1.48875V3.30198C10.0713 3.46103 10.205 3.59464 10.364 3.59464H17.5087C17.6678 3.59464 17.8014 3.46103 17.8014 3.30198V1.48875C17.8014 1.3297 17.6678 1.19609 17.5087 1.19609H10.364Z" fill="white"/>
<path d="M21.0843 9.21889C20.7535 9.21889 20.4863 8.95168 20.4863 8.62084V7.29751C20.4863 6.96668 20.7535 6.69946 21.0843 6.69946C21.4151 6.69946 21.6823 6.96668 21.6823 7.29751V8.62084C21.6823 8.95168 21.4151 9.21889 21.0843 9.21889Z" fill="white" fill-opacity="0.5"/>
</svg>
