<svg width="31" height="32" viewBox="0 0 31 32" fill="none" xmlns="http://www.w3.org/2000/svg">
<path d="M15.5 31C6.95386 31 0 24.0461 0 15.5C0 6.95386 6.95386 0 15.5 0C24.0461 0 31 6.95386 31 15.5C31 16.5427 30.8943 17.5855 30.69 18.6C30.6266 18.91 30.3518 19.1284 30.0277 19.1284C29.9855 19.1284 29.9432 19.1284 29.9009 19.1143C29.5486 19.0439 29.3161 18.6916 29.3866 18.3323C29.5768 17.4023 29.6684 16.4511 29.6684 15.5C29.6684 7.68659 23.3134 1.32455 15.5 1.32455C7.68659 1.32455 1.33159 7.67954 1.33159 15.5C1.33159 23.3205 7.68659 29.6684 15.5 29.6684C16.4582 29.6684 17.4164 29.5768 18.3323 29.3866C18.3816 29.3795 18.4239 29.3725 18.4732 29.3725C18.7832 29.3725 19.058 29.598 19.1214 29.908C19.1566 30.0841 19.1214 30.2602 19.0227 30.4082C18.9241 30.5561 18.7761 30.6548 18.6 30.69C17.5925 30.8943 16.5498 31 15.5 31Z" fill="url(#paint0_linear_7701_257)"/>
<path d="M27.3716 30.9999C27.1955 30.9999 27.0264 30.9294 26.8995 30.8026L23.6445 27.5476C23.5811 27.4842 23.5036 27.449 23.412 27.449C23.3205 27.449 23.243 27.4842 23.1795 27.5476L21.9043 28.8299C21.7775 28.9567 21.6084 29.0272 21.4323 29.0272C21.3689 29.0272 21.3055 29.0201 21.2491 28.999C21.0166 28.9285 20.8405 28.7383 20.7841 28.5058L18.8043 19.6074C18.755 19.3819 18.8184 19.1565 18.9805 18.9944C19.1002 18.8747 19.2764 18.8042 19.4595 18.8042C19.5089 18.8042 19.5582 18.8042 19.6005 18.8183L28.4989 20.7981C28.7384 20.8474 28.9216 21.0306 28.992 21.2631C29.0625 21.4956 28.992 21.7492 28.823 21.9183L27.5407 23.2006C27.4139 23.3274 27.4139 23.5317 27.5407 23.6585L30.7957 26.9135C31.0564 27.1742 31.0564 27.5969 30.7957 27.8506L27.8295 30.8167C27.7027 30.9435 27.5407 31.014 27.3575 31.014L27.3716 30.9999ZM23.412 25.7158C23.5882 25.7158 23.7573 25.7862 23.8841 25.9131L27.1391 29.1681C27.2025 29.2315 27.287 29.2597 27.3716 29.2597C27.4561 29.2597 27.5407 29.2315 27.6041 29.1681L29.1752 27.5969C29.2386 27.5335 29.2668 27.456 29.2668 27.3644C29.2668 27.2728 29.2316 27.1953 29.1752 27.1319L25.9202 23.8769C25.6595 23.6162 25.6595 23.1935 25.9202 22.9399L26.6248 22.2353C26.7093 22.1508 26.7375 22.031 26.7093 21.9183C26.6741 21.8056 26.5825 21.721 26.4698 21.6928L20.8475 20.4458C20.8475 20.4458 20.7982 20.4387 20.777 20.4387C20.6925 20.4387 20.608 20.474 20.5445 20.5374C20.467 20.6149 20.4318 20.7276 20.46 20.8403L21.707 26.4626C21.7352 26.5753 21.8198 26.674 21.9325 26.7022C21.9607 26.7092 21.9959 26.7162 22.0241 26.7162C22.1086 26.7162 22.1932 26.681 22.2566 26.6247L22.9611 25.9201C23.088 25.7933 23.25 25.7228 23.4332 25.7228L23.412 25.7158Z" fill="url(#paint1_linear_7701_257)" fill-opacity="0.5"/>
<path d="M15.5 27.0476C9.13795 27.0476 3.95954 21.8691 3.95954 15.5001C3.95954 9.13096 9.13795 3.95959 15.5 3.95959C21.862 3.95959 27.0405 9.13801 27.0405 15.5001C27.0405 16.2046 26.977 16.9091 26.8502 17.5996C26.7939 17.9166 26.5191 18.1491 26.2091 18.1491C26.1668 18.1491 26.1245 18.1491 26.0823 18.135C25.9061 18.0998 25.7511 18.0012 25.6525 17.8603C25.5539 17.7123 25.5116 17.5362 25.5468 17.3601C25.6595 16.7471 25.7159 16.1271 25.7159 15.5001C25.7159 9.87073 21.1364 5.28414 15.5 5.28414C9.86363 5.28414 5.28409 9.86369 5.28409 15.5001C5.28409 21.1364 9.86363 25.716 15.5 25.716C16.12 25.716 16.747 25.6596 17.36 25.5469C17.4023 25.5469 17.4375 25.5328 17.4798 25.5328C17.7968 25.5328 18.0716 25.7582 18.135 26.0753C18.1702 26.2514 18.135 26.4276 18.0293 26.5755C17.9307 26.7235 17.7757 26.8221 17.5995 26.8503C16.9161 26.9771 16.2045 27.0405 15.5 27.0476Z" fill="url(#paint2_linear_7701_257)"/>
<path d="M12.9425 21.1082C12.7593 21.1082 12.5832 21.0589 12.4211 20.9743C12.083 20.7911 11.8716 20.4389 11.8716 20.0514V10.9416C11.8716 10.5611 12.083 10.2089 12.4211 10.0186C12.5832 9.93408 12.7593 9.88477 12.9425 9.88477C13.1468 9.88477 13.3511 9.94113 13.5273 10.0539L20.6291 14.6052C20.932 14.8025 21.1152 15.1336 21.1152 15.4859C21.1152 15.8382 20.932 16.1764 20.6291 16.3666L13.5273 20.925C13.3511 21.0377 13.1539 21.0941 12.9425 21.0941V21.1082ZM13.5273 11.7025C13.4709 11.7025 13.4216 11.7166 13.3723 11.7448C13.2666 11.8011 13.2032 11.9139 13.2032 12.0266V18.9734C13.2032 19.0932 13.2666 19.1989 13.3723 19.2552C13.4216 19.2834 13.478 19.2975 13.5273 19.2975C13.5907 19.2975 13.647 19.2834 13.7034 19.2482L19.1214 15.7748C19.213 15.7184 19.2693 15.6127 19.2693 15.5C19.2693 15.3873 19.213 15.2886 19.1214 15.2252L13.7034 11.7518C13.647 11.7166 13.5907 11.7025 13.5273 11.7025Z" fill="url(#paint3_linear_7701_257)"/>
<defs>
<linearGradient id="paint0_linear_7701_257" x1="-3.80416" y1="33.7678" x2="27.7793" y2="1.84117" gradientUnits="userSpaceOnUse">
<stop stop-color="#F3491D"/>
<stop offset="1" stop-color="#FA752F"/>
</linearGradient>
<linearGradient id="paint1_linear_7701_257" x1="17.2905" y1="32.1041" x2="29.7301" y2="19.5361" gradientUnits="userSpaceOnUse">
<stop stop-color="#F3491D"/>
<stop offset="1" stop-color="#FA752F"/>
</linearGradient>
<linearGradient id="paint2_linear_7701_257" x1="1.12717" y1="29.1089" x2="24.6497" y2="5.33802" gradientUnits="userSpaceOnUse">
<stop stop-color="#F3491D"/>
<stop offset="1" stop-color="#FA752F"/>
</linearGradient>
<linearGradient id="paint3_linear_7701_257" x1="10.7373" y1="22.1102" x2="21.9832" y2="12.7474" gradientUnits="userSpaceOnUse">
<stop stop-color="#F3491D"/>
<stop offset="1" stop-color="#FA752F"/>
</linearGradient>
</defs>
</svg>
