<svg width="53" height="56" viewBox="0 0 53 56" fill="none" xmlns="http://www.w3.org/2000/svg">
<path d="M24.9527 0.165338C22.6554 0.657608 20.5222 2.58294 19.7674 4.84738C19.4502 5.78817 19.3627 6.84928 19.472 8.36985C19.5705 9.69351 19.6033 9.79197 19.8659 10.0217C20.2269 10.3389 20.4894 10.3389 20.8504 10.0217C21.0801 9.82479 21.1458 9.67164 21.1676 9.22312C21.2114 8.49019 21.638 7.74631 22.2944 7.28686C22.9617 6.80552 23.3555 6.68519 24.1978 6.67425C24.7995 6.66331 25.0402 6.71801 25.5653 6.9915C25.9153 7.16652 26.331 7.31967 26.4842 7.31967C26.6373 7.31967 27.053 7.16652 27.4031 6.9915C28.1141 6.6305 28.9893 6.55392 29.766 6.78365C30.4552 6.9915 31.21 7.63692 31.5381 8.30422L31.8226 8.90588L31.6804 11.2578C31.4944 14.2224 31.3741 14.9553 30.9584 15.7977C30.5755 16.5853 29.6456 17.5589 28.9018 17.9637C27.7969 18.5653 26.4404 18.7404 25.2261 18.4231C23.0601 17.8543 21.4521 15.7867 21.4521 13.5442C21.4521 12.7128 20.5769 12.2643 20.0518 12.8222C19.3189 13.5989 20.2378 16.6291 21.6599 18.1496C22.3163 18.8497 22.3272 18.8716 22.3163 19.4624C22.3163 20.064 22.3053 20.064 21.6052 20.6985C21.0036 21.2564 20.7957 21.3767 20.1175 21.5518L19.3189 21.7596L19.1548 21.508C18.4547 20.4578 17.4811 19.8452 15.9277 19.4733C15.1401 19.2764 14.9103 19.1779 14.8338 18.992C14.6697 18.62 14.0242 18.3465 13.6086 18.4669C13.2147 18.5872 13.1382 18.4887 13.1382 17.8543C13.1382 17.548 13.2476 17.3511 13.6523 16.9025C14.1774 16.3228 14.8119 15.0976 14.9322 14.4193C15.0635 13.6645 15.326 9.11373 15.2604 8.6324C15.0963 7.38531 14.6478 6.41171 13.8164 5.5475C12.6459 4.31135 11.5082 3.81908 9.85635 3.81908C7.62473 3.81908 5.86349 4.9349 4.91177 6.95868C4.37574 8.08543 4.33198 8.67615 4.52889 11.6407C4.71486 14.5068 4.86801 15.2288 5.45874 16.1477C5.6447 16.4431 5.97289 16.8478 6.18073 17.0448C6.4761 17.3401 6.57455 17.5151 6.57455 17.7996C6.57455 18.3794 6.41046 18.5981 6.07134 18.4778C5.66658 18.3247 5.29465 18.4559 4.94459 18.8826C4.6711 19.2107 4.49607 19.2983 3.55529 19.528C2.9755 19.6702 2.28632 19.9109 2.04566 20.0531C1.41118 20.425 0.732936 21.1689 0.371938 21.869L0.0656361 22.4707L0.032818 26.8464L0 31.2331L0.262544 31.4738L0.514149 31.7144L7.02306 31.7363L13.521 31.7691L13.5429 34.4493C13.5648 36.1558 13.6195 37.2169 13.6961 37.3591C13.893 37.7311 14.2759 37.8405 15.4135 37.8405C16.4637 37.8405 16.4856 37.8405 16.6497 38.1358C16.8138 38.4202 16.8138 38.4749 16.5841 39L16.3325 39.547L15.3042 39.7986C14.1665 40.083 13.7398 40.269 13.6414 40.5206C13.6086 40.6191 13.5757 41.8005 13.5757 43.1351C13.5757 45.9684 13.5429 45.8918 14.7791 46.2091C16.4309 46.6248 16.2996 46.5482 16.5731 47.1717L16.8138 47.7406L16.234 48.7142C15.2932 50.2566 15.2166 50.0269 17.3279 52.1382C18.8704 53.6916 19.1767 53.9541 19.4611 53.9541C19.669 53.9541 20.1722 53.7353 20.8176 53.3525L21.824 52.7399L22.3819 52.9805L22.9289 53.2212L23.2242 54.3698C23.6728 56.0654 23.5305 55.9998 26.4842 55.9998C29.4378 55.9998 29.2956 56.0654 29.7441 54.3698L30.0395 53.2212L30.5864 52.9805L31.1443 52.7399L32.1507 53.3525C32.7962 53.7353 33.2994 53.9541 33.5072 53.9541C33.7917 53.9541 34.098 53.6916 35.6404 52.1382C37.7517 50.0269 37.6751 50.2566 36.7343 48.7142L36.1546 47.7406L36.3952 47.1717C36.5921 46.7232 36.7234 46.581 36.9531 46.5263C38.1018 46.2747 38.9331 46.0012 39.1519 45.8043C39.3926 45.5746 39.3926 45.5199 39.3926 43.0695C39.3926 40.7394 39.3817 40.5644 39.1848 40.3675C38.966 40.1487 38.3971 39.9408 37.2704 39.6892C36.6578 39.5579 36.6249 39.5361 36.3843 39C36.1546 38.4749 36.1546 38.4202 36.3186 38.1358C36.4827 37.8405 36.5046 37.8405 37.5548 37.8405C38.6925 37.8405 39.0754 37.7311 39.2723 37.3591C39.3488 37.2169 39.4035 36.1558 39.4254 34.4493L39.4473 31.7691L45.9453 31.7363L52.4542 31.7144L52.7058 31.4738L52.9683 31.2331L52.9355 26.8464L52.9027 22.4707L52.5964 21.869C52.2354 21.1689 51.5572 20.425 50.9336 20.064C50.693 19.9218 50.0038 19.6811 49.4021 19.517C48.4723 19.2654 48.2644 19.167 48.0128 18.8607C47.6628 18.4559 47.3018 18.3247 46.897 18.4778C46.5579 18.5981 46.3938 18.3794 46.3938 17.7996C46.3938 17.5151 46.4922 17.3401 46.7876 17.0448C46.9954 16.8478 47.3236 16.4431 47.5096 16.1477C48.1222 15.1851 48.2425 14.5506 48.4832 10.9844C48.6035 9.17937 48.6801 7.42907 48.6582 7.08995C48.5488 5.81004 47.6956 4.63953 46.4704 4.09257C45.8249 3.7972 45.7046 3.77533 43.7136 3.73157C40.7053 3.66593 39.7645 3.8519 38.78 4.71611C38.2549 5.17556 37.9158 5.73347 37.697 6.48828C37.522 7.06807 37.5329 7.31968 37.7517 10.6343C37.872 12.5706 38.0252 14.3646 38.0908 14.6272C38.244 15.3382 38.7581 16.279 39.327 16.9135C39.7208 17.3511 39.8302 17.548 39.8302 17.8543C39.8302 18.4887 39.7536 18.5872 39.3598 18.4669C38.9441 18.3465 38.2987 18.62 38.1346 18.992C38.058 19.1779 37.8283 19.2764 37.0406 19.4733C35.4873 19.8452 34.5137 20.4578 33.8135 21.508L33.6494 21.7596L32.8509 21.5518C32.1726 21.3767 31.9648 21.2564 31.3631 20.6985C30.663 20.064 30.6521 20.064 30.6521 19.4514C30.6411 18.8388 30.6521 18.8169 31.2865 18.1606C31.9648 17.4495 32.5883 16.3884 32.8837 15.4148C33.1462 14.5396 33.6276 7.12277 33.4854 6.13822C33.2556 4.50826 32.6211 3.26118 31.4069 2.05785C29.6894 0.351309 27.3156 -0.348812 24.9527 0.165338ZM27.6 1.75155C29.4815 2.14536 31.21 3.75345 31.7132 5.59126C31.8335 6.01789 31.746 6.12729 31.5272 5.8538C31.4616 5.77723 31.1006 5.56938 30.7177 5.39435C30.1598 5.14274 29.8535 5.07711 29.0002 5.04429C28.1032 5.01147 27.8625 5.04429 27.228 5.27402L26.4951 5.53656L25.6965 5.26308C24.5917 4.89114 23.2461 4.94584 22.2506 5.39435C21.8678 5.56938 21.5068 5.77723 21.4411 5.8538C21.2223 6.12729 21.1348 6.01789 21.2552 5.59126C21.4849 4.78174 22.0319 3.87378 22.7101 3.20648C24.0338 1.91564 25.8169 1.37961 27.6 1.75155ZM45.9453 5.62407C46.4594 5.93038 46.9408 6.55392 47.0173 7.02431C47.0501 7.2431 47.0392 7.88852 46.9954 8.45737C46.9079 9.68258 46.9736 9.67163 45.7593 8.5777L44.9607 7.86664H43.112H41.2632L40.3553 8.68709C39.863 9.13561 39.4254 9.50754 39.3817 9.50754C39.3488 9.50754 39.2832 8.97152 39.2394 8.30422C39.1738 7.25404 39.1848 7.04619 39.3707 6.63049C39.6223 6.06165 40.1584 5.61314 40.771 5.47093C41.0007 5.40529 42.1821 5.37247 43.3855 5.38341C45.3545 5.40529 45.6062 5.42717 45.9453 5.62407ZM11.4754 5.77723C12.2302 6.1601 12.9194 6.87116 13.2585 7.59316C13.4335 7.95416 13.5757 8.33703 13.5757 8.44643C13.5757 8.6324 13.5429 8.62146 13.2585 8.39173C12.7006 7.92134 12.1864 7.84476 9.52817 7.88852C7.19809 7.92134 7.04494 7.93228 6.58549 8.17295L6.10416 8.43549L6.18073 8.11825C6.37764 7.31967 7.24185 6.28044 8.05136 5.86474C8.76242 5.50374 8.98121 5.45999 10.0204 5.4928C10.7862 5.52562 11.1144 5.58032 11.4754 5.77723ZM12.2302 9.67164C12.3615 9.77009 12.7006 10.2514 12.985 10.7437L13.4882 11.6407L13.4226 12.855C13.346 14.2662 13.1819 14.835 12.6131 15.5789C12.3068 15.9727 12.0005 16.2243 11.4535 16.5087C10.7643 16.8588 10.6112 16.8916 9.8126 16.8807C9.12342 16.8807 8.80618 16.826 8.4233 16.6291C7.62473 16.2462 7.05588 15.6883 6.68394 14.9444C6.38858 14.3427 6.33388 14.0802 6.25731 12.9425L6.16979 11.6407L6.64019 10.689C6.90273 10.1639 7.20903 9.69351 7.30749 9.62788C7.42782 9.56224 8.41236 9.50754 9.74696 9.50754C11.5848 9.50754 12.0333 9.54036 12.2302 9.67164ZM44.906 10.0108C45.3327 10.4046 46.1859 11.0391 46.7985 11.411C46.8095 11.4219 46.7767 12.0673 46.722 12.844C46.6345 14.0911 46.5798 14.3427 46.2844 14.9444C45.9125 15.6883 45.3436 16.2462 44.545 16.6291C44.1622 16.826 43.834 16.8807 43.1667 16.8807C42.39 16.8916 42.204 16.8478 41.5586 16.5306C40.1584 15.8414 39.6442 14.8788 39.5348 12.7565L39.4692 11.4219L40.224 10.9078C40.6397 10.6234 41.1757 10.1967 41.4164 9.95606L41.843 9.50754H43.0901H44.3372L44.906 10.0108ZM9.85635 18.5325C10.2502 18.5325 10.7753 18.5106 11.0378 18.4778C11.4973 18.4231 11.5191 18.4341 11.6504 18.806C11.727 19.0138 11.8254 19.2654 11.8583 19.353C11.913 19.4733 11.6395 19.714 10.8847 20.2062L9.83448 20.8954L8.80618 20.2172C8.23733 19.8452 7.79976 19.4842 7.82164 19.4186C7.85445 19.353 7.94197 19.0904 8.01854 18.8279L8.14982 18.3575L8.65303 18.445C8.92651 18.4887 9.46254 18.5325 9.85635 18.5325ZM43.1667 18.5325C43.5933 18.5325 44.1293 18.4887 44.37 18.445L44.8185 18.3575L44.9498 18.8279C45.0264 19.0904 45.1139 19.353 45.1467 19.4186C45.1686 19.4842 44.731 19.8452 44.1622 20.2172L43.1339 20.9063L42.1056 20.2172C41.5477 19.8452 41.0773 19.528 41.0554 19.517C41.0335 19.5061 41.0991 19.3201 41.1867 19.1232C41.2742 18.9154 41.3726 18.6638 41.4054 18.5544C41.4601 18.3903 41.5367 18.3794 41.9305 18.445C42.1931 18.4997 42.751 18.5325 43.1667 18.5325ZM25.1714 20.0859C26.0357 20.2828 27.6109 20.2172 28.3767 19.9546C28.672 19.8562 28.9236 19.7905 28.9455 19.8124C28.9565 19.8343 29.0002 20.0421 29.033 20.2828L29.1096 20.7313L27.7969 21.3767L26.4842 22.0222L25.1605 21.3767C24.0338 20.8188 23.8587 20.6876 23.9025 20.5016C23.9353 20.3813 23.9681 20.1625 23.9681 20.0203C23.9681 19.8015 24.0119 19.7796 24.2197 19.8452C24.351 19.889 24.7776 19.9984 25.1714 20.0859ZM5.6447 22.416C6.21355 24.1225 6.30107 24.2319 7.07776 24.1225L7.55909 24.0569V27.0652V30.0735H6.08228H4.60547V28.2685C4.60547 26.4854 4.60547 26.4526 4.33198 26.1901C4.18977 26.0369 3.99286 25.9166 3.89441 25.9166C3.57717 25.9166 3.10678 26.2338 3.0302 26.4854C2.99738 26.6276 2.96456 27.4918 2.96456 28.3998V30.0735H2.3082H1.65184V26.5401C1.65184 23.3677 1.67372 22.9739 1.85969 22.5801C2.15505 21.9128 2.73484 21.4752 3.6428 21.2126C4.08038 21.0814 4.49607 20.961 4.55077 20.9392C4.61641 20.9173 4.76956 20.8954 4.90083 20.8954C5.10868 20.8845 5.19619 21.0595 5.6447 22.416ZM12.6349 21.4971C12.5365 21.7924 12.4162 22.0769 12.3724 22.1206C12.3286 22.1753 12.0989 22.1206 11.8801 22.0003L11.4644 21.7924L12.1099 21.3549C12.4599 21.1033 12.7662 20.9173 12.7772 20.9282C12.799 20.9501 12.7334 21.2017 12.6349 21.4971ZM15.7089 21.1033C16.5294 21.3111 17.3936 21.7706 17.4811 22.044C17.503 22.1097 17.2842 22.2519 16.9998 22.3613C15.7964 22.8098 14.7134 23.7615 14.1665 24.8445C13.6961 25.7744 13.5757 26.4854 13.5757 28.3451V30.0735H12.8647H12.1536V27.0105C12.1536 24.0131 12.1536 23.9475 12.3615 24.0569C12.7225 24.2428 13.1929 24.1882 13.4335 23.9147C13.5539 23.7834 13.8602 23.0505 14.1227 22.2738C14.3743 21.508 14.6369 20.8845 14.7025 20.8845C14.7791 20.8845 15.2276 20.9829 15.7089 21.1033ZM38.8456 22.2738C39.1082 23.0505 39.4145 23.7834 39.5348 23.9147C39.7755 24.1882 40.2459 24.2428 40.6069 24.0569C40.8147 23.9475 40.8147 24.0131 40.8147 27.0105V30.0735H40.1037H39.3926V28.3451C39.3926 26.4635 39.2723 25.7744 38.78 24.8008C38.3315 23.9037 37.3032 22.9629 36.3077 22.5254C35.8373 22.3175 35.4544 22.1097 35.4544 22.0659C35.4544 21.7487 37.3798 20.9282 38.2112 20.8954C38.3424 20.8845 38.4956 21.2236 38.8456 22.2738ZM41.0882 22.0003C40.8694 22.1206 40.6397 22.1753 40.5959 22.1206C40.5303 22.044 40.1584 21.0267 40.1584 20.9173C40.1584 20.8954 40.4647 21.0814 40.8366 21.333L41.5039 21.7924L41.0882 22.0003ZM49.3912 21.2126C50.2335 21.4752 50.8242 21.9456 51.1086 22.5801C51.2946 22.9739 51.3165 23.3677 51.3165 26.5401V30.0735H50.6601H50.0038V28.3779C50.0038 26.5729 49.9272 26.2338 49.4896 26.0369C49.0958 25.8619 48.9317 25.8838 48.6364 26.1901C48.3629 26.4526 48.3629 26.4854 48.3629 28.2685V30.0735H46.8861H45.4092V29.7563C45.4092 29.3843 44.9826 28.9796 44.5997 28.9796C44.2716 28.9796 43.9106 29.3296 43.823 29.7453C43.7574 30.0626 43.7355 30.0735 43.101 30.0735H42.4556V27.8857V25.6978H43.0901H43.7355L43.8668 26.1354C44.0637 26.8027 44.6982 27.0105 45.1686 26.5729C45.3874 26.3651 45.4092 26.2338 45.4092 25.2055V24.0569L45.8906 24.1225C46.6673 24.2319 46.7548 24.1225 47.3236 22.405L47.8378 20.8626L48.2535 20.9282C48.4723 20.961 48.9864 21.0923 49.3912 21.2126ZM7.55909 21.3439C7.85445 21.5408 8.10606 21.7377 8.10606 21.7706C8.10606 21.8362 7.32936 22.23 7.28561 22.1753C7.25279 22.1316 6.90273 21.0814 6.90273 21.0267C6.90273 20.9501 7.04494 21.0157 7.55909 21.3439ZM46.0656 21.0267C46.0656 21.0814 45.7155 22.1316 45.6827 22.1753C45.639 22.23 44.8623 21.8362 44.8623 21.7706C44.8732 21.6283 46.0656 20.8954 46.0656 21.0267ZM24.0009 22.591C24.6682 22.9301 25.2371 23.2255 25.259 23.2364C25.3027 23.2692 24.5041 24.4945 24.4494 24.4945C24.4276 24.4945 24.0338 23.9912 23.5743 23.3677C23.1039 22.7551 22.6882 22.1863 22.6226 22.1097C22.4257 21.8581 22.7538 21.9675 24.0009 22.591ZM30.3458 22.1097C30.2801 22.1863 29.8644 22.7551 29.394 23.3677C28.9346 23.9912 28.5408 24.4945 28.5189 24.4945C28.4642 24.4945 27.6656 23.2692 27.7094 23.2364C27.7313 23.2255 28.2892 22.9301 28.9455 22.6019C30.1598 21.9893 30.5427 21.8471 30.3458 22.1097ZM10.2392 22.9848C10.469 23.0833 10.5127 23.1817 10.5127 23.5865V24.0569H9.85635H9.19999V23.5865C9.19999 23.1927 9.24375 23.0833 9.4516 22.9848C9.76884 22.8317 9.90011 22.8317 10.2392 22.9848ZM43.4949 22.9848C43.7246 23.0833 43.7683 23.1817 43.7683 23.5865V24.0569H43.112H42.4556V23.5865C42.4556 23.1927 42.4994 23.0833 42.7072 22.9848C43.0245 22.8317 43.1557 22.8317 43.4949 22.9848ZM22.6445 24.8773L24.0884 26.8027L23.815 28.7061C23.6618 29.7453 23.4102 31.1237 23.2461 31.7691L22.9508 32.9396L22.4694 33.1475C22.1959 33.2569 21.9225 33.3553 21.8568 33.3553C21.7912 33.3553 21.277 33.0818 20.7082 32.7427C19.8877 32.2614 19.6252 32.1411 19.3955 32.2067C19.2314 32.2395 19.0017 32.2614 18.8813 32.2505C17.9405 32.1739 17.6233 32.4036 17.6233 33.1694C17.6233 33.5851 17.5577 33.6835 16.6497 34.6134C16.1137 35.1603 15.6323 35.7401 15.5995 35.9042C15.5558 36.0683 15.4573 36.1996 15.3698 36.1996C15.2385 36.1996 15.2166 35.4338 15.2166 31.4628C15.2166 26.1572 15.2276 26.0478 15.9605 25.0961C16.5841 24.2647 17.142 23.9912 19.2314 23.4552C20.2378 23.1927 21.102 22.9739 21.1348 22.9739C21.1786 22.9629 21.8568 23.8272 22.6445 24.8773ZM33.6823 23.4443C35.8264 23.9912 36.3733 24.2647 36.9969 25.0852C37.7408 26.0697 37.7517 26.1463 37.7517 31.4519C37.7517 35.4338 37.7298 36.1996 37.5985 36.1996C37.511 36.1996 37.4126 36.0683 37.3688 35.9042C37.336 35.7401 36.8547 35.1603 36.3186 34.6134C35.4107 33.6835 35.345 33.5851 35.345 33.1694C35.345 32.4036 35.0278 32.1739 34.087 32.2505C33.9667 32.2614 33.737 32.2395 33.5729 32.2067C33.3431 32.1411 33.0806 32.2614 32.2601 32.7427C31.6913 33.0818 31.1771 33.3553 31.1115 33.3553C31.0459 33.3553 30.7724 33.2569 30.5098 33.1365L30.0176 32.9178L29.7222 31.7582C29.5581 31.1237 29.3065 29.7453 29.1534 28.7061L28.8799 26.8027L30.3239 24.8773C31.1115 23.8272 31.7679 22.9629 31.7788 22.9629C31.7788 22.9629 32.643 23.1817 33.6823 23.4443ZM26.8452 24.9758C27.0093 25.2383 27.1405 25.479 27.1405 25.5228C27.1405 25.5556 26.8452 25.5884 26.4842 25.5884C26.1232 25.5884 25.8278 25.5556 25.8278 25.5228C25.8278 25.4134 26.4185 24.4945 26.4842 24.4945C26.517 24.4945 26.6701 24.7132 26.8452 24.9758ZM10.5127 27.8857V30.0735H9.85635H9.19999V27.8857V25.6978H9.85635H10.5127V27.8857ZM27.4906 28.542C27.589 29.2312 27.6766 29.8876 27.6766 29.986C27.6875 30.161 27.5562 30.1829 26.4842 30.1829C25.8278 30.1829 25.2808 30.1501 25.2808 30.0954C25.2808 29.9422 25.6309 27.5028 25.6747 27.3606C25.7075 27.2621 25.9372 27.2293 26.506 27.2512L27.3046 27.284L27.4906 28.542ZM28.3001 32.8412C28.6064 34.0773 28.7486 34.2742 29.4597 34.504C29.7769 34.6134 30.2254 34.7884 30.4442 34.8978C31.0896 35.226 31.4725 35.1603 32.4461 34.5587L33.3213 34.0117L34.4371 35.1275C35.0497 35.7401 35.531 36.2652 35.5201 36.298C35.4982 36.3308 35.2685 36.7028 35.0169 37.1185C34.3058 38.2999 34.3058 38.2343 34.809 39.5032C35.0606 40.1268 35.345 40.7066 35.4654 40.816C35.5748 40.9144 36.1436 41.1004 36.7125 41.2426L37.7626 41.4942L37.7298 43.0804L37.697 44.6666L36.6578 44.9182C36.0889 45.0604 35.5419 45.2683 35.4326 45.3667C35.2685 45.5418 34.8965 46.3513 34.5136 47.3905C34.3386 47.8718 34.3933 48.0578 35.1153 49.2174L35.5529 49.9284L34.448 51.0333L33.3541 52.1382L32.3586 51.5584C31.8116 51.2302 31.2975 50.9677 31.2209 50.9677C30.9802 50.9677 28.9565 51.8538 28.7596 52.0507C28.6611 52.1491 28.4533 52.6961 28.311 53.2649L28.0594 54.3042H26.4842H24.9089L24.6464 53.2649C24.5041 52.6961 24.3182 52.1382 24.2197 52.0397C24.1213 51.9303 23.7931 51.7553 23.4868 51.635C23.1805 51.5146 22.7101 51.3177 22.4366 51.1974C22.1631 51.0771 21.8678 50.9677 21.7693 50.9677C21.6818 50.9677 21.1567 51.2302 20.6097 51.5584L19.6143 52.1382L18.5203 51.0333L17.4154 49.9284L17.853 49.2174C18.575 48.0578 18.6297 47.8718 18.4547 47.3905C18.0718 46.3513 17.6999 45.5418 17.5248 45.3558C17.4264 45.2573 16.8794 45.0495 16.3106 44.9073L15.2713 44.6447L15.2385 43.0695L15.2057 41.4942L16.2559 41.2426C16.8247 41.1004 17.3936 40.9144 17.503 40.816C17.6233 40.7066 17.9077 40.1268 18.1593 39.5032C18.6625 38.2343 18.6625 38.2999 17.9515 37.1185C17.6999 36.7028 17.4701 36.3308 17.4483 36.298C17.4373 36.2652 17.9187 35.7401 18.5313 35.1275L19.6471 34.0117L20.555 34.5587C21.5615 35.1603 21.8896 35.215 22.5241 34.8978C22.7429 34.7884 23.1914 34.6134 23.5087 34.504C24.2088 34.2852 24.3619 34.0664 24.6354 32.9506C24.7558 32.4802 24.8761 32.0317 24.898 31.9551C24.9417 31.8457 25.3137 31.8238 26.506 31.8457L28.0594 31.8785L28.3001 32.8412Z" fill="url(#paint0_linear_7525_236)"/>
<path d="M10.0095 11.2688C9.62664 11.4001 9.41879 11.8048 9.41879 12.3737C9.41879 12.8222 9.38597 12.8988 9.21094 12.8988C8.71867 12.8988 8.48894 13.763 8.84994 14.2115C9.27658 14.7366 10.4908 14.4084 10.8628 13.6645C11.0816 13.2379 11.1363 11.9252 10.9503 11.586C10.8081 11.3344 10.3049 11.1594 10.0095 11.2688Z" fill="url(#paint1_linear_7525_236)"/>
<path d="M43.2104 11.3015C42.8713 11.4656 42.6744 11.8703 42.6744 12.4064C42.6744 12.8002 42.6306 12.8658 42.3462 12.9752C41.9962 13.1065 41.843 13.4894 41.9524 13.9379C42.1493 14.7146 43.5824 14.5833 44.0965 13.741C44.3919 13.2596 44.4138 11.7062 44.1293 11.4546C43.8449 11.214 43.4949 11.1593 43.2104 11.3015Z" fill="url(#paint2_linear_7525_236)"/>
<path d="M25.0074 36.3745C23.9025 36.6152 22.7757 37.2059 21.9006 38.0154C20.9379 38.9015 20.4019 39.722 19.9862 40.9034C19.7018 41.7129 19.658 41.9864 19.658 43.0366C19.658 43.8899 19.7127 44.4368 19.8549 44.8963C20.3144 46.4278 21.4302 48.014 22.0428 48.014C22.4038 48.014 22.8742 47.5655 22.8742 47.2264C22.8742 47.0842 22.6335 46.6356 22.3382 46.2309C21.0583 44.4697 20.916 42.2708 21.9772 40.4768C23.7275 37.5013 27.7203 36.9762 30.1379 39.3938C31.9429 41.2097 32.2164 43.868 30.7943 45.9902C29.7332 47.5983 27.9282 48.4188 25.8169 48.2656C24.887 48.2 24.8761 48.2109 24.6464 48.5063C24.3401 48.8891 24.3401 49.1298 24.6573 49.4908C25.0839 49.9831 26.6154 50.0925 28.1251 49.7424C28.3986 49.6768 29.033 49.4361 29.5363 49.1954C31.1881 48.4078 32.5555 46.7669 33.1134 44.8963C33.2556 44.4368 33.3103 43.8899 33.3103 43.0366C33.3103 41.9864 33.2666 41.7129 32.9821 40.9034C31.8116 37.556 28.4533 35.6525 25.0074 36.3745Z" fill="url(#paint3_linear_7525_236)"/>
<path d="M27.414 42.1067L25.9919 43.5288L25.1714 42.7084C24.7229 42.2599 24.2307 41.8551 24.0775 41.8004C23.4758 41.5816 22.8851 42.1067 23.0273 42.7303C23.082 42.9162 23.5852 43.507 24.34 44.2618C26.0466 45.9574 25.8169 45.9902 28.1469 43.6601C30.127 41.6801 30.2035 41.5488 29.755 40.969C29.6019 40.7721 29.4268 40.6846 29.1862 40.6846C28.8799 40.6846 28.6392 40.8815 27.414 42.1067Z" fill="url(#paint4_linear_7525_236)" fill-opacity="0.5"/>
<path d="M26.6154 11.1483C26.2982 11.2796 26.156 11.6734 26.156 12.472C26.156 13.0299 26.1232 13.1174 25.9481 13.1174C25.5762 13.1174 25.1714 13.5331 25.1714 13.9269C25.1714 15.0427 26.9327 15.0099 27.5672 13.8831C27.7531 13.5549 27.7969 13.2815 27.7969 12.5267C27.7969 11.6624 27.775 11.553 27.5234 11.3124C27.2499 11.028 27.0311 10.9842 26.6154 11.1483Z" fill="url(#paint5_linear_7525_236)"/>
<defs>
<linearGradient id="paint0_linear_7525_236" x1="-6.5" y1="-4.99988" x2="50.5" y2="49.5001" gradientUnits="userSpaceOnUse">
<stop stop-color="#F3491D"/>
<stop offset="1" stop-color="#FA752F"/>
</linearGradient>
<linearGradient id="paint1_linear_7525_236" x1="8.38048" y1="10.9469" x2="11.5391" y2="13.3068" gradientUnits="userSpaceOnUse">
<stop stop-color="#F3491D"/>
<stop offset="1" stop-color="#FA752F"/>
</linearGradient>
<linearGradient id="paint2_linear_7525_236" x1="41.6215" y1="10.9356" x2="44.7861" y2="13.3266" gradientUnits="userSpaceOnUse">
<stop stop-color="#F3491D"/>
<stop offset="1" stop-color="#FA752F"/>
</linearGradient>
<linearGradient id="paint3_linear_7525_236" x1="17.9827" y1="34.997" x2="31.9661" y2="49.058" gradientUnits="userSpaceOnUse">
<stop stop-color="#F3491D"/>
<stop offset="1" stop-color="#FA752F"/>
</linearGradient>
<linearGradient id="paint4_linear_7525_236" x1="22.1501" y1="40.2566" x2="26.6921" y2="46.9363" gradientUnits="userSpaceOnUse">
<stop stop-color="#F3491D"/>
<stop offset="1" stop-color="#FA752F"/>
</linearGradient>
<linearGradient id="paint5_linear_7525_236" x1="24.8493" y1="10.7233" x2="28.4157" y2="13.2862" gradientUnits="userSpaceOnUse">
<stop stop-color="#F3491D"/>
<stop offset="1" stop-color="#FA752F"/>
</linearGradient>
</defs>
</svg>
