<svg width="37" height="21" viewBox="0 0 37 21" fill="none" xmlns="http://www.w3.org/2000/svg">
<path d="M20.9322 0.745764C20.4737 0.970976 20.4335 1.11576 20.0957 3.64938C19.9268 4.95239 19.782 6.13475 19.782 6.27148C19.782 6.553 19.9831 6.91495 20.2405 7.0919C20.337 7.15624 21.4067 7.3332 22.9349 7.53428C25.3238 7.84796 25.4927 7.85601 25.726 7.7434C26.2649 7.46189 26.3533 6.76212 25.8868 6.37605C25.6053 6.13475 25.6375 6.14279 24.1656 5.92562C22.4845 5.67628 22.581 5.72454 23.0476 5.39477C23.6347 4.96848 24.9619 4.3411 25.6938 4.14002C26.2407 3.99524 26.5383 3.96307 27.6644 3.96307C28.8789 3.96307 29.0559 3.9872 29.7154 4.18828C32.5708 5.04891 34.5655 7.21255 35.1607 10.1081C35.3859 11.1779 35.3296 12.6578 35.024 13.6874C34.1151 16.7679 31.6136 18.8994 28.4365 19.2774C26.7475 19.4785 24.5758 18.8753 22.9028 17.7412C21.7124 16.9288 20.5541 15.5051 19.8624 14.0252C19.5005 13.2289 19.3316 12.7061 18.9455 11.1296C18.4468 9.11076 17.9079 7.80775 16.999 6.44039C15.2697 3.81829 12.2937 2.18551 9.28553 2.2016C4.74913 2.22573 0.89641 5.51542 0.108171 10.0357C-0.0848675 11.1296 -0.0124781 12.8509 0.269036 13.9126C1.16184 17.339 3.69547 19.8405 7.22646 20.7896C7.90209 20.9665 8.16752 20.9907 9.36597 20.9987C10.6127 21.0067 10.8057 20.9826 11.602 20.7815C13.5082 20.2828 14.9641 19.4383 16.2751 18.0709C16.806 17.516 16.8864 17.3873 16.8864 17.1379C16.8864 16.591 16.5566 16.229 16.058 16.221C15.7764 16.221 15.6719 16.2934 14.8434 17.0816C14.2482 17.6607 13.7335 18.0709 13.3152 18.3042C9.3901 20.5322 4.45958 18.9879 2.52919 14.918C0.719459 11.1055 2.29594 6.56909 6.06823 4.71109C7.28276 4.11589 7.92622 3.97111 9.32575 3.96307C10.669 3.95502 11.2963 4.09176 12.4304 4.6387C14.0552 5.4189 15.318 6.70582 16.2269 8.48338C16.7497 9.50488 16.9829 10.1644 17.4092 11.8776C17.932 13.9367 18.3825 15.0145 19.2833 16.3819C19.8383 17.2103 21.0528 18.449 21.8732 19.012C23.9564 20.4276 26.6509 21.1676 28.7261 20.8941C32.8523 20.3391 36.0937 17.2988 36.8739 13.2289C37.0509 12.2878 37.0428 10.5988 36.8418 9.66574C36.1018 6.14279 33.4555 3.32765 30.0693 2.46702C27.407 1.78334 24.2219 2.36246 22.2271 3.88264C22.0261 4.03546 21.8411 4.14806 21.825 4.13198C21.8008 4.11589 21.8652 3.49656 21.9537 2.76462C22.1065 1.58226 22.1145 1.41335 22.01 1.20423C21.7526 0.705547 21.3504 0.53664 20.9322 0.745764Z" fill="url(#paint0_linear_7703_86)"/>
<defs>
<linearGradient id="paint0_linear_7703_86" x1="-4.54045" y1="-1.15827" x2="12.8579" y2="30.8314" gradientUnits="userSpaceOnUse">
<stop stop-color="#F3491D"/>
<stop offset="1" stop-color="#FA752F"/>
</linearGradient>
</defs>
</svg>
