<svg width="22" height="24" viewBox="0 0 22 24" fill="none" xmlns="http://www.w3.org/2000/svg">
<path d="M20.7349 0.674788C20.6396 0.743639 20.5072 0.865454 20.4489 0.944897C20.3377 1.09319 20.3377 1.15145 20.3218 3.66718L20.3059 6.23588L19.8769 5.84396C17.1123 3.34411 15.0679 2.19482 12.6581 1.7976C11.869 1.66519 10.0841 1.66519 9.32145 1.7976C8.11919 2.00415 7.18705 2.30075 6.14368 2.80919C3.91925 3.89492 2.19796 5.61621 1.11222 7.84065C0.603776 8.88402 0.307184 9.81087 0.095333 11.0184C-0.0317777 11.7599 -0.0317777 13.6136 0.095333 14.3551C0.307184 15.5626 0.603776 16.4895 1.11222 17.5328C2.89177 21.1767 6.47735 23.5123 10.5661 23.6871C15.2162 23.8831 19.5062 21.0813 21.2381 16.7172C21.397 16.32 21.4287 16.1717 21.4076 15.981C21.344 15.4143 20.7667 15.0807 20.2424 15.3031C19.9935 15.409 19.861 15.5785 19.7075 15.981C19.4003 16.802 18.8283 17.8082 18.2457 18.5391C17.965 18.8887 17.1388 19.7043 16.7627 20.0062C15.6452 20.896 14.1146 21.5845 12.6475 21.8599C12.1391 21.9552 11.8319 21.9764 10.9898 21.9764C9.90404 21.9764 9.27378 21.897 8.36812 21.6269C6.30257 21.0231 4.42769 19.6355 3.21484 17.8241C2.57929 16.8655 2.03907 15.5308 1.81662 14.3445C1.64714 13.4494 1.64714 11.9241 1.81662 11.0343C2.10262 9.51428 2.77525 8.04191 3.73388 6.83436C4.09402 6.37888 4.96261 5.55266 5.42869 5.2084C7.59486 3.63541 10.2854 3.03163 12.8223 3.55596C14.1993 3.83667 15.7035 4.59933 17.1335 5.73803C17.6896 6.17762 18.6906 7.05151 18.8495 7.22628L18.9501 7.33751H16.5403H14.1305L13.9557 7.45402C13.7015 7.6288 13.5744 7.82476 13.5479 8.08958C13.5108 8.39676 13.6697 8.71454 13.9398 8.87872L14.1411 9.00583H17.769H21.397L21.5982 8.87872C21.7094 8.81517 21.8471 8.66158 21.9054 8.55035C22.006 8.3491 22.006 8.24847 21.9954 4.72114C21.9796 1.13556 21.9796 1.09319 21.8683 0.944897C21.683 0.690676 21.434 0.55827 21.1586 0.55827C20.9892 0.55827 20.8567 0.595343 20.7349 0.674788Z" fill="white"/>
</svg>
