<svg width="24" height="24" viewBox="0 0 24 24" fill="none" xmlns="http://www.w3.org/2000/svg">
<path d="M22.1518 0H1.83735C0.877783 0 0 0.774369 0 1.63054V21.9496C0 23.1166 0.79055 23.9945 1.83735 23.9945H14.8351C15.1186 23.9945 15.3476 23.7655 15.3476 23.4819C15.3476 23.1984 15.1186 22.9693 14.8351 22.9693H1.83735C1.36302 22.9693 1.03044 22.5494 1.03044 21.955V6.32038C1.03044 6.18405 1.14493 6.06953 1.28124 6.06953H22.7133C22.8496 6.06953 22.9641 6.18405 22.9641 6.32038V14.8439C22.9641 15.1275 23.1931 15.3565 23.4766 15.3565C23.7601 15.3565 23.9891 15.1275 23.9891 14.8439V1.63599C23.9891 0.785276 23.1113 0.00545331 22.1518 0.00545331V0ZM22.9587 4.78255C22.9587 4.91888 22.8442 5.0334 22.7079 5.0334H1.27578C1.13948 5.0334 1.02499 4.91888 1.02499 4.78255V1.63599C1.02499 1.63599 1.02499 1.61418 1.02499 1.60327C1.0577 1.37423 1.39573 1.03067 1.83189 1.03067H22.1463C22.5825 1.03067 22.9205 1.36878 22.9532 1.59782C22.9532 1.60873 22.9532 1.61963 22.9532 1.63599L22.9587 4.78255Z" fill="white"/>
<path d="M3.5711 2.34497C3.19491 2.34497 2.8896 2.65036 2.8896 3.02663C2.8896 3.40291 3.19491 3.7083 3.5711 3.7083C3.9473 3.7083 4.25261 3.40291 4.25261 3.02663C4.25261 2.65036 3.9473 2.34497 3.5711 2.34497Z" fill="white"/>
<path d="M6.17719 2.34497C5.801 2.34497 5.49568 2.65036 5.49568 3.02663C5.49568 3.40291 5.801 3.7083 6.17719 3.7083C6.55338 3.7083 6.8587 3.40291 6.8587 3.02663C6.8587 2.65036 6.55338 2.34497 6.17719 2.34497Z" fill="white"/>
<path d="M8.77783 2.34497C8.40164 2.34497 8.09632 2.65036 8.09632 3.02663C8.09632 3.40291 8.40164 3.7083 8.77783 3.7083C9.15402 3.7083 9.45934 3.40291 9.45934 3.02663C9.45934 2.65036 9.15402 2.34497 8.77783 2.34497Z" fill="white"/>
<path d="M21.1377 18.3449C21.0395 18.2467 21.0395 18.0886 21.1377 17.9904L22.1518 16.9761C22.2826 16.8452 22.3317 16.6489 22.2826 16.469C22.2335 16.289 22.0863 16.1527 21.9064 16.109L15.1731 14.5549C15.1349 14.5439 15.0968 14.5439 15.0586 14.5439C14.9169 14.5439 14.7915 14.5985 14.6933 14.6966C14.5679 14.8221 14.5134 15.002 14.557 15.1765L16.1109 21.9114C16.1545 22.0913 16.2908 22.2386 16.4707 22.2931C16.5143 22.304 16.5634 22.3149 16.6124 22.3149C16.7488 22.3149 16.8796 22.2604 16.9723 22.1622L17.9864 21.1479C18.0354 21.0988 18.1009 21.077 18.1663 21.077C18.2317 21.077 18.2971 21.0988 18.3462 21.1479L21.045 23.8473C21.1431 23.9454 21.274 24 21.4103 24C21.5466 24 21.6774 23.9454 21.7756 23.8473L23.8473 21.775C24.0491 21.5733 24.0491 21.2461 23.8473 21.0497L21.1486 18.3504L21.1377 18.3449ZM22.5661 21.5842L21.5738 22.5767C21.5248 22.6257 21.4593 22.653 21.3939 22.653C21.3285 22.653 21.2631 22.6257 21.214 22.5767L18.5152 19.8773C18.4171 19.7791 18.2862 19.7246 18.1499 19.7246C18.0136 19.7246 17.8828 19.7791 17.7846 19.8773L17.2067 20.4553C17.1577 20.5044 17.0922 20.5317 17.0268 20.5317C17.005 20.5317 16.9832 20.5317 16.9559 20.5208C16.8687 20.4935 16.8033 20.4226 16.7815 20.3354L15.811 16.1363C15.7892 16.0545 15.8164 15.9618 15.8764 15.9018C15.9255 15.8527 15.9855 15.8255 16.0563 15.8255C16.0727 15.8255 16.0945 15.8255 16.1109 15.8309L20.309 16.8016C20.3962 16.8234 20.4671 16.8889 20.4943 16.9761C20.5216 17.0634 20.4943 17.1561 20.4289 17.2215L19.851 17.7996C19.6493 18.0013 19.6493 18.3285 19.851 18.5249L22.5498 21.2242C22.5988 21.2733 22.6261 21.3333 22.6261 21.4042C22.6261 21.4751 22.5988 21.5351 22.5498 21.5842H22.5661Z" fill="white" fill-opacity="0.5"/>
<path d="M7.9164 9.69596C7.9164 9.41239 7.68742 9.18335 7.40391 9.18335H3.57656C3.29305 9.18335 3.06406 9.41239 3.06406 9.69596V13.5242C3.06406 13.8078 3.29305 14.0368 3.57656 14.0368H7.40391C7.68742 14.0368 7.9164 13.8078 7.9164 13.5242V9.69596ZM6.88596 12.7607C6.88596 12.8971 6.77147 13.0116 6.63517 13.0116H4.33985C4.20355 13.0116 4.08905 12.8971 4.08905 12.7607V10.4649C4.08905 10.3285 4.20355 10.214 4.33985 10.214H6.63517C6.77147 10.214 6.88596 10.3285 6.88596 10.4649V12.7607Z" fill="white"/>
<path d="M7.39845 16.0764H3.5711C3.2876 16.0764 3.05861 16.3055 3.05861 16.589V20.4172C3.05861 20.7008 3.2876 20.9299 3.5711 20.9299H7.39845C7.68196 20.9299 7.91095 20.7008 7.91095 20.4172V16.589C7.91095 16.3055 7.68196 16.0764 7.39845 16.0764ZM6.88596 19.6538C6.88596 19.7901 6.77147 19.9046 6.63517 19.9046H4.33984C4.20354 19.9046 4.08905 19.7901 4.08905 19.6538V17.3579C4.08905 17.2216 4.20354 17.1071 4.33984 17.1071H6.63517C6.77147 17.1071 6.88596 17.2216 6.88596 17.3579V19.6538Z" fill="white"/>
<path d="M14.8024 13.5242V9.69596C14.8024 9.41239 14.5734 9.18335 14.2899 9.18335H10.4625C10.179 9.18335 9.95002 9.41239 9.95002 9.69596V13.5242C9.95002 13.8078 10.179 14.0368 10.4625 14.0368H14.2899C14.5734 14.0368 14.8024 13.8078 14.8024 13.5242ZM13.7719 12.7607C13.7719 12.8971 13.6574 13.0116 13.5211 13.0116H11.2258C11.0895 13.0116 10.975 12.8971 10.975 12.7607V10.4649C10.975 10.3285 11.0895 10.214 11.2258 10.214H13.5211C13.6574 10.214 13.7719 10.3285 13.7719 10.4649V12.7607Z" fill="white"/>
<path d="M11.2258 17.1016H13.303C13.5865 17.1016 13.8155 16.8726 13.8155 16.589C13.8155 16.3055 13.5865 16.0764 13.303 16.0764H10.4625C10.179 16.0764 9.95002 16.3055 9.95002 16.589V20.4172C9.95002 20.7008 10.179 20.9299 10.4625 20.9299H14.0718C14.3553 20.9299 14.5843 20.7008 14.5843 20.4172C14.5843 20.1337 14.3553 19.9046 14.0718 19.9046H11.2313C11.095 19.9046 10.9805 19.7901 10.9805 19.6538V17.3579C10.9805 17.2216 11.095 17.1071 11.2313 17.1071L11.2258 17.1016Z" fill="white"/>
<path d="M17.3485 10.2142H20.4125C20.696 10.2142 20.925 9.98515 20.925 9.70158C20.925 9.418 20.696 9.18896 20.4125 9.18896H17.3485C17.065 9.18896 16.836 9.418 16.836 9.70158C16.836 9.98515 17.065 10.2142 17.3485 10.2142Z" fill="white"/>
<path d="M17.3485 13.2733H20.4125C20.696 13.2733 20.925 13.0442 20.925 12.7607C20.925 12.4771 20.696 12.248 20.4125 12.248H17.3485C17.065 12.248 16.836 12.4771 16.836 12.7607C16.836 13.0442 17.065 13.2733 17.3485 13.2733Z" fill="white"/>
</svg>
