<svg width="31" height="31" viewBox="0 0 31 31" fill="none" xmlns="http://www.w3.org/2000/svg">
<path d="M27.5305 21.6512C27.4038 21.5245 27.4038 21.3203 27.5305 21.1935L28.805 19.9121C28.9739 19.7431 29.0373 19.4896 28.9739 19.2573C28.9035 19.0249 28.7205 18.8489 28.4811 18.7925L19.5882 16.814C19.5389 16.807 19.4896 16.7999 19.4474 16.7999C19.2714 16.7999 19.1024 16.8703 18.9756 16.9971C18.8137 17.159 18.7503 17.3843 18.7996 17.6096L20.7782 26.5025C20.8274 26.7419 21.0105 26.925 21.2429 26.9954C21.2992 27.0095 21.3626 27.0235 21.4259 27.0235C21.602 27.0235 21.7709 26.9531 21.8977 26.8264L23.1792 25.5449C23.2425 25.4815 23.32 25.4534 23.4115 25.4534C23.503 25.4534 23.5805 25.4886 23.6439 25.5449L26.8968 28.7979C27.0236 28.9246 27.1926 28.995 27.3686 28.995C27.5446 28.995 27.7136 28.9246 27.8403 28.7979L30.8046 25.8336C31.0651 25.5731 31.0651 25.1506 30.8046 24.8971L27.5516 21.6442L27.5305 21.6512ZM29.15 25.6083L27.5798 27.1784C27.5164 27.2418 27.4319 27.277 27.3475 27.277C27.263 27.277 27.1785 27.2418 27.1151 27.1784L23.8621 23.9255C23.7354 23.7987 23.5735 23.7283 23.3904 23.7283C23.2073 23.7283 23.0454 23.7987 22.9186 23.9255L22.2145 24.6296C22.1512 24.6929 22.0667 24.7282 21.9822 24.7282C21.954 24.7282 21.9188 24.7282 21.8906 24.7141C21.778 24.6789 21.6935 24.5873 21.6653 24.4747L20.4191 18.8559C20.3979 18.7503 20.4261 18.6376 20.5036 18.5531C20.5669 18.4898 20.6444 18.4546 20.7359 18.4546C20.757 18.4546 20.7852 18.4546 20.8063 18.4616L26.4251 19.7079C26.5377 19.736 26.6363 19.8205 26.6645 19.9332C26.6997 20.0459 26.6645 20.1726 26.58 20.25L25.8759 20.9541C25.6154 21.2147 25.6154 21.6371 25.8759 21.8906L29.1288 25.1436C29.2556 25.2703 29.2556 25.4745 29.1288 25.6012L29.15 25.6083Z" fill="url(#paint0_linear_7701_284)" fill-opacity="0.5"/>
<path d="M28.6078 0H2.37284C1.0632 0 0 1.0632 0 2.37284V22.6792C0 23.9889 1.0632 25.0521 2.37284 25.0521H10.5475C10.7235 25.0521 10.8714 25.1999 10.8714 25.376C10.8714 28.1924 9.89972 29.2556 9.47726 29.5865C9.42093 29.6288 9.35052 29.6569 9.28011 29.6569H6.59043C6.22429 29.6569 5.92857 29.9526 5.92857 30.3188C5.92857 30.6849 6.22429 30.9806 6.59043 30.9806H24.3832C24.7493 30.9806 25.045 30.6849 25.045 30.3188C25.045 29.9526 24.7493 29.6569 24.3832 29.6569H11.7304C11.6177 29.6569 11.5121 29.6006 11.4558 29.502C11.3995 29.4034 11.3924 29.2837 11.4417 29.1852C11.9416 28.1853 12.2021 26.9039 12.2021 25.376C12.2021 25.1999 12.35 25.0521 12.526 25.0521H17.4689C17.835 25.0521 18.1307 24.7563 18.1307 24.3902C18.1307 24.0241 17.835 23.7284 17.4689 23.7284H2.37284C1.79547 23.7284 1.33076 23.2566 1.33076 22.6863V2.37988C1.33076 1.80251 1.80251 1.3378 2.37284 1.3378H28.6078C29.1852 1.3378 29.6499 1.80955 29.6499 2.37988V17.4759C29.6499 17.842 29.9456 18.1378 30.3117 18.1378C30.6779 18.1378 30.9736 17.842 30.9736 17.4759V2.37988C30.9736 1.07024 29.9104 0.00704105 28.6008 0.00704105L28.6078 0Z" fill="url(#paint1_linear_7701_284)"/>
<path d="M7.09034 9.01955C7.09034 9.01955 7.13259 9.04771 7.15371 9.06884C7.17483 9.08292 7.18891 9.10404 7.203 9.11812C7.21004 9.11812 7.21708 9.11812 7.22412 9.12516C7.24524 9.13221 7.26637 9.14629 7.28749 9.15333C7.30861 9.16037 7.32269 9.17445 7.33678 9.18149L7.35086 9.18853C7.42831 9.2167 7.50576 9.23078 7.56913 9.23782H7.58321C7.66771 9.23782 7.7522 9.2167 7.83669 9.17445C7.84373 9.17445 7.85077 9.16741 7.85781 9.16037C7.87894 9.14629 7.90006 9.13221 7.92118 9.11812C7.94231 9.10404 7.96343 9.08996 7.99159 9.07588C8.00568 9.06884 8.01976 9.0618 8.03384 9.05475C8.04792 9.03363 8.06201 9.01251 8.07609 8.99843C8.09721 8.97026 8.11833 8.95618 8.13242 8.9421L11.0756 5.02023C11.1812 4.87941 11.2234 4.70338 11.2023 4.52736C11.1741 4.35133 11.0826 4.19643 10.9418 4.09081C10.8291 4.00632 10.6883 3.95703 10.5475 3.95703C10.3363 3.95703 10.1391 4.05561 10.0124 4.22459L7.73107 7.26633C7.67475 7.34378 7.59025 7.38602 7.49168 7.39307C7.48464 7.39307 7.4776 7.39307 7.47056 7.39307C7.38606 7.39307 7.30157 7.35786 7.2382 7.30153L6.06939 6.13272C5.94265 6.00598 5.77366 5.93557 5.59764 5.93557C5.42161 5.93557 5.25262 6.00598 5.12589 6.13272C4.86537 6.39324 4.86537 6.8157 5.12589 7.06918L7.09034 9.01955Z" fill="url(#paint2_linear_7701_284)"/>
<path d="M5.13996 12.9979L7.09737 14.9483C7.09737 14.9483 7.13962 14.9764 7.16074 14.9975C7.18187 15.0116 7.19595 15.0328 7.21003 15.0468C7.21707 15.0468 7.22411 15.0468 7.23115 15.0539C7.25228 15.0609 7.2734 15.075 7.29452 15.082C7.31565 15.0891 7.32973 15.1032 7.34381 15.1102L7.35789 15.1172C7.43534 15.1454 7.5128 15.1595 7.57617 15.1665H7.59025C7.67474 15.1665 7.75923 15.1454 7.84373 15.1032C7.85077 15.1032 7.85781 15.0961 7.86485 15.0891C7.88597 15.075 7.9071 15.0609 7.92822 15.0468C7.94934 15.0328 7.97046 15.0187 7.99863 15.0046C8.01271 14.9975 8.02679 14.9905 8.04088 14.9835C8.05496 14.9623 8.06904 14.9412 8.08312 14.9271C8.10424 14.906 8.12537 14.8849 8.13945 14.8708L11.0826 10.9489C11.1882 10.8081 11.2305 10.6321 11.2093 10.4561C11.1812 10.28 11.0897 10.1251 10.9488 10.0195C10.8362 9.93503 10.6954 9.88574 10.5475 9.88574C10.3363 9.88574 10.1461 9.98432 10.0194 10.1533L7.73811 13.195C7.68178 13.2725 7.59729 13.3147 7.49871 13.3218C7.49167 13.3218 7.48463 13.3218 7.47759 13.3218C7.3931 13.3218 7.30861 13.2866 7.24524 13.2232L6.07642 12.0544C5.94968 11.9276 5.7807 11.8572 5.60467 11.8572C5.42864 11.8572 5.25966 11.9276 5.13292 12.0544C4.8724 12.3149 4.8724 12.7374 5.13292 12.9908L5.13996 12.9979Z" fill="url(#paint3_linear_7701_284)"/>
<path d="M17.145 13.5117C17.145 13.1456 16.8492 12.8499 16.4831 12.8499H13.5188C13.1527 12.8499 12.857 13.1456 12.857 13.5117C12.857 13.8778 13.1527 14.1736 13.5188 14.1736H16.4831C16.8492 14.1736 17.145 13.8778 17.145 13.5117Z" fill="url(#paint4_linear_7701_284)"/>
<path d="M18.7855 13.5117C18.7855 13.8778 19.0812 14.1736 19.4474 14.1736H25.3759C25.7421 14.1736 26.0378 13.8778 26.0378 13.5117C26.0378 13.1456 25.7421 12.8499 25.3759 12.8499H19.4474C19.0812 12.8499 18.7855 13.1456 18.7855 13.5117Z" fill="url(#paint5_linear_7701_284)"/>
<path d="M20.1092 7.58325C20.1092 7.21711 19.8135 6.92139 19.4474 6.92139H13.5188C13.1527 6.92139 12.857 7.21711 12.857 7.58325C12.857 7.94938 13.1527 8.2451 13.5188 8.2451H19.4474C19.8135 8.2451 20.1092 7.94938 20.1092 7.58325Z" fill="url(#paint6_linear_7701_284)"/>
<path d="M25.376 8.2451C25.7421 8.2451 26.0378 7.94938 26.0378 7.58325C26.0378 7.21711 25.7421 6.92139 25.376 6.92139H22.4117C22.0455 6.92139 21.7498 7.21711 21.7498 7.58325C21.7498 7.94938 22.0455 8.2451 22.4117 8.2451H25.376Z" fill="url(#paint7_linear_7701_284)"/>
<path d="M5.61172 19.1235H15.4974C15.8635 19.1235 16.1592 18.8278 16.1592 18.4617C16.1592 18.0955 15.8635 17.7998 15.4974 17.7998H5.61172C5.24558 17.7998 4.94986 18.0955 4.94986 18.4617C4.94986 18.8278 5.24558 19.1235 5.61172 19.1235Z" fill="url(#paint8_linear_7701_284)"/>
<defs>
<linearGradient id="paint0_linear_7701_284" x1="17.2841" y1="30.0839" x2="29.7085" y2="17.5022" gradientUnits="userSpaceOnUse">
<stop stop-color="#F3491D"/>
<stop offset="1" stop-color="#FA752F"/>
</linearGradient>
<linearGradient id="paint1_linear_7701_284" x1="-3.80092" y1="33.7467" x2="27.7628" y2="1.84719" gradientUnits="userSpaceOnUse">
<stop stop-color="#F3491D"/>
<stop offset="1" stop-color="#FA752F"/>
</linearGradient>
<linearGradient id="paint2_linear_7701_284" x1="4.1602" y1="9.70931" x2="9.45122" y2="3.35171" gradientUnits="userSpaceOnUse">
<stop stop-color="#F3491D"/>
<stop offset="1" stop-color="#FA752F"/>
</linearGradient>
<linearGradient id="paint3_linear_7701_284" x1="4.16724" y1="15.638" x2="9.45826" y2="9.28042" gradientUnits="userSpaceOnUse">
<stop stop-color="#F3491D"/>
<stop offset="1" stop-color="#FA752F"/>
</linearGradient>
<linearGradient id="paint4_linear_7701_284" x1="12.3308" y1="14.2918" x2="13.0842" y2="11.8244" gradientUnits="userSpaceOnUse">
<stop stop-color="#F3491D"/>
<stop offset="1" stop-color="#FA752F"/>
</linearGradient>
<linearGradient id="paint5_linear_7701_284" x1="17.8956" y1="14.2918" x2="18.3672" y2="11.6795" gradientUnits="userSpaceOnUse">
<stop stop-color="#F3491D"/>
<stop offset="1" stop-color="#FA752F"/>
</linearGradient>
<linearGradient id="paint6_linear_7701_284" x1="11.967" y1="8.36329" x2="12.4387" y2="5.75104" gradientUnits="userSpaceOnUse">
<stop stop-color="#F3491D"/>
<stop offset="1" stop-color="#FA752F"/>
</linearGradient>
<linearGradient id="paint7_linear_7701_284" x1="21.2236" y1="8.36329" x2="21.9771" y2="5.89597" gradientUnits="userSpaceOnUse">
<stop stop-color="#F3491D"/>
<stop offset="1" stop-color="#FA752F"/>
</linearGradient>
<linearGradient id="paint8_linear_7701_284" x1="3.5743" y1="19.2417" x2="3.88518" y2="16.5806" gradientUnits="userSpaceOnUse">
<stop stop-color="#F3491D"/>
<stop offset="1" stop-color="#FA752F"/>
</linearGradient>
</defs>
</svg>
