<svg width="25" height="25" viewBox="0 0 25 25" fill="none" xmlns="http://www.w3.org/2000/svg">
<path d="M24.4602 19.625C24.1648 19.625 23.9261 19.3864 23.9261 19.0909V1.90909C23.9261 1.45455 23.5398 1.06818 23.0852 1.06818H16.4886C16.1932 1.06818 15.9545 0.829545 15.9545 0.534091C15.9545 0.238636 16.1932 0 16.4886 0H23.0852C24.142 0 25 0.857954 25 1.91477V19.0966C25 19.392 24.7613 19.6307 24.4659 19.6307L24.4602 19.625Z" fill="white"/>
<path d="M20.608 20.2102C20.0739 20.2102 19.5739 20.0057 19.1989 19.625L17.0739 17.5C17.0227 17.4489 16.9546 17.4205 16.8864 17.4205C16.8409 17.4205 16.7955 17.4318 16.7557 17.4546C15.4546 18.2102 13.983 18.608 12.4943 18.608C7.80115 18.608 3.98297 14.7898 3.98297 10.0966C3.98297 5.40342 7.80115 1.58524 12.4943 1.58524C17.1875 1.58524 21.0057 5.40342 21.0057 10.0966C21.0057 11.5852 20.608 13.0568 19.8523 14.358C19.7898 14.4602 19.8068 14.5909 19.8921 14.6761L22.0171 16.8011C22.7955 17.5796 22.7955 18.8409 22.0171 19.6193C21.6421 19.9943 21.1421 20.2046 20.608 20.2102ZM19.1307 15.5511C19.0568 15.5511 18.9887 15.5852 18.9432 15.6421C18.6648 15.9659 18.358 16.2727 18.0341 16.5511C17.9773 16.5966 17.9432 16.6648 17.9432 16.7386C17.9432 16.8125 17.9659 16.8807 18.0171 16.9318L19.9489 18.8636C20.125 19.0398 20.3523 19.1307 20.6023 19.1307C20.8523 19.1307 21.0796 19.0341 21.2557 18.8636C21.6137 18.5057 21.6137 17.9205 21.2557 17.5568L19.3239 15.625C19.2727 15.5739 19.2102 15.5455 19.1364 15.5455C19.1364 15.5455 19.1307 15.5455 19.125 15.5455L19.1307 15.5511ZM12.4943 2.6591C8.39206 2.6591 5.05683 5.99433 5.05683 10.0966C5.05683 14.1989 8.39206 17.5341 12.4943 17.5341C16.5966 17.5341 19.9318 14.1989 19.9318 10.0966C19.9318 5.99433 16.5966 2.6591 12.4943 2.6591Z" fill="white" fill-opacity="0.5"/>
<path d="M12.4943 9.84093C11.2784 9.84093 10.3636 8.43752 10.3636 6.5682C10.3636 4.17047 11.9943 3.98297 12.4943 3.98297C12.9943 3.98297 14.625 4.17047 14.625 6.5682C14.625 8.43184 13.7102 9.84093 12.4943 9.84093ZM12.4943 5.05683C12.0398 5.05683 11.4375 5.21593 11.4375 6.57388C11.4375 7.83524 11.9943 8.77274 12.4943 8.77274C12.9943 8.77274 13.5511 7.82956 13.5511 6.57388C13.5511 5.21593 12.9489 5.05683 12.4943 5.05683Z" fill="white"/>
<path d="M8.50571 14.625C8.21026 14.625 7.97162 14.3864 7.97162 14.0909C7.97162 10.4091 10.1875 10.3636 10.2784 10.3636C10.5739 10.3636 10.8125 10.6023 10.8125 10.8977C10.8125 11.1932 10.5853 11.4261 10.2955 11.4318C10.2898 11.4318 10.2841 11.4318 10.2784 11.4318C9.81253 11.4773 9.25571 11.9773 9.09094 13.2557C9.07957 13.3296 9.1023 13.4034 9.15344 13.4602C9.20457 13.5171 9.27275 13.5511 9.3523 13.5511H15.6364C15.7103 13.5511 15.7841 13.5171 15.8353 13.4602C15.8864 13.4034 15.9091 13.3296 15.8978 13.2557C15.733 11.9716 15.1705 11.4716 14.7046 11.4318C14.4091 11.4091 14.1818 11.1534 14.1989 10.875C14.2103 10.5796 14.4318 10.3636 14.7159 10.3636C14.8125 10.3636 17.0228 10.4034 17.0228 14.0909C17.0228 14.3864 16.7841 14.625 16.4887 14.625H8.50571Z" fill="white"/>
<path d="M19.6705 23.9205H17.5C17.4432 23.9205 17.3864 23.9034 17.3409 23.8636C17.0682 23.6534 16.4205 22.9716 16.2614 21.2841C16.2557 21.2102 16.2784 21.142 16.3239 21.0852C16.3636 21.0398 16.4205 21.0114 16.483 21H17.4886C17.7841 21 18.0227 20.7614 18.0227 20.4659C18.0227 20.1705 17.7841 19.9318 17.4886 19.9318H1.91477C1.46023 19.9318 1.07386 19.5455 1.07386 19.0909V1.90909C1.07386 1.45455 1.46023 1.06818 1.91477 1.06818H8.51136C8.80682 1.06818 9.04545 0.829545 9.04545 0.534091C9.04545 0.238636 8.80682 0 8.51136 0H1.91477C0.857954 0 0 0.857954 0 1.91477V19.0966C0 20.1534 0.857954 21.0114 1.91477 21.0114H8.47159C8.54545 21.0114 8.61364 21.0398 8.66477 21.0966C8.71591 21.1534 8.73864 21.2216 8.73295 21.2955C8.56818 22.983 7.92045 23.6591 7.64773 23.8693C7.60227 23.9034 7.54545 23.9261 7.48864 23.9261H5.31818C5.02273 23.9261 4.78409 24.1648 4.78409 24.4602C4.78409 24.7557 5.02273 24.9943 5.31818 24.9943H19.6761C19.9716 24.9943 20.2102 24.7557 20.2102 24.4602C20.2102 24.1648 19.9716 23.9261 19.6761 23.9261L19.6705 23.9205ZM15.7443 23.7955C15.6989 23.875 15.6136 23.9205 15.5227 23.9205H9.46023C9.36932 23.9205 9.28409 23.875 9.23864 23.7955C9.19318 23.7159 9.1875 23.6193 9.22727 23.5398C9.53977 22.9148 9.73295 22.142 9.80682 21.2443C9.81818 21.108 9.93182 21.0057 10.0682 21.0057H14.9205C15.0568 21.0057 15.1705 21.108 15.1818 21.2443C15.25 22.142 15.4489 22.9148 15.7614 23.5398C15.8011 23.6193 15.7955 23.7159 15.75 23.7955H15.7443Z" fill="white"/>
</svg>
