<svg width="27" height="27" viewBox="0 0 27 27" fill="none" xmlns="http://www.w3.org/2000/svg">
<path d="M3.89045 4.79239C4.31408 4.79239 4.6575 4.44897 4.6575 4.02535C4.6575 3.60172 4.31408 3.2583 3.89045 3.2583C3.46682 3.2583 3.12341 3.60172 3.12341 4.02535C3.12341 4.44897 3.46682 4.79239 3.89045 4.79239Z" fill="white"/>
<path d="M6.95863 4.79239C7.38226 4.79239 7.72568 4.44897 7.72568 4.02535C7.72568 3.60172 7.38226 3.2583 6.95863 3.2583C6.53501 3.2583 6.19159 3.60172 6.19159 4.02535C6.19159 4.44897 6.53501 4.79239 6.95863 4.79239Z" fill="white"/>
<path d="M10.0268 4.79239C10.4504 4.79239 10.7939 4.44897 10.7939 4.02535C10.7939 3.60172 10.4504 3.2583 10.0268 3.2583C9.60319 3.2583 9.25977 3.60172 9.25977 4.02535C9.25977 4.44897 9.60319 4.79239 10.0268 4.79239Z" fill="white"/>
<path d="M2.06795 27C0.889773 27 0 26.012 0 24.6989V1.83477C0 0.8775 0.987954 0 2.06795 0H24.932C25.9936 0 27 0.889773 27 1.83477V24.6989C27 26.012 26.1102 27 24.932 27H2.06795ZM1.44205 8.05091C1.36841 8.05091 1.29477 8.08159 1.23955 8.13068C1.18432 8.18591 1.15977 8.25341 1.15977 8.33318V24.6989C1.15977 25.3739 1.53409 25.8402 2.07409 25.8402H24.9382C25.472 25.8402 25.8464 25.3677 25.8464 24.6989V8.33318C25.8464 8.17977 25.7175 8.05091 25.5641 8.05091H1.44205ZM2.06795 1.15977C1.57705 1.15977 1.19659 1.54636 1.15977 1.80409C1.15977 1.81636 1.15977 1.82864 1.15977 1.84705V6.615C1.15977 6.76841 1.28864 6.89727 1.44205 6.89727H25.5641C25.7175 6.89727 25.8464 6.76841 25.8464 6.615V1.84091C25.8464 1.84091 25.8464 1.81023 25.8464 1.79795C25.8095 1.54636 25.4291 1.15977 24.9382 1.15977H2.06795Z" fill="white"/>
<path d="M6.60886 22.6923C6.5475 22.6923 6.48 22.6801 6.4125 22.6494C6.4125 22.6494 6.40023 22.6494 6.39409 22.6432C6.38182 22.6371 6.36341 22.6248 6.35114 22.6187C6.33273 22.6064 6.31432 22.6003 6.29591 22.5941C6.28977 22.5941 6.28363 22.5941 6.2775 22.588C6.26523 22.5757 6.25295 22.5635 6.23454 22.5451C6.21613 22.5266 6.19159 22.5144 6.17932 22.5021L4.47341 20.8023C4.24636 20.5753 4.24636 20.2071 4.47341 19.9862C4.58386 19.8757 4.725 19.8144 4.88454 19.8144C5.04409 19.8144 5.18523 19.8757 5.29568 19.9862L6.31432 21.0048C6.36954 21.0601 6.43704 21.0907 6.51682 21.0907C6.52295 21.0907 6.52909 21.0907 6.53523 21.0907C6.615 21.0907 6.69477 21.0416 6.74386 20.9803L8.73204 18.3294C8.8425 18.1821 9.00818 18.0962 9.19227 18.0962C9.32113 18.0962 9.43773 18.1391 9.54204 18.2128C9.66477 18.3048 9.74454 18.4398 9.76909 18.5932C9.79363 18.7466 9.75068 18.9001 9.65864 19.0228L7.09364 22.4407C7.09364 22.4407 7.06295 22.4653 7.04454 22.4898C7.02613 22.5082 7.01386 22.5266 7.00773 22.5451C6.99545 22.5512 6.98318 22.5635 6.97091 22.5696C6.9525 22.5819 6.93409 22.5941 6.91568 22.6064C6.89727 22.6187 6.87886 22.631 6.86045 22.6432C6.86045 22.6432 6.84818 22.6494 6.84204 22.6555C6.76841 22.6862 6.68863 22.7046 6.615 22.7046L6.60886 22.6923Z" fill="white"/>
<path d="M6.60886 15.8013C6.5475 15.8013 6.48 15.789 6.4125 15.7583C6.4125 15.7583 6.40023 15.7583 6.39409 15.7522C6.38182 15.7461 6.36341 15.7338 6.35114 15.7276C6.33273 15.7154 6.31432 15.7092 6.29591 15.7031C6.28977 15.7031 6.28363 15.7031 6.2775 15.697C6.26523 15.6847 6.25295 15.6724 6.23454 15.654C6.21613 15.6356 6.19159 15.6233 6.17932 15.6111L4.47341 13.9051C4.24636 13.6781 4.24636 13.3099 4.47341 13.089C4.58386 12.9786 4.725 12.9172 4.88454 12.9172C5.04409 12.9172 5.18523 12.9786 5.29568 13.089L6.31432 14.1076C6.36954 14.1629 6.43704 14.1874 6.51682 14.1874C6.52295 14.1874 6.52909 14.1874 6.53523 14.1874C6.615 14.1874 6.69477 14.1383 6.74386 14.077L8.73204 11.4261C8.8425 11.2788 9.00818 11.1929 9.19227 11.1929C9.32113 11.1929 9.43773 11.2358 9.54204 11.3095C9.66477 11.4015 9.74454 11.5365 9.76909 11.6899C9.79363 11.8433 9.75068 11.9967 9.65864 12.1195L7.09364 15.5374C7.09364 15.5374 7.06295 15.562 7.04454 15.5865C7.02613 15.6049 7.01386 15.6233 7.00773 15.6417C6.99545 15.6479 6.98318 15.6601 6.97091 15.6663C6.9525 15.6786 6.93409 15.6908 6.91568 15.7031C6.89727 15.7154 6.87886 15.7276 6.86045 15.7399C6.86045 15.7399 6.84818 15.7461 6.84204 15.7522C6.76841 15.7829 6.68864 15.8013 6.60886 15.8013Z" fill="white"/>
<path d="M12.3893 15.8011C12.0702 15.8011 11.8125 15.5434 11.8125 15.2243C11.8125 14.9052 12.0702 14.6475 12.3893 14.6475H22.1155C22.4345 14.6475 22.6923 14.9052 22.6923 15.2243C22.6923 15.5434 22.4345 15.8011 22.1155 15.8011H12.3893Z" fill="white"/>
<path d="M12.3893 22.6922C12.0702 22.6922 11.8125 22.4345 11.8125 22.1154C11.8125 21.7963 12.0702 21.5386 12.3893 21.5386H22.1155C22.4345 21.5386 22.6923 21.7963 22.6923 22.1154C22.6923 22.4345 22.4345 22.6922 22.1155 22.6922H12.3893Z" fill="white"/>
<path d="M12.3893 19.2498C12.0702 19.2498 11.8125 18.9921 11.8125 18.673C11.8125 18.3539 12.0702 18.0962 12.3893 18.0962H19.5259C19.845 18.0962 20.1027 18.3539 20.1027 18.673C20.1027 18.9921 19.845 19.2498 19.5259 19.2498H12.3893Z" fill="white" fill-opacity="0.5"/>
<path d="M12.3893 12.3587C12.0702 12.3587 11.8125 12.101 11.8125 11.7819C11.8125 11.4628 12.0702 11.2051 12.3893 11.2051H19.5259C19.845 11.2051 20.1027 11.4628 20.1027 11.7819C20.1027 12.101 19.845 12.3587 19.5259 12.3587H12.3893Z" fill="white" fill-opacity="0.5"/>
</svg>
