<svg width="24" height="24" viewBox="0 0 24 24" fill="none" xmlns="http://www.w3.org/2000/svg">
<path d="M21.1854 23.2309C21.0491 23.2309 20.9182 23.1764 20.82 23.0782L18.3 20.5582C18.2509 20.5091 18.1909 20.4818 18.12 20.4818C18.0491 20.4818 17.9891 20.5091 17.94 20.5582L16.9473 21.5455C16.8491 21.6437 16.7182 21.6982 16.5818 21.6982C16.5327 21.6982 16.4836 21.6927 16.44 21.6764C16.26 21.6218 16.1182 21.4746 16.08 21.2946L14.5473 14.4055C14.5091 14.2309 14.5582 14.0564 14.6836 13.9309C14.7818 13.8327 14.9127 13.7782 15.0491 13.7782C15.0873 13.7782 15.1254 13.7782 15.1636 13.7891L22.0527 15.3218C22.2382 15.36 22.38 15.5018 22.4345 15.6818C22.4891 15.8618 22.4345 16.0582 22.3036 16.1891L21.3109 17.1818C21.2127 17.28 21.2127 17.4382 21.3109 17.5364L23.8309 20.0564C24.0327 20.2582 24.0327 20.5855 23.8309 20.7818L21.5345 23.0782C21.4363 23.1764 21.3054 23.2309 21.1691 23.2309H21.1854ZM18.12 19.14C18.2563 19.14 18.3873 19.1946 18.4854 19.2927L21.0054 21.8127C21.0545 21.8618 21.12 21.8891 21.1854 21.8891C21.2509 21.8891 21.3163 21.8618 21.3654 21.8127L22.5818 20.5964C22.68 20.4982 22.68 20.34 22.5818 20.2418L20.0618 17.7218C19.86 17.52 19.86 17.1927 20.0618 16.9964L20.6073 16.4509C20.6727 16.3855 20.6945 16.2927 20.6727 16.2055C20.6454 16.1182 20.5745 16.0527 20.4873 16.0309L16.1345 15.0655C16.1345 15.0655 16.0963 15.06 16.08 15.06C16.0145 15.06 15.9491 15.0873 15.9 15.1309C15.84 15.1909 15.8127 15.2782 15.8345 15.3655L16.8 19.7182C16.8218 19.8055 16.8873 19.8818 16.9745 19.9037C16.9963 19.9091 17.0236 19.9146 17.0454 19.9146C17.1109 19.9146 17.1763 19.8873 17.2254 19.8437L17.7709 19.2982C17.8691 19.2 18 19.1455 18.1363 19.1455L18.12 19.14Z" fill="white" fill-opacity="0.5"/>
<path d="M5.10545 24C4.82182 24 4.59273 23.7709 4.59273 23.4873C4.59273 23.2036 4.82182 22.9745 5.10545 22.9745H7.18909C7.24364 22.9745 7.29818 22.9582 7.34182 22.92C7.66364 22.6691 8.42182 21.84 8.42182 19.6582C8.42182 19.5218 8.30727 19.4073 8.17091 19.4073H1.83818C0.823636 19.4073 0 18.5836 0 17.5691V1.83818C0 0.823636 0.823636 0 1.83818 0H22.1618C23.1764 0 24 0.823636 24 1.83818V13.5327C24 13.8164 23.7709 14.0455 23.4873 14.0455C23.2036 14.0455 22.9745 13.8164 22.9745 13.5327V1.83818C22.9745 1.39091 22.6091 1.03091 22.1673 1.03091H1.84364C1.39636 1.03091 1.03636 1.39636 1.03636 1.83818V17.5691C1.03636 18.0164 1.40182 18.3764 1.84364 18.3764H13.5382C13.8218 18.3764 14.0509 18.6055 14.0509 18.8891C14.0509 19.1727 13.8218 19.4018 13.5382 19.4018H9.70909C9.57273 19.4018 9.45818 19.5164 9.45818 19.6527C9.45818 20.8309 9.26182 21.8236 8.86909 22.6036C8.83091 22.68 8.83636 22.7727 8.88 22.8491C8.92364 22.9255 9.00546 22.9691 9.09273 22.9691H18.1309C18.4145 22.9691 18.6436 23.1982 18.6436 23.4818C18.6436 23.7655 18.4145 23.9945 18.1309 23.9945H5.11636L5.10545 24Z" fill="white"/>
<path d="M5.8691 7.15088C5.81456 7.15088 5.75456 7.13998 5.69456 7.1127C5.69456 7.1127 5.6891 7.1127 5.68365 7.10725C5.66728 7.10179 5.65638 7.09088 5.64001 7.08543C5.62365 7.07998 5.61274 7.06907 5.59638 7.06361C5.59092 7.06361 5.58547 7.06361 5.58001 7.05816C5.5691 7.04725 5.55819 7.03088 5.54183 7.01998C5.52547 7.00361 5.5091 6.9927 5.49274 6.98725L3.97638 5.47088C3.77456 5.26907 3.77456 4.94179 3.97638 4.74543C4.07456 4.64725 4.20547 4.5927 4.34183 4.5927C4.47819 4.5927 4.6091 4.64725 4.70729 4.74543L5.61274 5.65088C5.66183 5.69998 5.72183 5.72725 5.79274 5.72725C5.79819 5.72725 5.80365 5.72725 5.8091 5.72725C5.88001 5.72725 5.95092 5.68361 5.99456 5.62907L7.76183 3.2727C7.86001 3.14179 8.00729 3.06543 8.17092 3.06543C8.28547 3.06543 8.3891 3.10361 8.48183 3.16907C8.59092 3.25088 8.66183 3.37088 8.68365 3.50725C8.70547 3.64361 8.66728 3.77998 8.58547 3.88907L6.30547 6.92725C6.30547 6.92725 6.27819 6.94907 6.26183 6.97088C6.24547 6.98725 6.23456 7.00361 6.2291 7.01998C6.21819 7.02543 6.20728 7.03088 6.19638 7.03634C6.18001 7.04725 6.16365 7.05816 6.14183 7.06907C6.12547 7.07998 6.1091 7.09088 6.09274 7.10179C6.09274 7.10179 6.08183 7.10725 6.07638 7.1127C6.01092 7.13998 5.94001 7.15634 5.87456 7.15634L5.8691 7.15088Z" fill="white"/>
<path d="M5.8691 12.5127C5.81456 12.5127 5.75456 12.5018 5.69456 12.48C5.69456 12.48 5.6891 12.48 5.68365 12.4745C5.66728 12.4691 5.65638 12.4582 5.64001 12.4527C5.62365 12.4472 5.61274 12.4363 5.59638 12.4309C5.59092 12.4309 5.58547 12.4309 5.58001 12.4254C5.5691 12.4145 5.55819 12.3982 5.54183 12.3872C5.52547 12.3709 5.5091 12.36 5.49274 12.3545L3.97638 10.8382C3.77456 10.6363 3.77456 10.3091 3.97638 10.1127C4.07456 10.0145 4.20547 9.95997 4.34183 9.95997C4.47819 9.95997 4.6091 10.0145 4.70729 10.1127L5.61274 11.0182C5.66183 11.0672 5.72183 11.0891 5.79274 11.0891C5.79819 11.0891 5.80365 11.0891 5.8091 11.0891C5.88001 11.0891 5.95092 11.0454 5.99456 10.9909L7.76183 8.63452C7.86001 8.50361 8.00729 8.42725 8.17092 8.42725C8.28547 8.42725 8.3891 8.46543 8.48183 8.53088C8.59092 8.6127 8.66183 8.7327 8.68365 8.86906C8.70547 9.00543 8.66728 9.14179 8.58547 9.25088L6.30547 12.2891C6.30547 12.2891 6.27819 12.3109 6.26183 12.3327C6.24547 12.3491 6.23456 12.3654 6.2291 12.3818C6.21819 12.3872 6.20728 12.3927 6.19638 12.4036C6.18001 12.4145 6.16365 12.4254 6.14183 12.4363C6.12547 12.4472 6.1091 12.4582 6.09274 12.4691C6.09274 12.4691 6.08183 12.4745 6.07638 12.48C6.01092 12.5072 5.94001 12.5291 5.87456 12.5291L5.8691 12.5127Z" fill="white"/>
<path d="M10.4618 11.7491C10.1782 11.7491 9.9491 11.52 9.9491 11.2364C9.9491 10.9527 10.1782 10.7236 10.4618 10.7236H12.7582C13.0418 10.7236 13.2709 10.9527 13.2709 11.2364C13.2709 11.52 13.0418 11.7491 12.7582 11.7491H10.4618Z" fill="white"/>
<path d="M15.06 11.7491C14.7763 11.7491 14.5472 11.52 14.5472 11.2364C14.5472 10.9527 14.7763 10.7236 15.06 10.7236H19.6527C19.9363 10.7236 20.1654 10.9527 20.1654 11.2364C20.1654 11.52 19.9363 11.7491 19.6527 11.7491H15.06Z" fill="white"/>
<path d="M10.4618 6.38727C10.1782 6.38727 9.9491 6.15818 9.9491 5.87454C9.9491 5.59091 10.1782 5.36182 10.4618 5.36182H15.0546C15.3382 5.36182 15.5673 5.59091 15.5673 5.87454C15.5673 6.15818 15.3382 6.38727 15.0546 6.38727H10.4618Z" fill="white"/>
<path d="M17.3564 6.38727C17.0727 6.38727 16.8436 6.15818 16.8436 5.87454C16.8436 5.59091 17.0727 5.36182 17.3564 5.36182H19.6527C19.9364 5.36182 20.1654 5.59091 20.1654 5.87454C20.1654 6.15818 19.9364 6.38727 19.6527 6.38727H17.3564Z" fill="white"/>
<path d="M4.33634 16.3418C4.0527 16.3418 3.82361 16.1127 3.82361 15.8291C3.82361 15.5454 4.0527 15.3163 4.33634 15.3163H11.9945C12.2782 15.3163 12.5072 15.5454 12.5072 15.8291C12.5072 16.1127 12.2782 16.3418 11.9945 16.3418H4.33634Z" fill="white"/>
</svg>
