<svg width="30" height="30" viewBox="0 0 30 30" fill="none" xmlns="http://www.w3.org/2000/svg">
<path d="M0.640763 29.9932C0.286299 29.9932 0 29.7069 0 29.3524C0 28.998 0.286299 28.7117 0.640763 28.7117H4.70348C4.79209 28.7117 4.88071 28.6708 4.93524 28.6026C4.99659 28.5344 5.02386 28.4458 5.01022 28.3572L3.83095 18.5753C3.83095 18.5753 3.83095 18.5208 3.83095 18.5003C3.83095 17.8119 4.39673 17.2597 5.09202 17.2597H6.42127C6.58487 17.2597 6.7212 17.1302 6.73483 16.9666C6.87117 15.0988 7.46421 13.6673 8.47989 12.7062C9.69325 11.5542 11.152 11.4656 11.5678 11.4656C11.5678 11.4656 11.6292 11.4656 11.636 11.4656C11.9905 11.486 12.2563 11.7928 12.2359 12.1404C12.2154 12.4744 11.9427 12.7471 11.6224 12.7471C11.6087 12.7471 11.5883 12.7471 11.5746 12.7471H11.561H11.5269C11.3224 12.7471 10.2454 12.788 9.3456 13.6605C8.60941 14.3695 8.16633 15.4533 8.03681 16.8848C8.02999 16.9734 8.05726 17.062 8.11861 17.1234C8.17996 17.1915 8.26176 17.2256 8.35038 17.2256H21.6633C21.7519 17.2256 21.8337 17.1847 21.895 17.1234C21.9564 17.0552 21.9836 16.9734 21.9768 16.8848C21.8405 15.4669 21.3906 14.3899 20.6408 13.6742C19.6864 12.7744 18.5276 12.7471 18.3981 12.7471C18.3776 12.7471 18.3572 12.7471 18.3299 12.7471H18.3163C17.9686 12.7471 17.6823 12.4813 17.6619 12.1404C17.6414 11.786 17.9141 11.486 18.2618 11.4656H18.3231C18.7594 11.4656 20.2727 11.5542 21.5201 12.7403C22.5358 13.7014 23.122 15.1261 23.2652 16.9666C23.2788 17.1302 23.4151 17.2597 23.5787 17.2597H24.908C25.6033 17.2597 26.1691 17.8187 26.1691 18.5003C26.1691 18.5276 26.1691 18.5481 26.1691 18.5753L24.9898 28.364C24.9761 28.4526 25.0102 28.5412 25.0648 28.6094C25.1261 28.6776 25.2079 28.7185 25.2965 28.7185H29.3592C29.7137 28.7185 30 29.0048 30 29.3592C30 29.7137 29.7137 30 29.3592 30H0.654397L0.640763 29.9932ZM5.47376 18.5344C5.38514 18.5344 5.29652 18.5753 5.24199 18.6435C5.18064 18.7117 5.15337 18.8003 5.16701 18.8889L6.31902 28.439C6.33947 28.5958 6.46898 28.7185 6.63258 28.7185H23.3674C23.5242 28.7185 23.6605 28.6026 23.681 28.439L24.833 18.8889C24.8466 18.8003 24.8125 18.7117 24.758 18.6435C24.6967 18.5753 24.6149 18.5344 24.5262 18.5344H5.48739H5.47376Z" fill="url(#paint0_linear_7701_266)"/>
<path d="M14.9966 26.1418C13.606 26.1418 12.4744 25.0102 12.4744 23.6264C12.4744 22.2426 13.606 21.1111 14.9966 21.1111C16.3872 21.1111 17.5188 22.2426 17.5188 23.6264C17.5188 25.0102 16.3872 26.1418 14.9966 26.1418ZM14.9966 22.3926C14.3149 22.3926 13.7628 22.9448 13.7628 23.6264C13.7628 24.3081 14.3149 24.8602 14.9966 24.8602C15.6783 24.8602 16.2372 24.3081 16.2372 23.6264C16.2372 22.9448 15.6851 22.3926 14.9966 22.3926Z" fill="url(#paint1_linear_7701_266)" fill-opacity="0.5"/>
<path d="M14.9421 11.786C13.1084 11.786 10.9611 9.0184 10.9543 5.44649C10.9543 5.27607 10.8112 5.13292 10.6408 5.13292H10.1636C9.80914 5.13292 9.52284 4.84663 9.52284 4.49216V1.59509C9.52284 1.42468 9.37969 1.28153 9.20927 1.28153H8.25494C7.90048 1.28153 7.61418 0.995228 7.61418 0.640763C7.61418 0.286299 7.90048 0 8.25494 0H22.6108C22.9652 0 23.2515 0.286299 23.2515 0.640763V5.41241C23.2515 5.76687 22.9652 6.05317 22.6108 6.05317C22.2563 6.05317 21.97 5.76687 21.97 5.41241V1.59509C21.97 1.42468 21.8269 1.28153 21.6564 1.28153H20.7021C20.5317 1.28153 20.3886 1.42468 20.3886 1.59509V4.49216C20.3886 4.84663 20.1023 5.13292 19.7478 5.13292H19.2706C19.1002 5.13292 18.9571 5.27607 18.9571 5.44649C18.9434 8.95706 16.7621 11.786 14.9693 11.786H14.9421ZM12.5494 5.13292C12.4676 5.13292 12.3858 5.16701 12.3245 5.22836C12.2631 5.28971 12.2359 5.36469 12.2359 5.45331C12.2495 8.42536 14.0014 10.5044 14.9421 10.5044C15.8828 10.5044 17.6346 8.37082 17.6483 5.45331C17.6483 5.37151 17.6142 5.28971 17.5596 5.22836C17.4983 5.16701 17.4233 5.13292 17.3347 5.13292H12.5562H12.5494ZM11.1111 1.28153C10.9407 1.28153 10.7975 1.42468 10.7975 1.59509V3.53783C10.7975 3.70825 10.9407 3.8514 11.1111 3.8514H18.7662C18.9366 3.8514 19.0798 3.70825 19.0798 3.53783V1.59509C19.0798 1.42468 18.9366 1.28153 18.7662 1.28153H11.1111Z" fill="url(#paint2_linear_7701_266)"/>
<path d="M22.5971 9.87722C22.2427 9.87722 21.9564 9.59092 21.9564 9.23645V7.59364C21.9564 7.23918 22.2427 6.95288 22.5971 6.95288C22.9516 6.95288 23.2379 7.23918 23.2379 7.59364V9.23645C23.2379 9.59092 22.9516 9.87722 22.5971 9.87722Z" fill="url(#paint3_linear_7701_266)"/>
<defs>
<linearGradient id="paint0_linear_7701_266" x1="-3.68145" y1="31.6548" x2="13.1243" y2="4.15733" gradientUnits="userSpaceOnUse">
<stop stop-color="#F3491D"/>
<stop offset="1" stop-color="#FA752F"/>
</linearGradient>
<linearGradient id="paint1_linear_7701_266" x1="11.8554" y1="26.5909" x2="16.9806" y2="21.396" gradientUnits="userSpaceOnUse">
<stop stop-color="#F3491D"/>
<stop offset="1" stop-color="#FA752F"/>
</linearGradient>
<linearGradient id="paint2_linear_7701_266" x1="5.69525" y1="12.8383" x2="17.2042" y2="-2.59755" gradientUnits="userSpaceOnUse">
<stop stop-color="#F3491D"/>
<stop offset="1" stop-color="#FA752F"/>
</linearGradient>
<linearGradient id="paint3_linear_7701_266" x1="21.7991" y1="10.1383" x2="24.0059" y2="9.16074" gradientUnits="userSpaceOnUse">
<stop stop-color="#F3491D"/>
<stop offset="1" stop-color="#FA752F"/>
</linearGradient>
</defs>
</svg>
