<svg width="23" height="16" viewBox="0 0 23 16" fill="none" xmlns="http://www.w3.org/2000/svg">
<path d="M23 7.93106C23 7.87689 23 7.81533 22.9974 7.74392C22.9949 7.54448 22.9897 7.32041 22.9846 7.08156C22.9641 6.39458 22.9281 5.71006 22.8717 5.06494C22.7946 4.17605 22.6817 3.4349 22.5277 2.87842C22.3651 2.29769 22.0466 1.76805 21.6038 1.34244C21.1609 0.916822 20.6094 0.610147 20.0044 0.453062C19.2779 0.265928 17.8558 0.1502 15.8536 0.0787934C14.9012 0.0443213 13.8821 0.0221605 12.8631 0.00984903C12.5063 0.00492444 12.1751 0.0024623 11.8773 0H11.1227C10.8249 0.0024623 10.4937 0.00492444 10.1369 0.00984903C9.11786 0.0221605 8.09877 0.0443213 7.14643 0.0787934C5.1442 0.152662 3.71953 0.26839 2.99565 0.453062C2.39036 0.609762 1.83864 0.916307 1.39577 1.34198C0.952906 1.76765 0.634451 2.2975 0.472321 2.87842C0.315737 3.4349 0.205357 4.17605 0.128348 5.06494C0.071875 5.71006 0.0359375 6.39458 0.0154017 7.08156C0.00770085 7.32041 0.00513389 7.54448 0.00256693 7.74392C0.00256693 7.81533 0 7.87689 0 7.93106V8.06894C0 8.12311 -3.91155e-08 8.18467 0.00256693 8.25608C0.00513389 8.45553 0.0102678 8.67959 0.0154017 8.91844C0.0359375 9.60542 0.071875 10.2899 0.128348 10.9351C0.205357 11.8239 0.318304 12.5651 0.472321 13.1216C0.800893 14.301 1.76607 15.2318 2.99565 15.5469C3.71953 15.7341 5.1442 15.8498 7.14643 15.9212C8.09877 15.9557 9.11786 15.9778 10.1369 15.9902C10.4937 15.9951 10.8249 15.9975 11.1227 16H11.8773C12.1751 15.9975 12.5063 15.9951 12.8631 15.9902C13.8821 15.9778 14.9012 15.9557 15.8536 15.9212C17.8558 15.8473 19.2805 15.7316 20.0044 15.5469C21.2339 15.2318 22.1991 14.3035 22.5277 13.1216C22.6843 12.5651 22.7946 11.8239 22.8717 10.9351C22.9281 10.2899 22.9641 9.60542 22.9846 8.91844C22.9923 8.67959 22.9949 8.45553 22.9974 8.25608C22.9974 8.18467 23 8.12311 23 8.06894V7.93106ZM21.1518 8.0591C21.1518 8.1108 21.1518 8.16744 21.1492 8.23392C21.1467 8.42598 21.1415 8.63774 21.1364 8.86673C21.1184 9.5217 21.0825 10.1767 21.0286 10.7849C20.9593 11.5777 20.8617 12.2278 20.7411 12.6636C20.5819 13.2324 20.1147 13.683 19.5243 13.8332C18.9853 13.9711 17.6273 14.0819 15.7817 14.1484C14.8473 14.1828 13.8411 14.205 12.8374 14.2173C12.4857 14.2222 12.1597 14.2247 11.8671 14.2247H11.1329L10.1626 14.2173C9.15893 14.205 8.15525 14.1828 7.2183 14.1484C5.37266 14.0794 4.01217 13.9711 3.47567 13.8332C2.88527 13.6805 2.41808 13.2324 2.25893 12.6636C2.13828 12.2278 2.04074 11.5777 1.97143 10.7849C1.91752 10.1767 1.88415 9.5217 1.86362 8.86673C1.85592 8.63774 1.85335 8.42352 1.85078 8.23392C1.85078 8.16744 1.84821 8.10834 1.84821 8.0591V7.94091C1.84821 7.8892 1.84821 7.83256 1.85078 7.76608C1.85335 7.57402 1.85848 7.36227 1.86362 7.13327C1.88159 6.4783 1.91752 5.82333 1.97143 5.21514C2.04074 4.42228 2.13828 3.77224 2.25893 3.33641C2.41808 2.76762 2.88527 2.31702 3.47567 2.16682C4.01473 2.02893 5.37266 1.91813 7.2183 1.85165C8.15268 1.81717 9.15893 1.79501 10.1626 1.7827C10.5143 1.77778 10.8403 1.77532 11.1329 1.77532H11.8671L12.8374 1.7827C13.8411 1.79501 14.8448 1.81717 15.7817 1.85165C17.6273 1.92059 18.9878 2.02893 19.5243 2.16682C20.1147 2.31948 20.5819 2.76762 20.7411 3.33641C20.8617 3.77224 20.9593 4.42228 21.0286 5.21514C21.0825 5.82333 21.1158 6.4783 21.1364 7.13327C21.1441 7.36227 21.1467 7.57649 21.1492 7.76608C21.1492 7.83256 21.1518 7.89166 21.1518 7.94091V8.0591ZM9.2154 11.2995L15.1708 7.97538L9.2154 4.70052V11.2995Z" fill="url(#paint0_linear_7572_120)"/>
<defs>
<linearGradient id="paint0_linear_7572_120" x1="-2.82244" y1="17.4285" x2="12.4039" y2="-4.69721" gradientUnits="userSpaceOnUse">
<stop stop-color="#F3491D"/>
<stop offset="1" stop-color="#FA752F"/>
</linearGradient>
</defs>
</svg>
