<svg width="31" height="31" viewBox="0 0 31 31" fill="none" xmlns="http://www.w3.org/2000/svg">
<path d="M6.59155 30.9859C6.22535 30.9859 5.92958 30.6901 5.92958 30.3239C5.92958 29.9577 6.22535 29.662 6.59155 29.662H9.28169C9.35211 29.662 9.42253 29.6408 9.47887 29.5916C9.89437 29.2676 10.8732 28.1972 10.8732 25.3803C10.8732 25.2042 10.7254 25.0563 10.5493 25.0563H2.37324C1.06338 25.0563 0 23.993 0 22.6831V2.37324C0 1.06338 1.06338 0 2.37324 0H11.5423C11.9085 0 12.2042 0.295775 12.2042 0.661972C12.2042 1.02817 11.9085 1.32394 11.5423 1.32394H2.37324C1.80282 1.32394 1.33099 1.80282 1.33099 2.3662V22.6761C1.33099 22.831 1.3662 22.9789 1.44366 23.1268C1.5 23.2394 1.61268 23.3099 1.73239 23.3099C1.75352 23.3099 1.76761 23.3099 1.78873 23.3099C1.92958 23.2887 2.04225 23.169 2.05634 23.0282C2.37324 20.338 3.62676 19.7676 4.61972 19.7676C6.47887 19.7676 7.28169 19.1479 8.02817 18.0704C8.15493 17.8944 8.35915 17.7887 8.57042 17.7887C8.70423 17.7887 8.83803 17.831 8.9507 17.9085C9.09859 18.007 9.19014 18.162 9.22535 18.338C9.25352 18.5141 9.21831 18.6901 9.11268 18.831C7.97183 20.4577 6.71127 21.0916 4.61268 21.0916C4.1338 21.0916 3.52113 21.4859 3.34507 23.3662C3.33803 23.4577 3.3662 23.5493 3.42958 23.6127C3.49296 23.6831 3.57746 23.7183 3.66901 23.7183H19.3944C19.4859 23.7183 19.5704 23.6831 19.6338 23.6127C19.6972 23.5423 19.7254 23.4577 19.7183 23.3662C19.5423 21.4859 18.9296 21.0916 18.4507 21.0916C16.3521 21.0916 15.0915 20.4577 13.9507 18.831C13.8521 18.6831 13.8099 18.507 13.838 18.338C13.8662 18.162 13.9648 18.0141 14.1127 17.9085C14.2254 17.831 14.3592 17.7887 14.493 17.7887C14.7113 17.7887 14.9155 17.8944 15.0352 18.0704C15.7887 19.1408 16.5845 19.7676 18.4437 19.7676C19.5 19.7676 20.8099 20.4014 21.0423 23.4225C21.0563 23.5915 21.1972 23.7183 21.3662 23.7183H28.5915C29.169 23.7183 29.6338 23.2465 29.6338 22.6761V15.4859C29.6338 15.1197 29.9296 14.8239 30.2958 14.8239C30.662 14.8239 30.9577 15.1197 30.9577 15.4859V22.6761C30.9577 23.9859 29.8944 25.0493 28.5845 25.0493H20.4085C20.2324 25.0493 20.0845 25.1972 20.0845 25.3732C20.0845 28.1972 21.0493 29.2606 21.4648 29.5845C21.5211 29.6268 21.5915 29.6549 21.662 29.6549H24.3592C24.7254 29.6549 25.0211 29.9507 25.0211 30.3169C25.0211 30.6831 24.7254 30.9789 24.3592 30.9789H6.56338L6.59155 30.9859ZM12.5211 25.0563C12.3451 25.0563 12.1972 25.2042 12.1972 25.3803C12.1972 26.9014 11.9437 28.1831 11.4366 29.1901C11.3873 29.2887 11.3944 29.4085 11.4507 29.507C11.507 29.6056 11.6127 29.662 11.7254 29.662H19.2394C19.3521 29.662 19.4577 29.6056 19.5141 29.507C19.5704 29.4085 19.5775 29.2887 19.5282 29.1901C19.0282 28.1831 18.7676 26.9014 18.7676 25.3803C18.7676 25.2042 18.6197 25.0563 18.4437 25.0563H12.5211Z" fill="url(#paint0_linear_7701_275)"/>
<path d="M18.4577 5.28159C18.0916 5.28159 17.7958 4.98581 17.7958 4.61961C17.7958 4.25342 18.0916 3.95764 18.4577 3.95764H26.3662C26.7324 3.95764 27.0282 4.25342 27.0282 4.61961C27.0282 4.98581 26.7324 5.28159 26.3662 5.28159H18.4577Z" fill="url(#paint1_linear_7701_275)" fill-opacity="0.5"/>
<path d="M18.4577 9.23935C18.0916 9.23935 17.7958 8.94357 17.7958 8.57738C17.7958 8.21118 18.0916 7.91541 18.4577 7.91541H26.3662C26.7324 7.91541 27.0282 8.21118 27.0282 8.57738C27.0282 8.94357 26.7324 9.23935 26.3662 9.23935H18.4577Z" fill="url(#paint2_linear_7701_275)" fill-opacity="0.5"/>
<path d="M19.4437 17.1478C19.3451 17.1478 19.2465 17.1267 19.1549 17.0844C18.9296 16.9717 18.7817 16.7394 18.7817 16.4858V13.521C18.7817 13.345 18.6338 13.1971 18.4577 13.1971H17.4718C17.1056 13.1971 16.8099 12.9013 16.8099 12.5351C16.8099 12.1689 17.1056 11.8732 17.4718 11.8732H19.4507C19.8169 11.8732 20.1127 12.1689 20.1127 12.5351V14.4295C20.1127 14.5563 20.1831 14.6689 20.2958 14.7253C20.338 14.7464 20.3873 14.7605 20.4366 14.7605C20.507 14.7605 20.5775 14.7394 20.6408 14.6901L23.9789 12.021C24.0986 11.9295 24.2465 11.8732 24.3944 11.8732H29.0282C29.3803 11.8732 29.662 11.5915 29.662 11.2394V1.66189C29.662 1.48583 29.5141 1.33794 29.338 1.33794H15.5C15.3239 1.33794 15.1761 1.48583 15.1761 1.66189V5.61963C15.1761 5.98583 14.8803 6.28161 14.5141 6.28161C14.1479 6.28161 13.8521 5.98583 13.8521 5.61963V1.66189C13.8521 0.753437 14.5915 0.00695801 15.507 0.00695801H29.3451C30.2535 0.00695801 31 0.746395 31 1.66189V11.2394C31 12.3239 30.1197 13.2041 29.0352 13.2041H24.7465C24.6761 13.2041 24.5986 13.2323 24.5423 13.2746L19.8732 17.014C19.7535 17.1055 19.6056 17.1619 19.4577 17.1619L19.4437 17.1478Z" fill="url(#paint3_linear_7701_275)"/>
<path d="M11.5352 17.148C9.5 17.148 7.90845 14.6198 7.90845 11.4015C7.90845 7.35923 10.4437 6.92261 11.5352 6.92261C12.6268 6.92261 15.162 7.35923 15.162 11.4015C15.162 14.6268 13.5704 17.148 11.5352 17.148ZM11.5352 8.25359C10.9648 8.25359 9.23239 8.25359 9.23239 11.4015C9.23239 13.7536 10.3099 15.824 11.5352 15.824C12.7606 15.824 13.838 13.7606 13.838 11.4015C13.838 8.25359 12.1056 8.25359 11.5352 8.25359Z" fill="url(#paint4_linear_7701_275)"/>
<defs>
<linearGradient id="paint0_linear_7701_275" x1="-3.79898" y1="33.7525" x2="27.7704" y2="1.86904" gradientUnits="userSpaceOnUse">
<stop stop-color="#F3491D"/>
<stop offset="1" stop-color="#FA752F"/>
</linearGradient>
<linearGradient id="paint1_linear_7701_275" x1="16.6628" y1="5.39979" x2="17.038" y2="2.75514" gradientUnits="userSpaceOnUse">
<stop stop-color="#F3491D"/>
<stop offset="1" stop-color="#FA752F"/>
</linearGradient>
<linearGradient id="paint2_linear_7701_275" x1="16.6628" y1="9.35756" x2="17.038" y2="6.7129" gradientUnits="userSpaceOnUse">
<stop stop-color="#F3491D"/>
<stop offset="1" stop-color="#FA752F"/>
</linearGradient>
<linearGradient id="paint3_linear_7701_275" x1="11.7478" y1="18.6935" x2="29.2257" y2="1.03301" gradientUnits="userSpaceOnUse">
<stop stop-color="#F3491D"/>
<stop offset="1" stop-color="#FA752F"/>
</linearGradient>
<linearGradient id="paint4_linear_7701_275" x1="7.01833" y1="18.0609" x2="16.886" y2="10.9851" gradientUnits="userSpaceOnUse">
<stop stop-color="#F3491D"/>
<stop offset="1" stop-color="#FA752F"/>
</linearGradient>
</defs>
</svg>
