<svg width="22" height="27" viewBox="0 0 22 27" fill="none" xmlns="http://www.w3.org/2000/svg">
<path d="M0.576687 26.135C0.257669 26.135 0 25.8773 0 25.5583C0 25.2393 0.257669 24.9816 0.576687 24.9816H1.64417C1.72393 24.9816 1.80368 24.9448 1.85276 24.8834C1.90798 24.8221 1.93252 24.7423 1.92025 24.6626L0.858896 15.8343C0.858896 15.8343 0.858896 15.7853 0.858896 15.7669C0.858896 15.1472 1.3681 14.6442 1.99387 14.6442H4.04908C4.19632 14.6442 4.31902 14.5276 4.33129 14.3804C4.45399 12.6258 4.9816 11.3006 5.89571 10.4478C6.83436 9.57054 7.8773 9.47852 8.28221 9.47852C8.31902 9.47852 8.34969 9.47852 8.3681 9.47852C8.68712 9.50306 8.92638 9.77913 8.90798 10.0981C8.88957 10.4049 8.64417 10.638 8.34356 10.638C8.33129 10.638 8.31288 10.638 8.30061 10.638C8.28834 10.638 8.27607 10.638 8.25767 10.638C8.11043 10.638 7.33742 10.6687 6.65644 11.3251C6.00614 11.9509 5.6135 12.9693 5.49693 14.3435C5.4908 14.4233 5.51534 14.5031 5.57055 14.5583C5.62577 14.6135 5.69939 14.6503 5.77914 14.6503H16.0429C16.1227 14.6503 16.1963 14.6196 16.2515 14.5583C16.3067 14.4969 16.3313 14.4233 16.3252 14.3435C16.2086 12.9693 15.816 11.957 15.1656 11.3251C14.4847 10.6687 13.7178 10.638 13.5706 10.638C13.5399 10.638 13.5215 10.638 13.5092 10.638C13.5031 10.638 13.4908 10.638 13.4724 10.638C13.184 10.638 12.9325 10.3926 12.9202 10.092C12.9018 9.77299 13.135 9.50306 13.454 9.48465C13.4724 9.48465 13.5031 9.48465 13.5399 9.48465C13.9448 9.48465 14.9877 9.57668 15.9202 10.454C16.8344 11.3067 17.3558 12.6319 17.4847 14.3865C17.4969 14.5337 17.6196 14.6503 17.7669 14.6503H19.8221C20.4479 14.6503 20.9571 15.1534 20.9571 15.773C20.9571 15.7975 20.9571 15.8159 20.9571 15.8405L19.8957 24.6687C19.8834 24.7485 19.9141 24.8282 19.9632 24.8896C20.0184 24.9509 20.092 24.9877 20.1718 24.9877H21.2393C21.5583 24.9877 21.816 25.2454 21.816 25.5644C21.816 25.8834 21.5583 26.1411 21.2393 26.1411H0.570552L0.576687 26.135ZM2.34356 15.7975C2.2638 15.7975 2.18405 15.8343 2.13497 15.8896C2.07975 15.9509 2.05521 16.0307 2.06748 16.1104L3.10429 24.7239C3.1227 24.865 3.23926 24.9754 3.3865 24.9754H18.4479C18.589 24.9754 18.7117 24.8712 18.7301 24.7239L19.7669 16.1104C19.7791 16.0307 19.7485 15.9509 19.6994 15.8896C19.6442 15.8282 19.5706 15.7975 19.4908 15.7975H2.35583H2.34356Z" fill="white"/>
<path d="M10.9141 22.6872C9.64414 22.6872 8.61346 21.6565 8.61346 20.3866C8.61346 19.1166 9.64414 18.0859 10.9141 18.0859C12.184 18.0859 13.2147 19.1166 13.2147 20.3866C13.2147 21.6565 12.184 22.6872 10.9141 22.6872ZM10.9141 19.2393C10.2822 19.2393 9.77297 19.7547 9.77297 20.3804C9.77297 21.0062 10.2883 21.5215 10.9141 21.5215C11.5398 21.5215 12.0552 21.0062 12.0552 20.3804C12.0552 19.7547 11.5398 19.2393 10.9141 19.2393Z" fill="white" fill-opacity="0.5"/>
<path d="M10.9141 8.90798C9.14114 8.90798 7.75464 6.70552 7.75464 3.90184C7.75464 0.380368 9.96323 0 10.9141 0C11.8651 0 14.0737 0.380368 14.0737 3.90184C14.0737 6.71166 12.6872 8.90798 10.9141 8.90798ZM10.9141 1.15951C10.4172 1.15951 8.90801 1.15951 8.90801 3.90184C8.90801 5.95092 9.84666 7.7546 10.9141 7.7546C11.9816 7.7546 12.9203 5.95706 12.9203 3.90184C12.9203 1.15951 11.4111 1.15951 10.9141 1.15951Z" fill="white"/>
</svg>
