<svg width="44" height="52" viewBox="0 0 44 52" fill="none" xmlns="http://www.w3.org/2000/svg">
<path d="M20.5359 0.0507736C20.4547 0.0710869 20.0383 0.142181 19.6219 0.203117C17.4688 0.558586 15.5086 1.57421 13.8023 3.23984C12.4312 4.5703 11.5172 6.02265 10.9586 7.76952C10.4508 9.34374 10.4305 9.56718 10.4305 13.5078C10.4305 17.0726 10.4406 17.2351 10.6437 17.6719C10.918 18.2609 11.5172 18.8703 12.0758 19.1141C12.3602 19.2359 12.5227 19.3883 12.5531 19.5305C12.5836 19.6523 12.6547 20.0484 12.7156 20.4039C13.1117 22.5976 14.4016 24.4156 16.5445 25.7664C17.225 26.2031 17.2859 26.2641 17.2859 26.5789V26.9141H16.3414C13.7008 26.9141 10.6742 27.9703 8.39922 29.6766L7.48516 30.3672H6.71328C6.09375 30.3672 5.85 30.418 5.42344 30.6312C4.225 31.2305 3.7375 32.4492 4.13359 33.9219L4.28594 34.4805L3.88984 35.3945C3.67656 35.8922 2.71172 38.6851 1.74687 41.5797L0 46.8508L0.040625 47.775C0.0710937 48.5469 0.132031 48.8109 0.396094 49.3898C0.782031 50.1922 1.54375 51.0453 2.23438 51.4211C3.36172 52.0305 2.275 52 21.6531 52C41.0312 52 39.9445 52.0305 41.0719 51.4211C41.7523 51.0453 42.5242 50.1922 42.9102 49.3898C43.2148 48.7398 43.2352 48.6383 43.225 47.582L43.2148 46.4648L41.4375 41.1836C40.4625 38.2789 39.518 35.5875 39.3352 35.2016C39.0203 34.5109 39.0203 34.5008 39.1727 33.9219C39.457 32.8351 39.3148 32.0328 38.7156 31.2812C38.2281 30.6719 37.5172 30.3672 36.5625 30.3672C35.8414 30.3672 35.75 30.3469 35.4453 30.0726C33.3125 28.2242 29.8086 26.9141 26.9648 26.9141H26.0203V26.5789C26.0203 26.2641 26.0812 26.2031 26.7617 25.7664C28.9047 24.4156 30.1945 22.5976 30.5906 20.4039C30.6516 20.0484 30.7227 19.6523 30.7531 19.5305C30.7836 19.3883 30.9461 19.2359 31.2305 19.1141C31.7687 18.8703 32.3477 18.2812 32.6422 17.682C32.8758 17.225 32.8758 17.1539 32.8758 13.5078C32.8758 9.56718 32.8555 9.34374 32.3477 7.76952C31.8195 6.13437 30.9969 4.78359 29.7172 3.45312C28.1023 1.78749 26.2234 0.731243 23.9484 0.243744C23.2883 0.101555 20.8914 -0.0406303 20.5359 0.0507736ZM23.1867 1.8789C25.2281 2.23437 26.7922 3.02655 28.2852 4.45859C29.5445 5.66718 30.4992 7.35312 30.9562 9.16093C31.0578 9.57734 31.1391 10.4914 31.1695 11.7609C31.2203 13.6094 31.2203 13.7312 31.0477 13.6906C30.8445 13.6601 30.8141 13.6094 30.4484 12.7766C30.1234 12.0351 29.4227 11.2836 28.732 10.9383C28.4375 10.7961 27.7875 10.6031 27.2898 10.5117C25.5227 10.1867 24.375 9.73984 22.9125 8.82578C22.3031 8.43984 22.1406 8.3789 21.6531 8.3789C21.1555 8.3789 21.0031 8.42968 20.4242 8.81562C19.0125 9.72968 17.7531 10.2172 16.0367 10.5117C15.5289 10.6031 14.9094 10.7656 14.6656 10.8672C13.9953 11.1617 13.2031 11.9742 12.8781 12.7156C12.4516 13.6601 12.4516 13.6601 12.2586 13.6906C12.0859 13.7312 12.0859 13.6094 12.1367 11.7609C12.1672 10.4914 12.2484 9.57734 12.35 9.16093C13.5992 4.20468 18.3219 1.02578 23.1867 1.8789ZM21.7953 10.1461C21.9172 10.3492 23.4812 11.182 24.3547 11.5172C24.8625 11.7101 25.7766 11.9742 26.3859 12.0859C27.6859 12.3398 27.9805 12.4414 28.3766 12.7766C28.7727 13.1117 28.9859 13.5484 29.0773 14.2187C29.1687 14.8586 29.4937 15.2344 29.9609 15.2344C30.357 15.2344 30.875 15.5898 31.0578 15.9859C31.4133 16.7172 30.9461 17.4891 30.0422 17.6617C29.3312 17.7937 29.1687 18.007 29.057 18.9414C28.9555 19.8453 28.6508 21.0945 28.3664 21.7547C27.6555 23.4203 23.5828 26 21.6531 26C19.7742 26 15.7828 23.5219 15.0008 21.8766C14.6656 21.1758 14.3609 19.9875 14.2492 18.9516C14.1375 18.007 13.9852 17.7937 13.2641 17.6617C12.3602 17.4891 11.893 16.7172 12.2484 15.9859C12.4312 15.5898 12.9492 15.2344 13.3352 15.2344C13.7414 15.2344 14.1172 14.8789 14.1883 14.4422C14.4117 13.0305 14.9805 12.4109 16.2195 12.2383C17.7734 12.025 19.8047 11.2633 21.0539 10.4305C21.6328 10.0344 21.7141 10.0039 21.7953 10.1461ZM19.5711 27.3101C20.5055 27.6656 21.5516 27.7875 22.4453 27.6351C22.8719 27.5641 23.4609 27.4117 23.7352 27.3101C24.0195 27.2086 24.2633 27.1172 24.2836 27.1172C24.3039 27.1172 24.2937 27.3914 24.2633 27.7266C24.1414 28.8539 23.7148 29.5445 22.8617 30.0117C21.5211 30.743 19.8656 30.1437 19.2664 28.7117C19.1242 28.3664 18.9312 27.1172 19.0227 27.1172C19.043 27.1172 19.2969 27.2086 19.5711 27.3101ZM17.4688 28.8641C17.4992 28.9961 17.6719 29.382 17.8547 29.7273L18.1898 30.3672H14.3812C12.2891 30.3672 10.5828 30.3469 10.5828 30.3164C10.5828 30.2148 12.0555 29.5344 12.9086 29.25C14.107 28.8437 15.1937 28.6609 16.4023 28.6508C17.357 28.6406 17.4078 28.6508 17.4688 28.8641ZM28.6203 28.793C29.118 28.8844 29.9203 29.0875 30.4078 29.25C31.2508 29.5344 32.7234 30.2148 32.7234 30.3164C32.7234 30.3469 31.0172 30.3672 28.925 30.3672H25.1164L25.4516 29.7273C25.6344 29.382 25.807 28.9961 25.8375 28.8641C25.8984 28.6508 25.9492 28.6406 26.8125 28.6406C27.3102 28.6406 28.1227 28.7117 28.6203 28.793ZM37.2734 32.2969C37.3953 32.4086 37.5172 32.6117 37.5578 32.7437C37.5883 32.8961 36.9484 35.5367 35.8008 39.8836L33.993 46.7695H21.6531H9.31328L7.49531 39.8836C6.32734 35.4148 5.70781 32.9164 5.74844 32.7539C5.77891 32.6219 5.91094 32.4086 6.03281 32.2969C6.25625 32.0937 6.32734 32.0937 21.6531 32.0937C36.9789 32.0937 37.05 32.0937 37.2734 32.2969ZM6.26641 41.9961C6.91641 44.4539 7.46484 46.5359 7.49531 46.6375C7.52578 46.7594 7.44453 46.8305 7.20078 46.9117C6.83516 47.0336 6.42891 47.4195 6.20547 47.8359C6.13437 47.9781 6.05312 48.5773 6.03281 49.1766L5.98203 50.2734H5.05781C3.4125 50.2734 2.49844 49.8062 1.99062 48.6992C1.54375 47.7547 1.57422 47.5922 3.33125 42.3109C4.20469 39.6805 4.94609 37.4867 4.97656 37.4258C5.01719 37.3648 5.04766 37.3648 5.05781 37.4258C5.07812 37.4867 5.61641 39.5383 6.26641 41.9961ZM39.975 42.3109C41.732 47.5922 41.7625 47.7547 41.3156 48.6992C40.8078 49.8062 39.8937 50.2734 38.2484 50.2734H37.3242L37.2734 49.1766C37.2531 48.5773 37.1719 47.9781 37.1008 47.8359C36.8773 47.4094 36.4711 47.0336 36.1055 46.9117C35.9125 46.8508 35.7805 46.7492 35.8008 46.6781C35.8211 46.6172 36.3898 44.5047 37.05 41.9758C37.7102 39.4469 38.2891 37.4156 38.3195 37.4562C38.3602 37.4969 39.1016 39.6805 39.975 42.3109ZM35.5469 49.3797L35.5164 50.2226H21.6531H7.78984L7.75937 49.3797L7.72891 48.5469H21.6531H35.5773L35.5469 49.3797Z" fill="url(#paint0_linear_7711_89)"/>
<path d="M20.3633 37.4257C17.9562 38.0757 16.7273 40.1273 17.6211 41.9757C18.6062 43.9867 21.6226 44.7992 23.9383 43.6718C24.6289 43.3367 25.3601 42.6156 25.6851 41.9757C26.782 39.7211 24.639 37.2531 21.6023 37.2836C21.2164 37.2836 20.6476 37.3547 20.3633 37.4257ZM23.0242 39.2945C24.3445 39.8734 24.6289 40.9601 23.6844 41.7726C22.0289 43.1843 18.6164 42.1687 19.1242 40.4015C19.4594 39.2336 21.5414 38.6343 23.0242 39.2945Z" fill="url(#paint1_linear_7711_89)" fill-opacity="0.5"/>
<defs>
<linearGradient id="paint0_linear_7711_89" x1="-5.30458" y1="-4.61896" x2="46.8674" y2="39.2404" gradientUnits="userSpaceOnUse">
<stop stop-color="#F3491D"/>
<stop offset="1" stop-color="#FA752F"/>
</linearGradient>
<linearGradient id="paint1_linear_7711_89" x1="16.2682" y1="36.6672" x2="23.1062" y2="45.3297" gradientUnits="userSpaceOnUse">
<stop stop-color="#F3491D"/>
<stop offset="1" stop-color="#FA752F"/>
</linearGradient>
</defs>
</svg>
