<svg width="25" height="25" viewBox="0 0 25 25" fill="none" xmlns="http://www.w3.org/2000/svg">
<path d="M6.11932 10.6421C4.47728 10.6421 3.19318 8.60232 3.19318 6.00573C3.19318 2.74436 5.23864 2.39209 6.11932 2.39209C7 2.39209 9.04546 2.74436 9.04546 6.00573C9.04546 8.608 7.76137 10.6421 6.11932 10.6421ZM6.11932 3.46595C5.65909 3.46595 4.26137 3.46595 4.26137 6.00573C4.26137 7.90345 5.13068 9.57391 6.11932 9.57391C7.10796 9.57391 7.97727 7.90913 7.97727 6.00573C7.97727 3.46595 6.57955 3.46595 6.11932 3.46595Z" fill="white"/>
<path d="M0.562497 16.2216C0.41477 16.2216 0.272724 16.1591 0.170452 16.0512C0.0681788 15.9432 0.0170424 15.7955 0.0284061 15.6478C0.35227 11.3807 3.17045 11.1648 3.73295 11.1648H3.76704C4.05682 11.1875 4.27841 11.4432 4.25568 11.733C4.23863 12.0171 4.01704 12.233 3.73863 12.233C3.72727 12.233 3.71022 12.233 3.69318 12.233C3.67045 12.233 3.65341 12.233 3.625 12.233C3.30682 12.233 1.70454 12.358 1.21022 14.8352C1.19318 14.9148 1.21022 14.9943 1.26704 15.0512C1.31818 15.1137 1.39204 15.1477 1.47159 15.1477H6.91477C7.21022 15.1477 7.44886 15.3864 7.44886 15.6818C7.44886 15.9773 7.21022 16.2159 6.91477 16.2159L0.562497 16.2216Z" fill="white"/>
<path d="M9.30682 16.2215C9.01136 16.2215 8.77273 15.9829 8.77273 15.6875V15.2897C8.77273 14.3352 9.55114 13.5568 10.5057 13.5568H13.6989C14.0625 13.5568 14.358 13.2613 14.358 12.8977C14.358 12.534 14.0625 12.2386 13.6989 12.2386H9.3125C9.01705 12.2386 8.77841 12 8.77841 11.7045C8.77841 11.409 9.01705 11.1704 9.3125 11.1704H13.6989C14.6534 11.1704 15.4318 11.9488 15.4318 12.9034C15.4318 13.8579 14.6534 14.6363 13.6989 14.6363H10.5057C10.142 14.6363 9.84659 14.9318 9.84659 15.2954V15.6931C9.84659 15.9886 9.60796 16.2272 9.3125 16.2272L9.30682 16.2215Z" fill="white"/>
<path d="M17.2841 13.0341C16.9886 13.0341 16.75 12.7955 16.75 12.5C16.75 12.2046 16.9886 11.966 17.2841 11.966H21.2727C21.4148 11.966 21.5341 11.8466 21.5341 11.7046V3.72732C21.5341 3.58527 21.4148 3.46595 21.2727 3.46595H14.892C14.8239 3.46595 14.7557 3.49436 14.7045 3.53982C14.6534 3.59095 14.625 3.65345 14.625 3.72732V5.57391C14.6136 5.608 14.608 5.63073 14.608 5.65914C14.6023 5.71027 14.5966 5.74436 14.5852 5.76709C14.5795 5.78982 14.5625 5.81823 14.5398 5.85232L14.5341 5.86368C14.517 5.89209 14.5 5.9205 14.483 5.93754C14.4659 5.96027 14.4318 5.983 14.3977 6.00573C14.375 6.02277 14.3523 6.03982 14.3352 6.06254L13.2102 6.68754C13.125 6.733 13.0739 6.82391 13.0739 6.91482C13.0739 7.00573 13.125 7.09663 13.2102 7.14209L14.3352 7.76709C14.3352 7.76709 14.3807 7.80686 14.3977 7.82391C14.4375 7.85232 14.4659 7.87504 14.483 7.89209C14.5 7.90914 14.5114 7.93754 14.5341 7.96595L14.5455 7.983C14.5625 8.01709 14.5795 8.0455 14.5909 8.06823C14.6023 8.09664 14.6023 8.12504 14.608 8.1705C14.608 8.20459 14.6193 8.22732 14.625 8.25573V9.30118C14.625 9.59664 14.3864 9.83527 14.0909 9.83527C13.7955 9.83527 13.5568 9.59664 13.5568 9.30118V8.70459C13.5568 8.608 13.5057 8.52277 13.4205 8.47732L11.4375 7.37504C11.267 7.27845 11.1648 7.10232 11.1648 6.90914C11.1648 6.71595 11.2727 6.53414 11.4432 6.44323L13.4261 5.34095C13.5114 5.2955 13.5625 5.20459 13.5625 5.11368V3.52277C13.5625 2.89777 14.125 2.39209 14.8125 2.39209H21.358C22.0455 2.39209 22.608 2.89777 22.608 3.52277V11.9035C22.608 12.5285 22.0455 13.0341 21.358 13.0341H17.2841Z" fill="white" fill-opacity="0.5"/>
<path d="M16.4886 6.65339C16.1932 6.65339 15.9545 6.41475 15.9545 6.1193C15.9545 5.82384 16.1932 5.58521 16.4886 5.58521H19.6818C19.9773 5.58521 20.2159 5.82384 20.2159 6.1193C20.2159 6.41475 19.9773 6.65339 19.6818 6.65339H16.4886Z" fill="white"/>
<path d="M16.4886 9.84089C16.1932 9.84089 15.9545 9.60225 15.9545 9.3068C15.9545 9.01134 16.1932 8.77271 16.4886 8.77271H19.6818C19.9773 8.77271 20.2159 9.01134 20.2159 9.3068C20.2159 9.60225 19.9773 9.84089 19.6818 9.84089H16.4886Z" fill="white"/>
<path d="M5.31818 25C5.02273 25 4.78409 24.7614 4.78409 24.4659C4.78409 24.1705 5.02273 23.9318 5.31818 23.9318H7.48864C7.54545 23.9318 7.60227 23.9148 7.64773 23.875C7.98295 23.6136 8.77273 22.75 8.77273 20.4773C8.77273 20.3352 8.65341 20.2159 8.51136 20.2159H1.91477C0.857954 20.2159 0 19.358 0 18.3011V18.0852C0 17.7898 0.238636 17.5511 0.534091 17.5511C0.829545 17.5511 1.06818 17.7898 1.06818 18.0852V18.3011C1.06818 18.767 1.44886 19.142 1.90909 19.142H23.0795C23.5455 19.142 23.9205 18.7614 23.9205 18.3011V1.91477C23.9205 1.44886 23.5398 1.07386 23.0795 1.07386H1.90909C1.44318 1.07386 1.06818 1.45455 1.06818 1.91477V10.108C1.06818 10.4034 0.829545 10.642 0.534091 10.642C0.238636 10.642 0 10.4034 0 10.108V1.91477C0 0.857954 0.857954 0 1.91477 0H23.0852C24.142 0 25 0.857954 25 1.91477V18.3011C25 19.358 24.142 20.2159 23.0852 20.2159H16.4886C16.3466 20.2159 16.2273 20.3352 16.2273 20.4773C16.2273 22.75 17.0114 23.608 17.3466 23.875C17.392 23.9091 17.4489 23.9318 17.5057 23.9318H19.6761C19.9716 23.9318 20.2102 24.1705 20.2102 24.4659C20.2102 24.7614 19.9716 25 19.6761 25H5.31818ZM10.1023 20.2159C9.96023 20.2159 9.84091 20.3352 9.84091 20.4773C9.84091 21.7045 9.63636 22.7386 9.22727 23.5511C9.1875 23.6307 9.19318 23.7273 9.23864 23.8068C9.28409 23.8864 9.36932 23.9318 9.46023 23.9318H15.5227C15.6136 23.9318 15.6989 23.8864 15.7443 23.8068C15.7898 23.7273 15.7955 23.6307 15.7557 23.5511C15.3523 22.7386 15.142 21.7102 15.142 20.4773C15.142 20.3352 15.0227 20.2159 14.8807 20.2159H10.1023Z" fill="white"/>
</svg>
