<svg width="35" height="36" viewBox="0 0 35 36" fill="none" xmlns="http://www.w3.org/2000/svg">
<path d="M4.45178 0.136166C3.11625 0.440018 1.91497 1.19611 1.13768 2.2278C0.692499 2.80724 0.487576 3.20295 0.233188 3.93785C0.0141326 4.55968 0.00706632 4.64448 0 5.65496C0 6.57358 0.021199 6.78557 0.162525 7.24488C0.840892 9.37891 2.43081 10.8134 4.61431 11.2444C5.97104 11.5059 7.49736 11.202 8.69157 10.4177L9.20035 10.0855L10.55 11.4423L11.8997 12.7919L11.5817 13.2159C10.9033 14.1133 10.3592 15.4418 10.2038 16.6148C10.1331 17.1448 10.1472 18.1694 10.225 18.7912C10.2462 18.9043 9.95644 19.0032 7.80828 19.5827C6.46568 19.9431 5.35627 20.2398 5.33507 20.2398C5.31387 20.2398 5.17961 20.0702 5.03828 19.8653C4.7415 19.4413 4.30339 19.1234 3.71688 18.8972C3.13745 18.6782 2.21176 18.7276 1.62525 19.0103C1.08821 19.2647 0.544106 19.8088 0.275586 20.3529C0.0918621 20.7415 0.0706632 20.8405 0.0706632 21.5188C0.0706632 22.176 0.0918621 22.3032 0.261454 22.6707C0.635969 23.4621 1.20834 23.9638 2.04217 24.2182C3.71688 24.727 5.434 23.5327 5.59652 21.745L5.63186 21.3422L7.97787 20.7133C9.26394 20.367 10.3663 20.0702 10.437 20.049C10.5217 20.0279 10.6207 20.1692 10.8327 20.6214C11.193 21.3987 11.61 21.9994 12.1823 22.6071C12.6134 23.0522 13.4331 23.7306 13.6239 23.8013C13.6804 23.8225 13.4896 24.2747 13.108 25.0449C12.6558 25.9636 12.4862 26.2462 12.4014 26.2109C12.1753 26.1261 11.5888 26.0413 11.2072 26.0413C9.83631 26.0484 8.35945 26.9528 7.75882 28.1612C6.95326 29.7723 7.22884 31.553 8.47252 32.7967C10.7055 35.0296 14.4718 33.8849 15.129 30.7757C15.4258 29.3695 14.9029 27.9139 13.7581 26.9458L13.5249 26.755L14.1044 25.6032C14.4224 24.9672 14.6909 24.4372 14.705 24.4231C14.7262 24.4019 14.9523 24.4584 15.2138 24.5432C17.4326 25.2569 19.8776 24.8683 21.7643 23.5115L22.2589 23.1582L23.6086 24.5008L24.9653 25.8505L24.6261 26.3663C23.1563 28.6134 23.5026 31.5883 25.4529 33.468C26.216 34.2029 26.9651 34.6269 28.018 34.9166C28.7175 35.1074 30.0813 35.0932 30.795 34.8883C31.862 34.5845 32.5616 34.1746 33.3389 33.4115C35.2256 31.553 35.5436 28.5852 34.095 26.3734C32.8513 24.4584 30.5477 23.4621 28.3571 23.879C27.6222 24.0203 26.7813 24.3595 26.2443 24.734L25.7921 25.052L24.4353 23.6953L23.0786 22.3385L23.2411 22.1195C24.0891 21.003 24.6544 19.618 24.8028 18.2471L24.8452 17.8444H25.142C25.3045 17.8444 26.5976 17.7949 28.018 17.7384C29.4312 17.6818 30.5901 17.6465 30.5972 17.6536C30.6396 17.8656 31.0211 18.4238 31.2826 18.657C32.1093 19.3989 33.3884 19.3848 34.2575 18.6287C34.3988 18.5015 34.6179 18.1906 34.738 17.9433C35.1691 17.0671 35.0065 16.099 34.3211 15.4206C33.134 14.2547 31.2331 14.6645 30.6325 16.2191C30.583 16.3534 30.5336 16.4735 30.5265 16.4876C30.5053 16.5088 25.6225 16.7067 25.0784 16.7137H24.7816L24.7321 16.3816C24.5767 15.3499 24.0113 14.0285 23.3612 13.1665C23.0291 12.7354 22.3225 12.0217 21.7855 11.5907L21.524 11.3787L22.061 10.4106C22.584 9.47077 22.5981 9.44957 22.7747 9.51317C22.8737 9.55557 23.1987 9.60503 23.4884 9.62623C25.4105 9.77462 27.0993 8.17764 27.0993 6.22026C27.0923 4.66567 25.9475 3.25948 24.4141 2.92736C23.9124 2.82137 23.0574 2.8779 22.5628 3.06162C20.9587 3.63399 19.9977 5.42884 20.4217 7.05409C20.5701 7.64059 20.8456 8.13524 21.2484 8.55922L21.5947 8.92666L21.093 9.83115C20.8174 10.3329 20.5701 10.7639 20.5418 10.7922C20.5135 10.8134 20.1743 10.7286 19.7857 10.6014C17.5245 9.84529 15.0159 10.2481 13.1292 11.6613L12.7194 11.9722L11.3697 10.6226L10.013 9.27291L10.338 8.77121C11.4333 7.08236 11.5605 4.99073 10.6772 3.19588C9.97764 1.76142 8.77637 0.74387 7.20764 0.249226C6.57874 0.0513687 5.10188 -0.0122261 4.45178 0.136166ZM6.70594 1.30917C8.7057 1.81795 10.1331 3.63399 10.1402 5.67616C10.1402 6.55945 9.80098 7.60526 9.26394 8.34016L9.00955 8.69348V8.41082C9.00955 7.99391 8.82583 7.35794 8.57851 6.8845C8.37359 6.49585 7.73762 5.81749 7.41963 5.63376C7.29951 5.57017 7.29244 5.53483 7.3631 5.42884C7.84361 4.73634 7.98494 4.03677 7.78002 3.33721C7.61749 2.78604 7.17231 2.249 6.64234 1.98048C6.27489 1.79675 6.15476 1.76849 5.62479 1.76849C4.91109 1.76849 4.49418 1.93101 4.0278 2.39739C3.57556 2.84963 3.3989 3.28774 3.3989 3.95905C3.39183 4.43955 3.4201 4.58088 3.58262 4.913C3.68862 5.12499 3.81581 5.35818 3.86528 5.42884C3.94301 5.53483 3.93594 5.57017 3.81581 5.63376C3.49783 5.81749 2.86186 6.49585 2.65694 6.8845C2.40961 7.35794 2.22589 7.99391 2.22589 8.41082V8.69348L1.9715 8.34016C1.61819 7.85258 1.3214 7.19542 1.20127 6.60185C0.522907 3.37254 3.51196 0.489483 6.70594 1.30917ZM6.0629 2.96269C6.79073 3.26655 6.96739 4.21343 6.40208 4.77874C5.61066 5.57723 4.31045 4.86353 4.51538 3.74706C4.64257 3.08282 5.41987 2.68711 6.0629 2.96269ZM24.6614 4.21343C25.1066 4.42542 25.5306 4.8494 25.7567 5.30165C26.004 5.80335 26.004 6.69371 25.7567 7.20955C25.5377 7.66179 25.1137 8.08577 24.6614 8.30483C24.1456 8.55215 23.2553 8.55215 22.7535 8.30483C22.3013 8.08577 21.8773 7.66179 21.6583 7.20955C21.4109 6.70784 21.4109 5.81749 21.6583 5.30165C21.955 4.69394 22.5274 4.22756 23.1775 4.05797C23.5591 3.95905 24.2799 4.03677 24.6614 4.21343ZM6.31022 6.36866C6.83313 6.53825 7.29951 6.9269 7.57509 7.42154C7.70229 7.65473 7.80828 7.86672 7.80828 7.89498C7.80828 7.93031 6.82606 7.95151 5.61772 7.95151C4.40938 7.95151 3.42716 7.93738 3.42716 7.91618C3.42716 7.90205 3.4625 7.79605 3.51196 7.69006C3.99247 6.56651 5.18668 6.00828 6.31022 6.36866ZM8.26759 9.33651C7.10165 10.1845 5.63186 10.4106 4.23272 9.97248C3.70982 9.80289 2.87599 9.34358 2.76293 9.15985C2.7276 9.10332 3.53316 9.08212 5.66719 9.08212H8.62091L8.26759 9.33651ZM18.5491 11.4423C19.8493 11.6755 20.9234 12.2408 21.8703 13.1806C23.969 15.2864 24.3011 18.4662 22.6758 20.9677C21.8491 22.2537 20.5206 23.1865 18.9307 23.6105C18.2028 23.8013 16.726 23.7942 15.9699 23.5893C13.7087 22.9745 12.0763 21.3422 11.4616 19.081C11.2425 18.2754 11.2425 16.848 11.4616 16.0424C12.1399 13.5339 14.1185 11.7815 16.7118 11.3928C17.1217 11.3292 18.0544 11.3575 18.5491 11.4423ZM33.1976 15.9647C33.9325 16.2686 34.1021 17.2013 33.5297 17.7737C33.0633 18.2401 32.4273 18.2471 31.968 17.7808C31.0918 16.9116 32.0599 15.4842 33.1976 15.9647ZM3.3141 19.9077C3.70275 20.0208 4.28926 20.6073 4.40232 20.9959C4.60017 21.6602 4.45885 22.1901 3.95714 22.6848C3.24344 23.4056 2.33895 23.4056 1.62525 22.6848C0.904489 21.9711 0.904489 21.0666 1.62525 20.3529C2.1199 19.8512 2.64987 19.7169 3.3141 19.9077ZM30.4488 25.052C31.2755 25.264 31.9256 25.6385 32.5475 26.2533C34.1232 27.822 34.314 30.2811 33.0068 32.083L32.7524 32.4363V32.1537C32.7524 31.7367 32.5687 31.1008 32.3213 30.6273C32.1164 30.2387 31.4804 29.5603 31.1625 29.3766C31.0423 29.313 31.0353 29.2777 31.1059 29.1717C31.5864 28.4792 31.7278 27.7796 31.5228 27.08C31.3603 26.5289 30.9151 25.9918 30.3852 25.7233C30.0177 25.5396 29.8976 25.5113 29.3676 25.5113C28.6398 25.5113 28.2511 25.6597 27.7918 26.1261C27.3255 26.5925 27.1417 27.0235 27.1417 27.7019C27.1347 28.1824 27.1629 28.3237 27.3255 28.6558C27.4314 28.8678 27.5586 29.101 27.6081 29.1717C27.6858 29.2777 27.6788 29.313 27.5586 29.3766C27.2407 29.5603 26.6047 30.2387 26.3998 30.6273C26.1524 31.1008 25.9687 31.7367 25.9687 32.1537V32.4363L25.7143 32.083C25.1773 31.334 24.9158 30.5991 24.8593 29.6804C24.6826 26.6631 27.5304 24.303 30.4488 25.052ZM29.8057 26.7055C30.5336 27.0094 30.7102 27.9563 30.1449 28.5216C29.6856 28.9809 29.0355 28.9809 28.5762 28.5216C27.7 27.6524 28.6681 26.225 29.8057 26.7055ZM12.4297 27.4404C13.0727 27.7372 13.4825 28.1471 13.8005 28.783C14.0478 29.2918 14.062 29.3554 14.062 29.9984C14.062 30.6415 14.0478 30.7051 13.8005 31.2138C13.4825 31.8569 13.0727 32.2526 12.4155 32.5635C11.9845 32.7684 11.8785 32.7896 11.2708 32.7896C10.6631 32.7896 10.5571 32.7684 10.126 32.5635C9.46887 32.2526 9.05902 31.8569 8.74104 31.2138C8.49371 30.7051 8.47958 30.6415 8.47958 30.0055C8.47958 29.3907 8.50078 29.2847 8.7057 28.8537C8.98836 28.253 9.39114 27.8149 9.92111 27.5393C10.4723 27.2426 10.7832 27.1719 11.4262 27.2002C11.8573 27.2214 12.0763 27.2779 12.4297 27.4404ZM30.053 30.1115C30.576 30.2811 31.0423 30.6697 31.3179 31.1644C31.4451 31.3976 31.5511 31.6095 31.5511 31.6378C31.5511 31.6731 30.5689 31.6943 29.3605 31.6943C28.1593 31.6943 27.17 31.6802 27.17 31.659C27.17 31.6449 27.2053 31.5389 27.2548 31.4329C27.7353 30.3093 28.9295 29.7511 30.053 30.1115ZM32.0104 33.0793C31.2755 33.6093 30.2297 33.9556 29.3535 33.9556C28.4843 33.9556 27.2407 33.5316 26.6754 33.044L26.428 32.832L29.3959 32.825H32.3637L32.0104 33.0793Z" fill="url(#paint0_linear_7712_95)"/>
<path d="M16.5846 12.6081C16.09 12.7918 15.8144 12.9684 15.4682 13.3359C15.0936 13.7316 14.917 14.0354 14.7686 14.5584C14.4577 15.6324 14.917 16.9326 15.8356 17.5686L16.1465 17.7806L15.659 18.0279C14.493 18.6074 13.6662 19.8581 13.5532 21.2007C13.5179 21.6883 13.5249 21.7236 13.6945 21.9003L13.8782 22.084H17.4891H21.1L21.2837 21.9003C21.4533 21.7236 21.4604 21.6883 21.4251 21.2007C21.3756 20.6425 21.1565 19.957 20.8598 19.4482C20.5559 18.9395 19.8775 18.3035 19.3264 18.0279L18.8317 17.7806L19.1426 17.5686C20.2874 16.7772 20.6478 15.0883 19.927 13.8517C19.6726 13.4207 19.1073 12.919 18.6339 12.6999C18.0827 12.4455 17.1358 12.4031 16.5846 12.6081ZM18.012 13.6892C18.6197 13.8729 19.185 14.6502 19.185 15.3003C19.185 16.1765 18.3654 16.9962 17.4891 16.9962C16.6129 16.9962 15.7932 16.1765 15.7932 15.3003C15.7932 14.8551 15.9557 14.4948 16.3232 14.1344C16.8178 13.6327 17.3478 13.4984 18.012 13.6892ZM18.648 18.9607C19.2698 19.2504 19.6938 19.6673 19.9977 20.2679C20.1319 20.5365 20.245 20.805 20.245 20.8544C20.245 20.9392 19.7715 20.9534 17.4891 20.9534C15.2067 20.9534 14.7333 20.9392 14.7333 20.8544C14.7333 20.6283 15.2491 19.7521 15.5388 19.4836C15.878 19.1656 16.4221 18.8688 16.832 18.7628C17.3337 18.6356 18.1463 18.7275 18.648 18.9607Z" fill="url(#paint1_linear_7712_95)"/>
<defs>
<linearGradient id="paint0_linear_7712_95" x1="-4.29502" y1="-3.07009" x2="31.3603" y2="32.9761" gradientUnits="userSpaceOnUse">
<stop stop-color="#F3491D"/>
<stop offset="1" stop-color="#FA752F"/>
</linearGradient>
<linearGradient id="paint1_linear_7712_95" x1="12.5659" y1="11.6204" x2="22.1899" y2="19.6275" gradientUnits="userSpaceOnUse">
<stop stop-color="#F3491D"/>
<stop offset="1" stop-color="#FA752F"/>
</linearGradient>
</defs>
</svg>
