<svg width="49" height="52" viewBox="0 0 49 52" fill="none" xmlns="http://www.w3.org/2000/svg">
<path d="M38.7072 0.648294C36.9683 0.949831 35.4305 1.72377 34.1439 2.95002C32.8976 4.13606 32.1036 5.47287 31.6613 7.12127C31.4 8.08619 31.3497 10.0864 31.5608 11.0412C32.2945 14.3983 35.0084 17.0921 38.3353 17.7856C39.26 17.9766 40.9687 17.9766 41.8733 17.7856C44.758 17.1725 47.11 15.1924 48.1855 12.4886C49.0599 10.2874 48.9996 7.74445 48.0146 5.60354L47.6628 4.85975L47.0296 5.22159C46.6778 5.43267 46.3863 5.60354 46.3662 5.61359C46.3562 5.62364 46.4768 5.92518 46.6376 6.27697C47.11 7.29214 47.2909 8.09624 47.2809 9.28228C47.2708 11.5136 46.326 13.4937 44.6073 14.8607C43.2805 15.9161 41.8231 16.4287 40.1244 16.4287C38.9082 16.4287 37.9936 16.2277 36.9482 15.7151C33.1891 13.8757 31.7819 9.20187 33.9027 5.58344C34.355 4.80949 35.6918 3.48273 36.4959 3.02038C39.2399 1.43229 42.8181 1.86449 45.0998 4.07576C45.5722 4.52806 45.5621 4.52806 46.2456 3.92499L46.6879 3.55309L46.2356 3.09074C45.2807 2.09567 43.9338 1.32173 42.4563 0.879473C41.4612 0.587988 39.6721 0.477425 38.7072 0.648294Z" fill="url(#paint0_linear_7525_245)" fill-opacity="0.5"/>
<path d="M9.58885 1.38212C7.90025 3.14108 7.07605 4.92014 7.16651 6.6188C7.22682 7.60382 7.5183 8.23704 8.20179 8.87027C8.87522 9.49344 9.45819 9.72462 10.3527 9.73467H11.0865L11.0262 10.2372C10.996 10.5086 10.9659 11.4032 10.9659 12.2173V13.7049H10.3527C9.50844 13.7049 9.02599 13.8657 8.49327 14.3381C7.36754 15.3332 7.24692 16.8911 8.21184 18.0169C8.72445 18.6099 9.25716 18.8511 10.1718 18.9114L10.9357 18.9516L11.0463 19.9266C11.2373 21.7358 11.9107 23.1229 13.157 24.2587L13.8104 24.8617L13.3179 25.3643C12.6746 26.0277 12.1419 26.9122 11.9107 27.7163L11.7298 28.3596L9.15665 28.3998L6.59359 28.44L5.63873 28.7616C4.44263 29.1737 3.50787 29.7265 2.66357 30.5206C1.52778 31.586 0.83425 32.7017 0.341741 34.2797L0.0603072 35.1642L0.0301536 43.5771L0 52H19.0571H38.1142L38.084 43.5268L38.0438 35.0637L37.8227 34.3099C37.3905 32.9228 36.7573 31.8473 35.7421 30.8322C34.6867 29.7567 33.7922 29.2039 32.4554 28.7516C31.5306 28.45 31.5005 28.44 28.9475 28.3998L26.3643 28.3596L26.304 27.9776C26.2035 27.3645 25.4899 26.0578 24.9069 25.4347L24.3641 24.8517L25.1783 24.0275C26.3844 22.8113 26.9372 21.585 27.0981 19.7256L27.1684 18.9516L27.9424 18.9114C28.8168 18.8712 29.3194 18.6702 29.842 18.1475C30.3446 17.6349 30.5657 17.0922 30.5657 16.3082C30.5657 14.7703 29.4902 13.715 27.8921 13.7049H27.1684L27.1182 11.7148C27.088 10.3679 27.0176 9.5638 26.9171 9.19191C26.7362 8.58883 26.3442 7.74453 26.0527 7.38269L25.8618 7.13141L25.329 7.56361C25.0275 7.80484 24.7863 8.02597 24.7863 8.05612C24.7863 8.09632 24.937 8.41796 25.1079 8.77981C25.4296 9.41303 25.6406 10.2272 25.6406 10.8001V11.0916H23.2283C21.0673 11.0916 20.7457 11.0715 20.2431 10.8906C18.5746 10.3076 17.4992 8.93058 17.3383 7.16156L17.268 6.45798L19.8712 6.48813L22.4846 6.51828L23.1178 6.82987L23.741 7.14146L24.143 6.55849C24.3541 6.23685 24.535 5.95542 24.535 5.92526C24.535 5.89511 24.2636 5.73429 23.9319 5.56342C22.8162 5.00055 22.4846 4.96035 19.0571 4.96035C15.6899 4.96035 15.2778 5.0106 14.2828 5.51316C14.0114 5.65388 13.7702 5.76445 13.7501 5.76445C13.7199 5.76445 13.6797 5.58352 13.6395 5.35234C13.539 4.69902 13.1269 3.80446 12.5339 2.89985C11.9609 2.05555 10.6543 0.638329 10.4332 0.638329C10.3728 0.638329 9.9909 0.97002 9.58885 1.38212ZM11.4785 4.02559C11.9207 4.75932 12.2625 5.7946 12.2725 6.36752C12.2826 7.8752 10.6643 8.76976 9.45819 7.94556C8.90537 7.57366 8.7144 7.24197 8.67419 6.52834C8.60383 5.49306 9.1466 4.19646 10.1517 2.98026L10.4131 2.65862L10.7749 3.06067C10.9659 3.2818 11.2875 3.714 11.4785 4.02559ZM15.7904 7.00074C15.7904 7.55356 16.1121 8.84011 16.3835 9.37283C16.5041 9.59396 16.5945 9.79498 16.5945 9.82513C16.5945 9.84523 16.3433 10.0362 16.0216 10.2473C15.2376 10.7699 14.1622 11.0916 13.2073 11.0916H12.4534L12.5238 10.4081C12.6947 8.7597 13.6395 7.42289 15.0969 6.77962C15.7402 6.48813 15.7904 6.50824 15.7904 7.00074ZM18.6349 11.8354C18.7958 11.9359 19.228 12.1269 19.5898 12.2776C20.2431 12.5289 20.3436 12.539 22.9268 12.5993L25.5904 12.6495V16.4187C25.5904 20.0573 25.5803 20.2181 25.3592 20.9116C24.6054 23.334 22.2534 24.7713 19.047 24.7713C15.8809 24.7813 13.5088 23.3239 12.7449 20.9016C12.5339 20.2181 12.5238 20.0372 12.5238 16.4187V12.6495L13.4787 12.5892C14.9059 12.4988 16.1221 12.0766 17.1474 11.3127L17.5394 11.0112L17.9515 11.3328C18.1726 11.5137 18.4842 11.7349 18.6349 11.8354ZM10.9659 16.3182V17.4238H10.4432C10.1015 17.4238 9.79993 17.3535 9.5989 17.2329C8.96568 16.8509 8.89532 15.9463 9.46824 15.4739C9.71952 15.2528 9.88034 15.2126 10.3728 15.2126H10.9659V16.3182ZM28.4851 15.3231C28.8671 15.5141 29.058 15.8358 29.058 16.2981C29.058 16.67 28.9977 16.8007 28.7163 17.0821C28.4047 17.3937 28.3243 17.4238 27.7614 17.4238H27.1483V16.3182V15.2126H27.7112C28.0127 15.2126 28.3645 15.2628 28.4851 15.3231ZM17.0971 26.1282C18.0721 26.3292 20.012 26.3292 21.0673 26.1282C21.5096 26.0377 21.8815 25.9674 21.9016 25.9674C21.9116 25.9674 21.9217 26.7815 21.9217 27.7665V29.5657L21.59 30.008C21.1779 30.5407 20.2532 31.2945 19.5597 31.6564L19.037 31.9277L18.4942 31.6162C17.6399 31.1236 16.8056 30.4201 16.484 29.9074L16.1925 29.4451V27.7062C16.1925 26.7514 16.2227 25.9674 16.2729 25.9674C16.3131 25.9674 16.685 26.0377 17.0971 26.1282ZM14.9662 30.2994C15.2477 30.8824 15.7603 31.4754 16.4639 32.0484C16.7654 32.2996 16.9966 32.5007 16.9664 32.5007C16.9363 32.5007 16.1221 32.6816 15.1472 32.9027C14.1823 33.1238 13.338 33.3048 13.2776 33.3048C13.1972 33.3048 13.1671 32.5911 13.1972 30.8121L13.2274 28.3294L13.539 27.666C13.7199 27.2941 14.0315 26.8016 14.2426 26.5704L14.6346 26.1382L14.6848 27.9877C14.725 29.6461 14.7552 29.8873 14.9662 30.2994ZM24.6556 27.7464C24.8767 28.2892 24.8868 28.4802 24.9169 30.8121C24.937 32.4102 24.9069 33.3048 24.8466 33.3048C24.7662 33.3048 23.1982 32.953 21.4292 32.5509C21.2181 32.4906 21.2583 32.4303 22.0021 31.7368C22.575 31.2041 22.9067 30.8121 23.1178 30.3698L23.4294 29.7567V27.9374L23.4394 26.1181L23.9319 26.6408C24.2134 26.9423 24.5149 27.4147 24.6556 27.7464ZM11.6695 32.5509C11.6695 34.6215 11.6996 35.2145 11.8001 35.2145C11.8604 35.2044 12.8655 34.9833 14.0315 34.7119C15.1874 34.4506 16.1523 34.2395 16.1724 34.2596C16.2227 34.3099 16.7956 36.9232 16.7956 37.0941C16.7956 37.2046 15.7904 37.2247 11.5187 37.2247H6.2418V40.0391V42.8534H6.99564H7.74948V40.7929V38.7324H19.0571H30.3647V44.6124V50.4923H19.0571H7.74948V47.4267V44.3611H6.99564H6.2418V47.4267V50.4923H3.87977H1.51773V43.4163C1.51773 38.8932 1.55794 36.0487 1.6283 35.5562C1.91978 33.4153 3.27669 31.5257 5.18642 30.5809C6.36241 29.9979 6.95544 29.9074 9.48834 29.8974L11.6695 29.8873V32.5509ZM31.6111 30.0884C32.8071 30.3899 33.7118 30.9126 34.6365 31.8473C35.5009 32.7117 35.913 33.3852 36.305 34.5612L36.5462 35.2647L36.5763 42.8836L36.6065 50.4923H34.2344H31.8724V43.8585V37.2247H26.5955C22.4443 37.2247 21.3186 37.1946 21.3186 37.0941C21.3287 36.9031 21.8915 34.3099 21.9418 34.2596C21.9619 34.2395 22.9469 34.4405 24.133 34.7119C25.3089 34.9934 26.3141 35.2145 26.3643 35.2145C26.4045 35.2145 26.4447 34.0184 26.4447 32.5509V29.8873H28.6359C30.4954 29.8873 30.9577 29.9175 31.6111 30.0884ZM19.8411 33.7169C20.1527 33.7872 20.414 33.8877 20.414 33.948C20.414 34.0083 20.2632 34.7622 20.0823 35.6165L19.7506 37.1745H19.0571H18.3636L18.0419 35.6165C17.861 34.7622 17.7102 34.0083 17.7002 33.948C17.7002 33.8375 18.4339 33.6465 18.9666 33.6163C19.1375 33.6163 19.5295 33.6565 19.8411 33.7169Z" fill="url(#paint1_linear_7525_245)"/>
<path d="M15.0869 16.67V17.4238H15.8407H16.5945V16.67V15.9161H15.8407H15.0869V16.67Z" fill="url(#paint2_linear_7525_245)"/>
<path d="M21.1176 16.67V17.4238H21.8714H22.6253V16.67V15.9161H21.8714H21.1176V16.67Z" fill="url(#paint3_linear_7525_245)"/>
<path d="M18.0922 42.1899C16.8358 42.6322 16.102 43.6675 16.092 44.9741C16.092 46.2406 16.675 47.2055 17.7806 47.7483C19.2682 48.482 21.1578 47.7784 21.8312 46.2305C22.6856 44.2806 21.2282 42.0392 19.1174 42.0492C18.7556 42.0593 18.2932 42.1196 18.0922 42.1899ZM19.8712 43.7579C20.3235 44.0394 20.6552 44.753 20.5648 45.2455C20.4341 45.9792 19.7406 46.5723 19.037 46.5723C18.6349 46.5723 18.0922 46.2506 17.8308 45.8687C17.5193 45.4164 17.5092 44.6022 17.8208 44.2102C18.3334 43.5569 19.2179 43.3559 19.8712 43.7579Z" fill="url(#paint4_linear_7525_245)"/>
<path d="M39.5012 3.65377C38.0338 3.90505 36.7573 5.25191 36.6165 6.68923L36.5663 7.18174L37.3 7.15159L38.0338 7.12144L38.1544 6.62893C38.5162 5.22176 40.3958 4.64884 41.4411 5.62381C42.1447 6.28718 42.2955 7.18174 41.8633 8.0562C41.5115 8.76983 40.9587 9.09147 40.0038 9.16183L39.3002 9.21209L39.3304 10.4785L39.3605 11.745L40.0943 11.7751L40.818 11.8053V11.2123V10.6193L41.421 10.3981C42.1749 10.1167 42.9388 9.40306 43.3107 8.60901C43.6725 7.82502 43.7026 6.47816 43.3609 5.74442C42.9086 4.7594 41.803 3.86484 40.8582 3.70402C40.1043 3.58341 39.9636 3.57336 39.5012 3.65377Z" fill="url(#paint5_linear_7525_245)"/>
<path d="M39.3304 14.0266L39.3605 14.7604L40.0943 14.7905L40.8179 14.8207V14.0568V13.3029H40.0641H39.3002L39.3304 14.0266Z" fill="url(#paint6_linear_7525_245)"/>
<defs>
<linearGradient id="paint0_linear_7525_245" x1="29.2978" y1="-0.982678" x2="46.9858" y2="16.9071" gradientUnits="userSpaceOnUse">
<stop stop-color="#F3491D"/>
<stop offset="1" stop-color="#FA752F"/>
</linearGradient>
<linearGradient id="paint1_linear_7525_245" x1="-4.67718" y1="-3.94745" x2="45.5635" y2="33.74" gradientUnits="userSpaceOnUse">
<stop stop-color="#F3491D"/>
<stop offset="1" stop-color="#FA752F"/>
</linearGradient>
<linearGradient id="paint2_linear_7525_245" x1="14.9018" y1="15.7815" x2="16.4379" y2="17.3343" gradientUnits="userSpaceOnUse">
<stop stop-color="#F3491D"/>
<stop offset="1" stop-color="#FA752F"/>
</linearGradient>
<linearGradient id="paint3_linear_7525_245" x1="20.9326" y1="15.7815" x2="22.4686" y2="17.3343" gradientUnits="userSpaceOnUse">
<stop stop-color="#F3491D"/>
<stop offset="1" stop-color="#FA752F"/>
</linearGradient>
<linearGradient id="paint4_linear_7525_245" x1="15.3572" y1="41.5143" x2="21.4607" y2="47.681" gradientUnits="userSpaceOnUse">
<stop stop-color="#F3491D"/>
<stop offset="1" stop-color="#FA752F"/>
</linearGradient>
<linearGradient id="paint5_linear_7525_245" x1="35.7031" y1="2.86937" x2="43.9768" y2="10.0408" gradientUnits="userSpaceOnUse">
<stop stop-color="#F3491D"/>
<stop offset="1" stop-color="#FA752F"/>
</linearGradient>
<linearGradient id="paint6_linear_7525_245" x1="39.114" y1="13.1674" x2="40.6603" y2="14.7305" gradientUnits="userSpaceOnUse">
<stop stop-color="#F3491D"/>
<stop offset="1" stop-color="#FA752F"/>
</linearGradient>
</defs>
</svg>
