<svg width="58" height="58" viewBox="0 0 58 58" fill="none" xmlns="http://www.w3.org/2000/svg">
<circle cx="29" cy="29" r="29" fill="white"/>
<path d="M21.75 42.05L42.05 29L21.75 15.95V42.05ZM29 58C24.9883 58 21.2183 57.2383 17.69 55.7148C14.1617 54.1933 11.0925 52.1275 8.4825 49.5175C5.8725 46.9075 3.80673 43.8383 2.2852 40.31C0.761734 36.7817 0 33.0117 0 29C0 24.9883 0.761734 21.2183 2.2852 17.69C3.80673 14.1617 5.8725 11.0925 8.4825 8.4825C11.0925 5.8725 14.1617 3.80577 17.69 2.2823C21.2183 0.760767 24.9883 0 29 0C33.0117 0 36.7817 0.760767 40.31 2.2823C43.8383 3.80577 46.9075 5.8725 49.5175 8.4825C52.1275 11.0925 54.1933 14.1617 55.7148 17.69C57.2383 21.2183 58 24.9883 58 29C58 33.0117 57.2383 36.7817 55.7148 40.31C54.1933 43.8383 52.1275 46.9075 49.5175 49.5175C46.9075 52.1275 43.8383 54.1933 40.31 55.7148C36.7817 57.2383 33.0117 58 29 58Z" fill="#F3491D"/>
</svg>
