<svg width="46" height="37" viewBox="0 0 46 37" fill="none" xmlns="http://www.w3.org/2000/svg">
<path d="M9.55434 0C6.92965 0 4.98741 2.2973 5.07438 4.78867C5.15793 7.18211 5.0494 10.2823 4.26902 12.8103C3.4863 15.3457 2.16236 16.9517 0 17.158V19.486C2.16236 19.6923 3.4863 21.2984 4.26902 23.8339C5.0494 26.362 5.15793 29.4617 5.07438 31.8554C4.98741 34.3464 6.92965 36.644 9.5547 36.644H36.4491C39.0739 36.644 41.0156 34.3467 40.9287 31.8554C40.8453 29.4619 40.9537 26.362 41.734 23.8339C42.5173 21.2985 43.8376 19.6921 46 19.486V17.158C43.8376 16.9517 42.5173 15.3457 41.7342 12.8103C40.9537 10.2826 40.8453 7.18229 40.9287 4.78867C41.0156 2.29766 39.0739 0 36.4491 0H9.55434ZM31.1866 22.5567C31.1866 25.9873 28.6278 28.0677 24.3814 28.0677H17.1526C16.9459 28.0677 16.7476 27.9855 16.6014 27.8393C16.4552 27.6931 16.3731 27.4948 16.3731 27.2881V9.35597C16.3731 9.25357 16.3932 9.15216 16.4324 9.05755C16.4716 8.96294 16.529 8.87696 16.6014 8.80455C16.6738 8.73213 16.7598 8.67468 16.8544 8.63549C16.949 8.5963 17.0504 8.57613 17.1528 8.57613H24.3401C27.8809 8.57613 30.2046 10.4943 30.2046 13.439C30.2046 15.506 28.6413 17.3564 26.6498 17.6804V17.7883C29.3611 18.0857 31.1866 19.9633 31.1866 22.5567ZM23.593 11.0477H19.4715V16.8696H22.943C25.6265 16.8696 27.1064 15.789 27.1064 13.8573C27.1064 12.0473 25.8337 11.0477 23.593 11.0477ZM19.4715 19.1797V25.5954H23.7448C26.5386 25.5954 28.0189 24.4743 28.0189 22.3673C28.0189 20.2599 26.4974 19.1793 23.5651 19.1793L19.4715 19.1797Z" fill="#7E13F8"/>
</svg>
