<svg width="46" height="53" viewBox="0 0 46 53" fill="none" xmlns="http://www.w3.org/2000/svg">
<path d="M4.18487 46.9559L0 0H46L41.8095 46.9484L22.9721 52.1711L4.18487 46.9559Z" fill="#1572B6"/>
<path d="M23 48.1802L38.2228 43.9599L41.804 3.84033H23V48.1802Z" fill="#33A9DC"/>
<path d="M23 20.8518H30.6207L31.1461 14.9546H23V9.19531H37.4402L37.3023 10.7399L35.8881 26.6111H23V20.8518Z" fill="white"/>
<path d="M23.0354 35.808L23.0093 35.8155L16.596 34.0827L16.1861 29.4897H10.4044L11.2112 38.5321L23.0075 41.8077L23.0354 41.8003V35.808Z" fill="#EBEBEB"/>
<path d="M30.1307 26.3667L29.4375 34.0787L23.0149 35.8115V41.8038L34.8205 38.5319L34.908 37.5593L35.9086 26.3667H30.1307Z" fill="white"/>
<path d="M23.0205 9.19531V14.9546H9.10944L8.99392 13.6597L8.7312 10.7399L8.59332 9.19531H23.0205ZM23 20.8518V26.6111H16.6668L16.5513 25.3162L16.2904 22.3965L16.1525 20.8518H23Z" fill="#EBEBEB"/>
</svg>
