<svg width="47" height="53" viewBox="0 0 47 53" fill="none" xmlns="http://www.w3.org/2000/svg">
<path d="M4.84139 46.9521L0.654999 0H46.655L42.463 46.9446L23.6271 52.1669L4.84139 46.9521Z" fill="#E44F26"/>
<path d="M23.655 48.1761L38.8766 43.9562L42.4574 3.83984H23.655V48.1761Z" fill="#F1662A"/>
<path d="M23.655 21.2522H16.0349L15.5095 15.3555H23.655V9.59668H9.21596L9.35383 11.1431L10.7679 27.0111H23.655V21.2522ZM23.655 36.2074L23.6289 36.2148L17.2161 34.484L16.8062 29.8915H11.025L11.8318 38.9312L23.6289 42.2066L23.655 42.1991V36.2074Z" fill="#EBEBEB"/>
<path d="M23.6345 21.2522V27.0111H30.7255L30.0585 34.4803L23.6345 36.213V42.2047L35.441 38.9312L35.5267 37.9587L36.8793 22.7986L37.0209 21.2522H23.6345ZM23.6345 9.59668V15.3555H37.5444L37.6599 14.0625L37.9226 11.1431L38.0605 9.59668H23.6345Z" fill="white"/>
</svg>
