<svg width="46" height="32" viewBox="0 0 46 32" fill="none" xmlns="http://www.w3.org/2000/svg">
<path d="M28.5061 22.3779C29.1007 23.5567 30.0233 24.5476 31.1678 25.2366C32.3123 25.9256 33.6323 26.2849 34.9762 26.273C37.6939 26.273 39.4302 24.944 39.4302 23.1089C39.4302 20.9102 37.6459 20.1304 34.6562 18.8501L33.0157 18.1622C28.2838 16.1903 25.1388 13.7197 25.1388 8.49745C25.1388 3.6857 28.8875 0.024866 34.7444 0.024866C36.6452 -0.110038 38.5446 0.306107 40.205 1.22127C41.8654 2.13644 43.2131 3.51002 44.0797 5.17028L38.9722 8.37749C38.6377 7.55478 38.0553 6.85108 37.3022 6.3599C36.549 5.86873 35.6609 5.61333 34.7559 5.62764C34.3613 5.58882 33.9629 5.63083 33.5859 5.751C33.2089 5.87116 32.8617 6.06685 32.5663 6.32557C32.271 6.5843 32.034 6.90038 31.8704 7.25367C31.7069 7.60696 31.6205 7.9897 31.6166 8.37749C31.6166 10.3026 32.8355 11.0805 35.6413 12.2726L37.2818 12.9587C42.855 15.2961 46 17.6786 46 23.0358C46 28.811 41.3621 31.9751 35.1315 31.9751C32.7046 32.1261 30.2848 31.587 28.1642 30.4229C26.0435 29.2588 24.3126 27.5194 23.1801 25.4145L28.5061 22.3779ZM5.33939 22.9402C6.37047 24.7285 7.30764 26.2393 9.5557 26.2393C11.7099 26.2393 13.0706 25.4145 13.0706 22.2092V0.399759H19.6289V22.2991C19.6289 28.9404 15.6464 31.9639 9.83551 31.9639C7.78292 32.0726 5.74476 31.571 3.9892 30.5251C2.23364 29.4792 0.842918 27.938 0 26.1043L5.33939 22.9402Z" fill="#F5DE19"/>
</svg>
