<svg width="46" height="40" viewBox="0 0 46 40" fill="none" xmlns="http://www.w3.org/2000/svg">
<path d="M38.7714 27.1522C38.9657 27.0406 39.1273 26.8799 39.2399 26.6861C39.3525 26.4923 39.4121 26.2723 39.4128 26.0482L39.4358 18.6535C39.4365 18.4294 39.4962 18.2094 39.6087 18.0156C39.7213 17.8217 39.8829 17.661 40.0773 17.5493L44.0858 15.2468C44.2801 15.1352 44.5003 15.0767 44.7243 15.077C44.9483 15.0774 45.1683 15.1367 45.3622 15.2489C45.5562 15.3611 45.7172 15.5223 45.8291 15.7164C45.941 15.9105 46 16.1306 46 16.3546V29.7985C46 30.0232 45.9407 30.2441 45.8281 30.4386C45.7154 30.6331 45.5535 30.7945 45.3585 30.9064L30.2306 39.5956C30.0374 39.7065 29.8184 39.765 29.5956 39.7653C29.3727 39.7655 29.1537 39.7074 28.9602 39.5968L17.0883 32.8064C16.8927 32.6947 16.7301 32.5334 16.617 32.3386C16.5038 32.1438 16.4442 31.9226 16.4441 31.6974V24.9185C16.4441 24.911 16.4531 24.9059 16.4608 24.9095C16.4671 24.9135 16.4761 24.9095 16.4761 24.9005V24.893C16.4761 24.888 16.4786 24.8827 16.4838 24.8802L26.2617 19.263C26.2707 19.2578 26.2667 19.2438 26.2565 19.2438C26.2538 19.2438 26.2512 19.2427 26.2492 19.2408C26.2473 19.2389 26.2462 19.2363 26.2462 19.2336L26.2655 12.5876C26.2664 12.3629 26.208 12.1419 26.0962 11.9469C25.9844 11.7519 25.8232 11.5899 25.6288 11.4771C25.4344 11.3644 25.2137 11.3049 24.9889 11.3047C24.7642 11.3044 24.5434 11.3635 24.3487 11.4759L17.0818 15.6635C16.8879 15.7752 16.668 15.834 16.4442 15.834C16.2204 15.834 16.0005 15.7752 15.8066 15.6635L8.51665 11.466C8.32244 11.3542 8.10223 11.2954 7.87811 11.2955C7.65399 11.2957 7.43386 11.3547 7.23979 11.4669C7.04573 11.579 6.88456 11.7401 6.77247 11.9342C6.66038 12.1283 6.60131 12.3484 6.60118 12.5725V24.5839C6.60135 24.8078 6.54269 25.0278 6.43109 25.2219C6.31949 25.4159 6.15885 25.5773 5.96527 25.6897C5.77169 25.8022 5.55196 25.8618 5.32809 25.8626C5.10422 25.8635 4.88406 25.8054 4.68967 25.6944L0.644001 23.3811C0.448098 23.2692 0.285316 23.1074 0.172202 22.9122C0.0590871 22.717 -0.000326147 22.4953 1.34659e-06 22.2697L0.0359388 1.27505C0.036512 1.05131 0.0958266 0.831635 0.207949 0.638012C0.320071 0.444389 0.481071 0.283602 0.674841 0.171735C0.868612 0.0598675 1.08836 0.000842698 1.3121 0.00056457C1.53585 0.000286442 1.75574 0.0587648 1.94979 0.17015L15.8078 8.12923C16.0015 8.24044 16.2209 8.29897 16.4442 8.29897C16.6675 8.29897 16.8869 8.24044 17.0806 8.12923L30.9345 0.16979C31.1288 0.0581427 31.3491 -0.000412687 31.5733 2.18936e-06C31.7974 0.000417066 32.0175 0.0597876 32.2115 0.172154C32.4054 0.28452 32.5664 0.445929 32.6782 0.640176C32.7901 0.834424 32.8489 1.05468 32.8487 1.27882V22.2784C32.8488 22.503 32.7897 22.7237 32.6773 22.9182C32.565 23.1127 32.4033 23.2742 32.2086 23.3863L24.9532 27.5648C24.7583 27.6771 24.5965 27.8389 24.4842 28.0338C24.3719 28.2287 24.313 28.4498 24.3135 28.6747C24.314 28.8997 24.3739 29.1205 24.4871 29.3149C24.6003 29.5093 24.7628 29.6703 24.9582 29.7817L28.9604 32.0602C29.1538 32.1703 29.3726 32.2279 29.5952 32.2274C29.8177 32.227 30.0362 32.1684 30.2292 32.0575L38.7715 27.152L38.7714 27.1522ZM39.6109 8.31467C39.611 8.54066 39.6711 8.76256 39.785 8.95775C39.8989 9.15293 40.0626 9.31442 40.2592 9.42574C40.4559 9.53705 40.6786 9.59421 40.9046 9.59139C41.1305 9.58857 41.3517 9.52587 41.5455 9.40968L45.379 7.10968C45.5682 6.99629 45.7249 6.83585 45.8337 6.64395C45.9425 6.45206 45.9998 6.23527 46 6.01467V1.32752C45.9996 1.10163 45.9394 0.879888 45.8254 0.684877C45.7114 0.489866 45.5477 0.32856 45.3511 0.217393C45.1544 0.106227 44.9318 0.049175 44.706 0.0520499C44.4801 0.0549248 44.259 0.117624 44.0653 0.233759L40.232 2.53376C40.0427 2.64714 39.886 2.80761 39.7772 2.99953C39.6683 3.19146 39.611 3.40831 39.6109 3.62895V8.31592V8.31467Z" fill="#007FFF"/>
</svg>
