<svg width="47" height="52" viewBox="0 0 47 52" fill="none" xmlns="http://www.w3.org/2000/svg">
<path d="M23.585 51.8725C22.8852 51.8728 22.1977 51.6887 21.5916 51.3389L15.2483 47.5837C14.3016 47.0539 14.7629 46.8668 15.076 46.7575C16.0828 46.4464 17.0469 46.0108 17.9457 45.4606C18.0209 45.4258 18.1038 45.4108 18.1864 45.417C18.2691 45.4231 18.3488 45.4503 18.4181 45.4958L23.2923 48.3915C23.383 48.4395 23.4841 48.4646 23.5868 48.4646C23.6895 48.4646 23.7906 48.4395 23.8814 48.3915L42.889 37.4204C42.978 37.3671 43.0516 37.2916 43.1025 37.2013C43.1535 37.111 43.1802 37.009 43.1799 36.9054V14.9595C43.1799 14.8542 43.1529 14.7506 43.1013 14.6588C43.0497 14.5669 42.9753 14.4899 42.8853 14.4352L23.8777 3.47339C23.788 3.42291 23.6869 3.39639 23.584 3.39639C23.4812 3.39639 23.38 3.42291 23.2904 3.47339L4.29387 14.4389C4.20326 14.4925 4.12802 14.5686 4.07544 14.6598C4.02286 14.751 3.99472 14.8542 3.99375 14.9595V36.8961C3.99401 36.9995 4.02177 37.1011 4.07418 37.1903C4.12659 37.2795 4.20177 37.3531 4.29202 37.4037L9.50523 40.4123C12.3304 41.824 14.0608 40.1604 14.0608 38.4893V16.8306C14.0608 16.6832 14.1193 16.5418 14.2235 16.4376C14.3278 16.3334 14.4691 16.2748 14.6165 16.2748H17.0249C17.1723 16.2748 17.3137 16.3334 17.4179 16.4376C17.5221 16.5418 17.5807 16.6832 17.5807 16.8306V38.4912C17.5807 42.2612 15.528 44.4195 11.9525 44.4195C10.41 44.4464 8.89167 44.0338 7.57482 43.2301L2.57837 40.3642C1.97181 40.0109 1.46851 39.5048 1.11872 38.8962C0.768934 38.2877 0.584894 37.598 0.584974 36.8961V14.9595C0.583171 14.2565 0.766433 13.5654 1.11634 12.9556C1.46625 12.3459 1.97048 11.839 2.57837 11.4859L21.5879 0.511085C22.2002 0.176075 22.887 0.000488281 23.585 0.000488281C24.283 0.000488281 24.9697 0.176075 25.5821 0.511085L44.5897 11.4859C45.1962 11.8384 45.6996 12.3438 46.0497 12.9517C46.3998 13.5596 46.5844 14.2487 46.585 14.9502V36.8961C46.5839 37.598 46.3992 38.2874 46.0492 38.8958C45.6992 39.5042 45.196 40.0104 44.5897 40.3642L25.5821 51.3389C24.9749 51.6893 24.286 51.8733 23.585 51.8725Z" fill="#83CD29"/>
<path d="M19.9797 29.5541C19.9797 29.4067 20.0383 29.2653 20.1425 29.1611C20.2467 29.0569 20.3881 28.9983 20.5355 28.9983H22.9939C23.1253 28.9987 23.2522 29.0457 23.3523 29.1308C23.4523 29.2159 23.519 29.3337 23.5404 29.4633C23.9109 31.9662 25.0225 33.2278 30.0486 33.2278C34.0521 33.2278 35.7583 32.3219 35.7583 30.197C35.7583 28.9724 35.2748 28.0628 29.0519 27.4533C23.8498 26.9382 20.6337 25.7859 20.6337 21.6287C20.6337 17.7938 23.8665 15.5059 29.2853 15.5059C35.3748 15.5059 38.389 17.6197 38.7706 22.1548C38.7765 22.2305 38.7667 22.3067 38.742 22.3785C38.7173 22.4503 38.6781 22.5162 38.6269 22.5723C38.5757 22.6284 38.5135 22.6734 38.4442 22.7045C38.375 22.7356 38.3 22.7522 38.2241 22.7532H35.749C35.6249 22.7515 35.5049 22.7082 35.4082 22.6303C35.3115 22.5524 35.2436 22.4444 35.2155 22.3234C34.6245 19.6909 33.1776 18.8498 29.2872 18.8498C24.9151 18.8498 24.4074 20.3726 24.4074 21.5138C24.4074 22.8959 25.0077 23.2997 30.9101 24.0797C36.7513 24.8522 39.5265 25.9452 39.5265 30.0506C39.5265 34.193 36.0732 36.5643 30.0505 36.5643C21.723 36.5754 19.9797 32.7572 19.9797 29.5541Z" fill="#83CD29"/>
</svg>
