<svg width="52" height="47" viewBox="0 0 52 47" fill="none" xmlns="http://www.w3.org/2000/svg">
<path d="M26 27.7315C28.5642 27.7315 30.6429 25.6528 30.6429 23.0887C30.6429 20.5245 28.5642 18.4458 26 18.4458C23.4358 18.4458 21.3571 20.5245 21.3571 23.0887C21.3571 25.6528 23.4358 27.7315 26 27.7315Z" fill="#00D8FF"/>
<path d="M26 33.7348C20.4195 33.8698 14.853 33.1175 9.50857 31.5062C7.03973 30.7236 4.73708 29.4907 2.717 27.8699C1.94616 27.3162 1.30422 26.6023 0.835235 25.7772C0.366252 24.9521 0.0813236 24.0352 0 23.0896C0 20.0198 3.37257 17.0112 9.022 15.0426C14.5094 13.2983 20.2427 12.4529 26 12.5392C31.6805 12.4598 37.337 13.2899 42.7551 14.9981C45.1328 15.7561 47.3574 16.9293 49.3257 18.4635C50.0834 18.9914 50.7157 19.6794 51.1778 20.4789C51.64 21.2783 51.9207 22.1696 52 23.0896C52 26.2802 48.23 29.5135 42.1571 31.5229C36.9161 33.0817 31.4671 33.8277 26 33.7348ZM26 14.7603C20.4919 14.6867 15.0072 15.4904 9.75186 17.1412C4.55186 18.9556 2.22114 21.4368 2.22114 23.0841C2.22114 24.8075 4.72643 27.5171 10.2273 29.3983C15.3401 30.9321 20.6637 31.646 26 31.5136C31.2305 31.6072 36.4444 30.8994 41.4607 29.4151C47.1714 27.5226 49.7714 24.8093 49.7714 23.0896C49.6777 22.4995 49.4627 21.9352 49.1398 21.4324C48.817 20.9295 48.3933 20.4991 47.8957 20.1683C46.1347 18.8073 44.1474 17.7675 42.0253 17.0966C36.842 15.4693 31.4321 14.6806 26 14.7603Z" fill="#00D8FF"/>
<path d="M15.4514 46.2456C14.5851 46.2655 13.7289 46.0553 12.9703 45.6364C10.3109 44.1024 9.38973 39.6787 10.5059 33.8009C11.7365 28.1758 13.8688 22.7867 16.8202 17.8424C19.5887 12.8822 23.1329 8.39685 27.3186 4.55644C29.163 2.87518 31.2908 1.53402 33.6032 0.595157C34.4395 0.203187 35.3519 0 36.2756 0C37.1993 0 38.1116 0.203187 38.948 0.595157C41.7133 2.18859 42.6289 7.06916 41.3382 13.3333C40.0695 18.6532 37.9926 23.7471 35.1799 28.4374C32.5088 33.3391 29.0761 37.7854 25.0102 41.6102C23.0988 43.3573 20.8805 44.7356 18.4674 45.6754C17.5014 46.034 16.4817 46.2267 15.4514 46.2456ZM18.7442 18.9456C15.9289 23.68 13.8852 28.8325 12.6899 34.2094C11.6629 39.623 12.649 42.8786 14.0827 43.7069C15.5684 44.5667 19.175 43.7514 23.5542 39.9257C27.4356 36.2615 30.712 32.0054 33.2614 27.3157C35.956 22.8317 37.9483 17.9616 39.169 12.8746C40.3836 6.97816 39.3343 3.36787 37.8449 2.50987C37.2866 2.29598 36.6901 2.20023 36.093 2.22868C35.4958 2.25713 34.9111 2.40916 34.3757 2.67516C32.3174 3.52452 30.4251 4.73033 28.7857 6.23716C24.7867 9.91576 21.4011 14.2098 18.7572 18.9567L18.7442 18.9456Z" fill="#00D8FF"/>
<path d="M36.543 46.2703C34.0266 46.2703 30.8304 44.7474 27.5024 41.8856C23.2434 38.0102 19.6392 33.4716 16.8294 28.4454C13.9151 23.5692 11.7997 18.2582 10.5634 12.7136C10.0273 10.2742 9.92794 7.75908 10.27 5.28501C10.3491 4.36722 10.6285 3.47796 11.0887 2.67993C11.5488 1.8819 12.1784 1.19453 12.9331 0.666297C15.6947 -0.932703 20.3803 0.710869 25.1624 4.9563C29.1378 8.71178 32.5137 13.0547 35.1724 17.8337C38.085 22.5961 40.2226 27.7909 41.5053 33.2239C42.0645 35.7528 42.1508 38.3633 41.7597 40.9236C41.6667 41.8678 41.3705 42.7807 40.8916 43.5997C40.4127 44.4187 39.7624 45.1245 38.9851 45.6686C38.2389 46.0822 37.396 46.2899 36.543 46.2703ZM18.7516 27.3274C21.4471 32.1308 24.89 36.4745 28.951 40.1956C33.1277 43.7892 36.4409 44.5617 37.8653 43.7242C39.351 42.8606 40.4467 39.3357 39.3176 33.6324C38.0805 28.4453 36.0302 23.4867 33.2429 18.9406C30.7057 14.3667 27.4834 10.208 23.6879 6.60915C19.1861 2.61258 15.535 1.7193 14.0474 2.58101C13.5838 2.95779 13.2033 3.42661 12.93 3.95787C12.6567 4.48913 12.4965 5.07129 12.4596 5.66758C12.1643 7.87403 12.2605 10.1153 12.7437 12.2883C13.9328 17.5907 15.9617 22.669 18.7534 27.3312L18.7516 27.3274Z" fill="#00D8FF"/>
</svg>
