<svg width="46" height="36" viewBox="0 0 46 36" fill="none" xmlns="http://www.w3.org/2000/svg">
<path d="M39.6051 20.7363C38.1607 20.7382 36.7356 21.0685 35.4376 21.7022C35.0312 21.0278 34.7174 20.3018 34.5045 19.5437C34.3823 18.9495 34.354 18.3398 34.4208 17.7368C34.5612 17.0733 34.7433 16.4193 34.9661 15.7787C34.9579 15.6949 34.8659 15.299 33.9411 15.2859C33.0163 15.2727 32.2196 15.4617 32.1341 15.7064C31.9735 16.1535 31.8445 16.6113 31.7481 17.0764C30.9827 18.9647 30.0405 20.7764 28.9342 22.4874C28.3143 21.4713 28.0594 20.2742 28.2114 19.0936C28.3518 18.4301 28.534 17.7761 28.7568 17.1356C28.7486 17.0518 28.6566 16.6559 27.7317 16.6427C26.8069 16.6296 26.0102 16.8185 25.9248 17.0633C25.8393 17.308 25.7309 17.8846 25.5387 18.4333C25.3465 18.9819 23.1026 23.9954 22.5145 25.2882C22.2123 25.9453 21.9511 26.4808 21.7671 26.8422C21.7584 26.8657 21.7474 26.8882 21.7343 26.9096L21.4829 27.3892V27.3974C21.3565 27.6241 21.2218 27.8344 21.1544 27.8344C21.0369 27.3651 21.0426 26.8734 21.1708 26.4069C21.4994 24.6673 22.3043 21.9634 22.2961 21.8698C22.2961 21.8189 22.4472 21.3491 21.7753 21.1059C21.6195 21.0318 21.4445 21.0078 21.2745 21.0372C21.1045 21.0666 20.9477 21.148 20.8259 21.2702C20.7667 21.2702 20.7257 21.4131 20.7257 21.4131C20.7257 21.4131 21.4567 18.3725 19.331 18.3725C18.5032 18.539 17.7171 18.8694 17.0189 19.3441C16.3207 19.8189 15.7245 20.4285 15.2654 21.1371C14.6937 21.4476 13.4765 22.1113 12.1738 22.8258C11.681 23.1034 11.1652 23.3811 10.6872 23.6472C10.6543 23.6143 10.6198 23.5716 10.587 23.5388C7.99974 20.7823 3.24416 18.8374 3.44949 15.1495C3.52506 13.8058 3.98665 10.2773 12.5812 5.99155C19.6546 2.50576 25.2841 3.47166 26.2582 5.61373C27.6529 8.67242 23.2423 14.3512 15.9339 15.1742C15.1254 15.3382 14.2904 15.3184 13.4905 15.1163C12.6907 14.9141 11.9465 14.5347 11.313 14.0062C10.927 13.5857 10.8679 13.5611 10.725 13.6448C10.4901 13.7713 10.6412 14.1491 10.725 14.3676C11.0038 14.8722 11.3809 15.3157 11.834 15.6721C12.2871 16.0284 12.8071 16.2903 13.3631 16.4423C16.2382 17.0636 19.2358 16.7666 21.933 15.5931C26.3683 13.8797 29.8179 9.11594 28.806 5.12585C27.7892 1.07662 21.069 -0.258885 14.7085 2.00474C10.7246 3.3453 7.04342 5.45686 3.87495 8.21903C0.371095 11.4962 -0.182492 14.343 0.0441991 15.5372C0.865544 19.7721 6.69873 22.5269 9.033 24.572C8.92753 24.632 8.82129 24.6906 8.71431 24.7478C7.54636 25.3276 3.09467 27.6553 1.97929 30.1161C0.719344 32.9087 2.18134 34.9045 3.14724 35.1739C4.60267 35.5223 6.13057 35.4076 7.51763 34.8457C8.90469 34.2838 10.0817 33.3028 10.8843 32.0397C11.5678 30.992 11.9879 29.7946 12.1089 28.5496C12.2299 27.3046 12.0481 26.0487 11.5792 24.889C11.5712 24.8703 11.5601 24.8531 11.5463 24.8381L12.4613 24.301C13.0173 23.9723 13.5803 23.6557 14.15 23.3515C13.808 24.3378 13.6072 25.3676 13.5537 26.4102C13.4376 28.0081 13.9266 29.5913 14.9237 30.8454C15.0754 30.976 15.2515 31.0752 15.4419 31.1373C15.6322 31.1993 15.833 31.2229 16.0325 31.2068C17.0181 31.2068 17.4698 30.3855 17.9643 29.4097C18.5688 28.2171 19.1142 26.8307 19.1142 26.8307C19.1142 26.8307 18.4341 30.5777 20.2821 30.5777C20.954 30.5777 21.6341 29.7038 21.938 29.2635V29.2717L21.9889 29.188L22.0973 29.0122V28.9958C22.3667 28.526 22.9712 27.4582 23.8698 25.6857C25.0295 23.4008 26.1465 20.5441 26.1465 20.5441C26.2543 21.1719 26.403 21.792 26.5917 22.4004C26.8623 23.1378 27.1822 23.8562 27.5494 24.5506C27.28 24.9285 27.1124 25.1387 27.1124 25.1387L27.1206 25.1469C26.9022 25.4328 26.6673 25.7432 26.4061 26.0455C25.629 26.8998 24.908 27.8036 24.2476 28.751C24.1495 28.9101 24.1157 29.1007 24.1533 29.2839C24.1908 29.467 24.2968 29.6289 24.4496 29.7366C24.7954 29.9166 25.1896 29.9816 25.5749 29.9222C26.1555 29.8895 26.7264 29.759 27.2636 29.5362C27.7827 29.3535 28.2724 29.0962 28.7173 28.7724C29.176 28.4546 29.5453 28.0241 29.7895 27.5224C30.0337 27.0207 30.1448 26.4646 30.112 25.9075C30.0603 25.2058 29.8811 24.5194 29.583 23.8821C29.6668 23.7638 29.7473 23.6472 29.8262 23.5289C30.7601 22.1349 31.6018 20.6813 32.346 19.1774C32.4538 19.8052 32.6025 20.4253 32.7912 21.0337C33.0144 21.6709 33.2891 22.289 33.6126 22.8817C32.5381 23.7083 31.6919 24.7948 31.1535 26.0389C30.6245 27.5683 31.0352 28.2566 31.8105 28.4159C32.2348 28.4451 32.659 28.3583 33.0376 28.1646C33.5943 27.9816 34.1187 27.7122 34.5916 27.3662C35.0902 27.0719 35.5079 26.6583 35.807 26.1625C36.1061 25.6667 36.2772 25.1044 36.3049 24.526C36.2676 23.9487 36.1373 23.3812 35.9189 22.8455C37.3367 22.2916 38.874 22.115 40.3804 22.333C44.3787 22.8028 45.1689 25.2981 45.0177 26.3494C44.9469 26.7221 44.797 27.0753 44.5783 27.3853C44.3596 27.6953 44.077 27.9548 43.7496 28.1465C43.472 28.3223 43.38 28.3814 43.4046 28.5079C43.4375 28.6935 43.5689 28.6837 43.8071 28.6508C44.4097 28.4635 44.9414 28.0979 45.332 27.6023C45.7226 27.1067 45.9538 26.5043 45.9951 25.8747C46.1216 23.4106 43.7693 20.7084 39.61 20.733L39.6051 20.7363ZM8.75538 31.1313C7.42809 32.5768 5.58006 33.1222 4.78171 32.6606C3.92423 32.1678 4.26098 30.0323 5.89053 28.5013C6.85717 27.6312 7.90196 26.852 9.01164 26.1736C9.20548 26.0554 9.49131 25.8878 9.83299 25.6808L9.92498 25.6299L10.127 25.5034C10.4182 26.4788 10.4445 27.5141 10.2035 28.5031C9.96247 29.4921 9.46267 30.3992 8.75538 31.1313ZM18.416 24.5605C17.9544 25.6857 16.9885 28.5687 16.4005 28.4077C15.8962 28.273 15.5791 26.0882 16.3003 23.9297C16.6644 22.8906 17.1947 21.9176 17.8707 21.0484C18.5934 20.2419 19.3918 19.9725 19.584 20.301C19.4086 21.771 19.015 23.2067 18.416 24.5605ZM26.388 28.3748C26.1942 28.475 26.0102 28.5391 25.9264 28.4931C25.8673 28.4603 26.0102 28.3288 26.0102 28.3288C26.0102 28.3288 27.0106 27.2529 27.4048 26.7666C27.6315 26.4808 27.8976 26.1457 28.1868 25.7662V25.8747C28.1868 27.1592 26.9432 28.0249 26.3897 28.3781L26.388 28.3748ZM32.5382 26.972C32.3953 26.8718 32.42 26.535 32.8996 25.4853C33.2331 24.8112 33.6991 24.2112 34.2696 23.7211C34.3571 23.9697 34.4026 24.2312 34.4043 24.4948C34.4108 25.0558 34.2314 25.6033 33.8942 26.0517C33.5569 26.5001 33.0807 26.8242 32.5399 26.9736L32.5382 26.972Z" fill="#CD6799"/>
</svg>
